<svg width="512" height="512" viewBox="0 0 512 512" fill="none" xmlns="http://www.w3.org/2000/svg">
<path d="M216.284 144.564C212.014 136.706 209.22 128.131 208.039 119.266C207.776 117.383 207.851 114.974 209.583 114.146C210.938 113.468 212.519 114.183 213.875 114.861C218.129 117.044 222.383 119.266 226.637 121.449C229.385 122.88 232.209 124.348 234.392 126.569C237.517 129.769 241.583 137.826 243.014 142.042L216.284 144.564Z" fill="#EAA568"/>
<path d="M216.283 146.447C215.605 146.447 214.965 146.07 214.626 145.468C210.221 137.41 207.36 128.6 206.193 119.491C205.591 115.011 207.247 113.167 208.753 112.414C211.087 111.247 213.534 112.527 214.739 113.129L227.502 119.717C230.212 121.148 233.337 122.729 235.746 125.176C239.134 128.64 243.313 136.96 244.782 141.364C244.97 141.891 244.894 142.494 244.593 142.983C244.292 143.472 243.765 143.774 243.2 143.849L216.471 146.447H216.283ZM210.824 115.727C210.673 115.727 210.56 115.764 210.447 115.802C209.92 116.065 209.732 117.345 209.92 119.002C211.012 127.284 213.497 135.19 217.337 142.569L240.339 140.385C238.607 136.244 235.483 130.334 233.036 127.849C231.04 125.816 228.367 124.423 225.77 123.105L213.007 116.517C212.593 116.254 211.502 115.727 210.824 115.727Z" fill="black"/>
<path d="M295.718 144.564C299.988 136.706 302.782 128.131 303.962 119.266C304.226 117.383 304.151 114.974 302.419 114.146C301.064 113.468 299.482 114.183 298.127 114.861C293.873 117.044 289.619 119.266 285.365 121.449C282.617 122.88 279.793 124.348 277.609 126.569C274.485 129.769 270.419 137.826 268.988 142.042L295.718 144.564Z" fill="#EAA568"/>
<path d="M295.72 146.447H295.532L268.84 143.925C268.275 143.887 267.748 143.548 267.447 143.059C267.146 142.569 267.071 141.967 267.259 141.44C268.765 136.998 272.906 128.678 276.294 125.252C278.704 122.805 281.791 121.186 284.539 119.793L297.301 113.205C298.506 112.602 300.953 111.322 303.287 112.489C304.793 113.242 306.412 115.049 305.847 119.567C304.662 128.672 301.803 137.479 297.414 145.543C297.038 146.071 296.398 146.447 295.72 146.447ZM271.626 140.386L294.628 142.569C298.478 135.215 300.989 127.235 302.045 119.002C302.271 117.308 302.082 116.066 301.518 115.802C300.915 115.501 299.485 116.216 298.958 116.518L286.195 123.106C283.598 124.461 280.925 125.854 278.929 127.849C276.482 130.334 273.358 136.245 271.626 140.386Z" fill="black"/>
<path d="M494.383 166.324C489.79 135.266 470.063 94.6443 434.826 82.3714C412.162 74.5032 387.541 69.3832 364.124 74.5032C340.67 79.6985 318.722 97.1667 314.167 120.734C310.214 141.553 313.903 163.275 315.56 184.32C316.124 191.36 317.028 198.851 321.696 204.122C325.612 208.489 331.183 210.334 337.056 211.049C345.941 212.141 353.583 217.901 356.52 226.409C363.484 246.324 360.736 269.816 349.329 287.811C345.489 293.835 343.004 299.52 336.529 302.607C329.979 305.694 322.826 306.974 316.275 309.986C309.95 312.922 304.303 317.477 300.124 323.124C290.148 336.715 272.83 341.383 255.927 341.383C239.023 341.383 221.743 336.715 211.729 323.124C207.529 317.464 201.976 312.946 195.579 309.986C189.028 306.974 181.875 305.694 175.324 302.607C168.849 299.52 166.364 293.835 162.524 287.811C151.117 269.816 148.369 246.324 155.334 226.409C158.27 217.901 165.913 212.141 174.797 211.049C180.708 210.334 186.28 208.489 190.157 204.122C194.826 198.851 195.729 191.36 196.294 184.32C197.95 163.237 201.677 141.553 197.687 120.734C193.132 97.1667 171.183 79.6985 147.729 74.5032C124.275 69.3832 99.6915 74.5032 77.028 82.3714C41.7904 94.682 22.0633 135.266 17.4704 166.324C15.0233 182.513 11.3715 199.943 22.6657 214.814C29.781 224.15 42.7692 228.141 52.7833 234.541C61.2539 239.924 69.2351 246.061 75.8233 253.628C85.1335 264.393 91.2376 277.553 93.4421 291.614C94.5339 298.654 94.7974 306.296 99.3151 311.717C103.532 316.724 110.647 318.833 114.11 324.329C116.219 327.717 116.595 331.896 117.009 335.924C117.348 339.877 117.762 344.056 120.021 347.407C121 348.95 122.393 350.042 123.936 350.607C126.496 351.585 127.701 354.447 126.421 356.894C120.134 368.79 116.106 375.002 120.473 395.369C131.089 445.138 187.673 442.39 213.988 417.091C221.367 409.976 226.939 401.28 233.527 393.449C239.626 386.221 246.515 376.621 255.889 376.621C265.263 376.621 272.153 386.221 278.252 393.449C284.84 401.28 290.412 409.976 297.79 417.091C324.106 442.39 380.652 445.138 391.306 395.369C395.673 375.002 391.644 368.79 385.357 356.894C384.077 354.447 385.282 351.585 387.842 350.607C389.386 350.042 390.779 348.95 391.757 347.407C394.016 344.094 394.43 339.915 394.769 335.924C395.146 331.896 395.522 327.717 397.668 324.329C401.132 318.833 408.247 316.724 412.463 311.717C417.019 306.258 417.282 298.654 418.336 291.614C420.541 277.553 426.645 264.393 435.955 253.628C442.543 246.061 450.562 239.924 458.995 234.541C468.972 228.141 481.997 224.15 489.113 214.814C500.482 199.943 496.83 182.513 494.383 166.324ZM233.15 366.004C227.363 377.06 217.953 385.792 206.496 390.738C200.849 393.11 194.637 394.503 188.614 393.223C179.315 391.19 172.275 382.644 170.167 373.383C168.435 365.778 169.64 357.835 172.426 350.456C173.329 348.009 175.437 346.353 177.997 345.976C180.03 345.6 182.101 344.508 183.908 343.416C186.807 341.76 189.555 339.651 192.868 339.237C196.708 338.861 200.36 340.894 203.673 342.814C212.557 348.122 222.12 353.581 231.23 358.964C233.64 360.395 234.43 363.444 233.15 366.004ZM341.837 373.383C339.729 382.682 332.689 391.19 323.39 393.223C317.367 394.503 311.155 393.11 305.508 390.738C294.101 385.882 284.576 376.96 278.854 366.004C277.574 363.444 278.327 360.357 280.774 358.964C289.884 353.581 299.409 348.16 308.332 342.814C311.644 340.894 315.296 338.861 319.136 339.237C322.449 339.614 325.235 341.722 328.096 343.416C329.903 344.508 331.936 345.6 334.007 345.976C336.567 346.353 338.675 348.009 339.579 350.456C342.327 357.797 343.569 365.741 341.837 373.383Z" fill="#F8BC80"/>
<path d="M182.099 122.503C172.311 112.979 166.024 100.028 155.144 91.7456C137.45 78.3056 111.135 80.8656 92.9512 93.5526C74.843 106.24 63.8124 127.059 57.6759 148.367C51.5394 169.637 49.6571 191.924 45.7794 213.684C45.7794 213.722 45.7794 213.797 45.7418 213.835C44.2735 221.778 34.7488 225.317 28.3865 220.31C26.3159 218.691 24.4335 216.847 22.8524 214.776C11.5959 199.906 15.2477 182.513 17.6571 166.287C22.25 135.228 41.9771 94.6067 77.2147 82.3338C99.8782 74.4656 124.499 69.3456 147.916 74.4656C171.37 79.6609 193.318 97.1291 197.874 120.696C198.664 125.139 187.069 127.36 182.099 122.503ZM329.902 122.503C339.69 112.979 345.977 100.028 356.857 91.7456C374.551 78.3056 400.866 80.8656 419.05 93.5526C437.158 106.24 448.189 127.059 454.325 148.367C460.462 169.637 462.344 191.924 466.222 213.684C466.222 213.722 466.222 213.797 466.259 213.835C467.728 221.778 477.252 225.317 483.615 220.31C485.685 218.691 487.568 216.847 489.149 214.776C500.405 199.906 496.754 182.513 494.344 166.287C489.751 135.228 470.024 94.6067 434.786 82.3338C412.123 74.4656 387.502 69.3456 364.085 74.4656C340.631 79.6609 318.683 97.1291 314.128 120.696C313.337 125.139 324.932 127.36 329.902 122.503Z" fill="#FFCD9F"/>
<path d="M35.0139 224.564C32.2281 224.564 29.4798 223.623 27.221 221.854C24.8492 219.971 22.9292 218.051 21.3481 215.943C10.3551 201.449 12.9904 184.357 15.3245 169.261L15.8139 166.023C20.821 132.291 41.5645 92.7997 76.6139 80.5644C105.075 70.6633 127.852 68.1409 148.332 72.6209C170.242 77.4774 194.637 94.1174 199.682 120.357C200.059 122.466 198.967 124.386 196.595 125.666C192.341 127.962 184.774 127.774 180.746 123.859C176.454 119.68 172.802 114.823 169.263 110.155C164.482 103.83 159.965 97.8444 153.941 93.2515C135.946 79.548 110.157 83.8021 93.9692 95.0962C74.2422 108.913 64.3034 131.953 59.4092 148.894C55.2681 163.162 53.0469 178.183 50.901 192.715C49.8845 199.717 48.7928 206.946 47.5128 214.023C47.1346 216.195 46.1958 218.23 44.7893 219.927C43.3829 221.624 41.5575 222.924 39.4939 223.699C38.0634 224.263 36.5198 224.564 35.0139 224.564ZM128.002 74.2774C113.207 74.2774 96.8304 77.515 77.781 84.1409C44.4257 95.7738 24.1716 135.04 19.5034 166.588L19.0139 169.826C16.6798 184.884 14.3081 200.433 24.3222 213.647C25.7151 215.491 27.4092 217.186 29.5175 218.842C32.0022 220.8 35.2398 221.289 38.2139 220.16C41.1881 219.03 43.2963 216.546 43.861 213.496C45.141 206.343 46.1951 199.115 47.2492 192.15C49.4328 177.506 51.6539 162.334 55.8328 147.84C63.061 122.729 75.5222 103.416 91.861 92.0091C112.04 77.9291 139.108 77.2138 156.275 90.2774C162.713 95.1715 167.607 101.647 172.313 107.896C175.739 112.451 179.315 117.195 183.419 121.148C186.092 123.746 191.852 123.934 194.826 122.315C195.052 122.202 196.106 121.6 195.993 121.035C191.249 96.4891 168.209 80.8656 147.466 76.2727C141.254 74.955 134.816 74.2774 128.002 74.2774ZM476.99 224.564C475.447 224.564 473.941 224.301 472.435 223.736C470.388 222.979 468.573 221.703 467.168 220.033C465.762 218.363 464.814 216.358 464.416 214.211C463.136 206.983 462.045 199.755 461.028 192.753C458.882 178.221 456.661 163.2 452.52 148.931C447.626 131.99 437.687 108.913 417.96 95.1338C401.772 83.8397 375.983 79.5856 357.988 93.2891C351.965 97.8444 347.447 103.868 342.666 110.193C339.127 114.861 335.475 119.717 331.183 123.896C327.155 127.811 319.626 128 315.334 125.703C312.962 124.423 311.87 122.503 312.247 120.433C317.367 94.1174 341.762 77.4774 363.71 72.6209C384.19 68.1409 406.967 70.6633 435.428 80.5644C470.477 92.7997 491.221 132.291 496.228 166.023L496.717 169.223C499.052 184.282 501.687 201.374 490.694 215.906C489.113 218.014 487.193 219.934 484.821 221.816C482.525 223.623 479.814 224.564 476.99 224.564ZM385.245 80.9409C397.179 80.9409 409.602 84.6303 420.143 92.0091C436.482 103.416 448.906 122.729 456.172 147.84C460.35 162.334 462.609 177.506 464.793 192.188C465.809 199.153 466.901 206.343 468.143 213.383C468.746 216.583 470.854 219.068 473.79 220.197C476.765 221.327 480.04 220.837 482.487 218.88C484.595 217.223 486.289 215.529 487.682 213.684C497.734 200.433 495.325 184.884 492.99 169.863L492.501 166.626C487.833 135.077 467.579 95.8115 434.186 84.1409C406.402 74.5033 384.266 72.0186 364.501 76.3103C343.757 80.9033 320.717 96.5268 315.974 121.073C315.861 121.637 316.915 122.202 317.141 122.315C320.115 123.934 325.875 123.746 328.548 121.148C332.652 117.157 336.19 112.451 339.654 107.896C344.397 101.647 349.254 95.1715 355.692 90.2774C363.936 84.028 374.365 80.9409 385.245 80.9409Z" fill="black"/>
<path d="M343.004 436.706C326.251 436.706 308.745 430.117 296.585 418.409C291.766 413.779 287.7 408.433 283.747 403.275C281.532 400.345 279.26 397.458 276.933 394.616L275.088 392.395C269.705 385.844 263.568 378.466 256.039 378.466C248.472 378.466 242.373 385.882 236.99 392.395L235.145 394.616C232.773 397.402 230.514 400.376 228.293 403.275C224.34 408.433 220.274 413.779 215.455 418.409C199.079 434.146 173.027 440.659 152.095 434.259C134.778 428.95 122.957 415.284 118.778 395.746C114.486 375.68 118.288 368.489 124.048 357.609L124.914 355.99C125.253 355.35 125.291 354.597 125.065 353.92C124.92 353.558 124.702 353.23 124.423 352.958C124.144 352.686 123.811 352.475 123.446 352.339C121.451 351.586 119.719 350.193 118.59 348.386C116.18 344.809 115.653 340.517 115.314 336.075C114.938 332.235 114.561 328.32 112.717 325.346C111.022 322.673 108.274 320.828 105.375 318.87C102.815 317.176 100.18 315.407 98.1095 312.922C93.9684 307.953 93.1025 301.553 92.2742 295.379C92.1237 294.212 91.9731 293.044 91.7848 291.877C89.6766 278.324 83.5778 265.148 74.6178 254.833C68.8954 248.282 61.5166 242.146 51.9542 236.084C48.8295 234.089 45.2531 232.244 41.8272 230.475C34.2601 226.597 26.4295 222.569 21.3472 215.906C10.3542 201.412 12.9895 184.32 15.286 169.223L15.7754 165.986C20.7825 132.254 41.526 92.7621 76.5754 80.5268C105.037 70.6257 127.851 68.1033 148.293 72.5833C170.241 77.4774 194.637 94.1174 199.681 120.357C202.881 137.148 201.15 154.503 199.493 171.332C199.041 175.736 198.627 180.103 198.288 184.47C197.686 191.962 196.67 199.755 191.662 205.364C187.898 209.543 182.477 212.028 175.098 212.894C166.702 213.91 159.851 219.332 157.178 227.012C150.401 246.4 153.074 269.289 164.142 286.795C164.82 287.849 165.422 288.866 166.062 289.882C168.886 294.55 171.333 298.579 176.19 300.875C179.39 302.381 182.853 303.473 186.241 304.527C189.63 305.581 193.093 306.673 196.406 308.216C203.107 311.341 208.942 316.084 213.272 321.92C223.926 336.376 242.335 339.426 255.964 339.426C269.592 339.426 288.001 336.376 298.655 321.957C302.985 316.084 308.82 311.341 315.521 308.254C318.834 306.71 322.335 305.619 325.686 304.564C329.037 303.51 332.538 302.419 335.738 300.913C340.594 298.616 343.041 294.588 345.865 289.92C346.467 288.903 347.107 287.887 347.785 286.833C358.891 269.327 361.564 246.4 354.787 227.049C352.114 219.369 345.262 213.948 336.867 212.932C329.488 212.066 324.067 209.581 320.34 205.402C315.333 199.793 314.317 192 313.714 184.508C313.375 180.141 312.924 175.774 312.51 171.369C310.853 154.541 309.121 137.186 312.321 120.395C317.366 94.1174 341.761 77.4774 363.71 72.621C384.19 68.141 406.966 70.6633 435.427 80.5645C470.477 92.7998 491.22 132.292 496.227 166.023L496.717 169.261C499.051 184.32 501.686 201.412 490.693 215.943C485.611 222.644 477.78 226.635 470.213 230.55C466.787 232.32 463.248 234.127 460.086 236.122C450.561 242.183 443.145 248.32 437.422 254.87C428.462 265.186 422.364 278.324 420.255 291.915C420.067 293.082 419.917 294.249 419.766 295.416C418.938 301.59 418.11 307.99 413.931 312.96C411.86 315.444 409.187 317.176 406.627 318.908C403.691 320.866 400.942 322.71 399.286 325.383C397.404 328.395 397.065 332.31 396.688 336.075C396.312 340.555 395.785 344.847 393.375 348.499C392.284 350.268 390.552 351.661 388.557 352.414C387.804 352.715 387.201 353.28 386.938 353.995C386.804 354.329 386.748 354.689 386.774 355.048C386.801 355.406 386.908 355.755 387.088 356.066L387.954 357.684C393.714 368.564 397.517 375.717 393.225 395.821C389.046 415.36 377.225 429.026 359.907 434.334C354.524 435.915 348.801 436.706 343.004 436.706ZM256.001 374.701C265.338 374.701 272.039 382.833 277.95 390.023L279.794 392.207C282.204 395.068 284.5 398.08 286.721 400.979C290.599 406.023 294.59 411.256 299.182 415.699C314.392 430.306 339.465 436.593 358.815 430.644C370.11 427.181 384.566 418.183 389.535 394.917C393.526 376.169 390.364 370.183 384.604 359.341L383.738 357.722C382.872 356.103 382.759 354.259 383.399 352.564C384.077 350.833 385.47 349.477 387.239 348.8C388.444 348.348 389.498 347.482 390.213 346.353C392.171 343.416 392.622 339.652 392.961 335.736C393.375 331.407 393.79 327.04 396.124 323.313C398.232 319.962 401.47 317.779 404.594 315.708C407.041 314.089 409.338 312.546 411.107 310.475C414.533 306.372 415.286 300.762 416.077 294.852C416.227 293.647 416.378 292.442 416.566 291.275C418.825 276.819 425.074 263.341 434.599 252.348C440.547 245.534 448.227 239.172 458.053 232.922C461.328 230.814 464.98 228.969 468.481 227.162C475.672 223.473 483.126 219.67 487.681 213.647C497.733 200.395 495.324 184.847 492.99 169.826L492.5 166.588C487.832 135.04 467.578 95.7739 434.185 84.141C406.401 74.5033 384.265 72.0186 364.5 76.3104C343.757 80.9033 320.717 96.5268 315.973 121.073C312.886 137.299 314.58 154.428 316.199 170.955C316.651 175.36 317.065 179.764 317.404 184.169C318.006 191.322 318.872 198.099 323.088 202.842C326.213 206.306 330.844 208.376 337.281 209.129C347.107 210.334 355.164 216.696 358.288 225.769C365.441 246.174 362.618 270.343 350.91 288.828C350.27 289.844 349.63 290.861 349.027 291.84C346.015 296.809 343.154 301.515 337.319 304.301C333.893 305.92 330.279 307.049 326.815 308.141C323.39 309.233 320.19 310.212 317.065 311.68C310.928 314.541 305.62 318.87 301.667 324.216C290.11 339.915 270.42 343.228 255.964 343.228C241.507 343.228 221.818 339.915 210.26 324.216C206.242 318.829 200.952 314.522 194.862 311.68C191.775 310.249 188.538 309.233 185.15 308.179C181.648 307.087 178.072 305.957 174.646 304.339C168.773 301.553 165.95 296.847 162.938 291.877C162.335 290.899 161.733 289.882 161.055 288.866C149.347 270.381 146.524 246.212 153.677 225.807C156.801 216.772 164.858 210.409 174.684 209.204C181.121 208.414 185.752 206.381 188.877 202.88C193.093 198.136 193.959 191.322 194.561 184.207C194.9 179.84 195.352 175.435 195.766 171.03C197.385 154.466 199.079 137.374 195.992 121.148C191.248 96.6021 168.208 80.9786 147.465 76.3857C127.7 72.0563 105.564 74.541 77.7801 84.2163C44.4248 95.7739 24.1707 135.04 19.5025 166.588L19.0131 169.826C16.679 184.884 14.3072 200.433 24.3213 213.647C28.8766 219.633 36.3307 223.473 43.5213 227.162C47.0225 228.969 50.6742 230.814 53.9495 232.922C63.7754 239.172 71.4554 245.534 77.4037 252.348C86.966 263.341 93.2154 276.819 95.4743 291.275C95.6625 292.442 95.8131 293.647 95.9637 294.852C96.7542 300.762 97.5072 306.334 100.933 310.475C102.665 312.508 104.961 314.052 107.408 315.708C110.533 317.779 113.733 319.962 115.879 323.313C118.213 327.077 118.627 331.444 119.041 335.661C119.38 339.689 119.794 343.454 121.752 346.353C122.467 347.52 123.521 348.386 124.764 348.837C126.533 349.515 127.926 350.87 128.604 352.602C129.244 354.296 129.131 356.141 128.265 357.76L127.399 359.416C121.639 370.259 118.477 376.244 122.467 394.993C127.437 418.259 141.931 427.256 153.187 430.72C172.538 436.63 197.611 430.343 212.82 415.736C217.413 411.294 221.404 406.099 225.281 401.054C227.502 398.155 229.799 395.143 232.246 392.282L234.053 390.099C239.964 382.833 246.665 374.701 256.001 374.701ZM193.319 395.595C191.55 395.595 189.855 395.407 188.237 395.068C178.75 392.96 170.768 384.414 168.359 373.797C166.702 366.456 167.455 358.362 170.655 349.779C171.785 346.729 174.42 344.583 177.695 344.094C179.465 343.755 181.422 342.701 182.891 341.797C183.493 341.459 184.058 341.12 184.622 340.743C187.032 339.237 189.554 337.732 192.604 337.355C197.159 336.941 201.262 339.275 204.575 341.195C209.545 344.169 214.665 347.143 219.822 350.155C223.964 352.564 228.105 354.974 232.133 357.346C235.408 359.228 236.538 363.332 234.768 366.87V366.908C228.814 378.367 219.077 387.413 207.211 392.508C202.279 394.541 197.611 395.595 193.319 395.595ZM193.808 341.082C193.545 341.082 193.319 341.082 193.055 341.12C190.834 341.383 188.801 342.626 186.618 343.981C186.015 344.357 185.451 344.696 184.848 345.073C183.117 346.127 180.82 347.407 178.373 347.859C176.415 348.16 174.872 349.364 174.232 351.134C171.295 359.002 170.542 366.381 172.048 373.007C174.157 382.268 181.008 389.647 189.065 391.454C193.921 392.47 199.568 391.68 205.78 389.044C216.773 384.339 225.921 375.868 231.493 365.214C232.359 363.482 231.832 361.524 230.288 360.659C226.222 358.249 222.119 355.84 217.978 353.468C212.82 350.456 207.662 347.482 202.731 344.508C199.982 342.852 196.858 341.082 193.808 341.082ZM318.684 395.595C314.354 395.595 309.724 394.541 304.792 392.47C292.915 387.377 283.165 378.333 277.197 366.87C275.427 363.332 276.557 359.228 279.832 357.346C283.86 354.974 288.001 352.564 292.105 350.155C297.262 347.143 302.382 344.169 307.314 341.233C310.627 339.313 314.731 336.903 319.286 337.393C322.373 337.732 324.895 339.275 327.305 340.781L328.999 341.797C330.505 342.701 332.462 343.793 334.307 344.132C337.545 344.621 340.18 346.729 341.31 349.816C344.51 358.362 345.3 366.456 343.606 373.797C341.197 384.414 333.215 392.997 323.728 395.068C322.147 395.407 320.453 395.595 318.684 395.595ZM318.194 341.082C315.145 341.082 312.02 342.889 309.272 344.47C304.34 347.407 299.182 350.419 294.025 353.43C289.921 355.84 285.78 358.212 281.752 360.621C280.208 361.524 279.681 363.482 280.547 365.214C286.108 375.889 295.194 384.309 306.26 389.044C312.472 391.68 318.119 392.47 323.013 391.416C331.07 389.647 337.921 382.23 340.03 372.969C341.535 366.343 340.82 359.002 337.846 351.134C337.206 349.364 335.662 348.16 333.742 347.859C331.22 347.407 328.924 346.127 327.154 345.035C326.59 344.696 325.987 344.357 325.422 343.981C323.239 342.663 321.206 341.383 318.947 341.12C318.684 341.082 318.42 341.082 318.194 341.082Z" fill="black"/>
<path d="M345.715 154.466C344.247 144.715 339.579 135.492 332.84 128.339C328.247 123.407 316.2 111.096 309.273 116.63C306.525 118.889 305.057 122.315 302.986 125.289C297.339 133.684 287.362 138.24 277.386 139.557C270.271 140.536 263.155 140.084 256.002 139.181C248.887 140.084 241.734 140.536 234.619 139.557C224.642 138.202 214.628 133.647 209.019 125.289C206.986 122.353 205.48 118.889 202.732 116.63C195.805 111.134 183.758 123.407 179.165 128.339C172.426 135.529 167.758 144.753 166.29 154.466C163.654 172.988 172.69 192.64 188.501 202.579C192.981 205.402 198.026 207.586 201.64 211.539C209.885 220.687 207.024 234.993 209.659 247.077C211.955 257.769 219.259 267.256 229.01 272.301C236.2 276.066 246.779 275.953 256.04 275.953C265.301 275.953 275.88 276.066 283.071 272.301C292.821 267.256 300.125 257.769 302.421 247.077C305.057 234.955 302.158 220.687 310.44 211.539C314.017 207.586 319.099 205.402 323.579 202.579C339.315 192.64 348.351 172.988 345.715 154.466ZM285.706 258.108C285.066 260.141 283.146 261.496 281.113 261.496C280.661 261.496 280.21 261.421 279.758 261.308C277.65 260.668 275.466 259.953 273.358 259.2C267.41 257.167 261.687 255.247 256.379 255.473L256.078 255.548L255.626 255.473C250.318 255.209 244.595 257.129 238.647 259.2C236.539 259.953 234.355 260.668 232.322 261.308C229.762 262.061 227.09 260.668 226.299 258.108C225.944 256.885 226.079 255.572 226.677 254.447C227.274 253.322 228.287 252.475 229.499 252.084C231.494 251.52 233.452 250.804 235.522 250.089C242.111 247.793 248.962 245.421 256.266 245.91C263.042 245.383 269.894 247.755 276.52 250.089C278.553 250.804 280.548 251.482 282.544 252.084C285.028 252.837 286.497 255.548 285.706 258.108ZM288.981 236.574C288.341 238.682 286.421 240.037 284.388 240.037C283.937 240.037 283.485 239.962 283.033 239.849L278.553 238.569C271.137 236.31 263.457 234.089 256.454 234.654L256.078 234.729L255.551 234.654C248.586 234.089 240.868 236.31 233.452 238.569L228.972 239.849C226.412 240.602 223.777 239.134 223.024 236.574C222.308 234.014 223.777 231.303 226.337 230.626L230.704 229.346C238.911 226.899 247.306 224.414 256.002 225.054C264.699 224.414 273.094 226.899 281.301 229.346L285.668 230.626C288.228 231.341 289.697 234.014 288.981 236.574ZM293.348 212.63C292.784 214.739 290.864 216.169 288.68 216.169C288.304 216.169 287.927 216.169 287.475 216.056C285.442 215.491 283.259 214.889 281 214.249C272.868 211.877 263.645 209.317 256.266 209.506C248.435 209.317 239.174 211.877 231.042 214.249C228.784 214.889 226.638 215.454 224.567 216.056C222.007 216.771 219.372 215.228 218.694 212.668C218.054 210.108 219.522 207.473 222.082 206.757C224.115 206.23 226.186 205.59 228.37 204.95C237.254 202.466 247.344 199.454 256.228 199.906C264.737 199.529 274.788 202.466 283.711 204.95C285.894 205.59 287.927 206.23 289.998 206.757C292.52 207.435 294.064 210.07 293.348 212.63ZM293.612 188.273C293.348 188.273 293.047 188.197 292.708 188.197L288.341 187.294C278.402 185.374 266.054 183.002 256.944 183.454L256.04 183.793L255.061 183.454C245.913 183.002 233.527 185.374 223.626 187.294L219.297 188.235C216.661 188.687 214.177 186.955 213.65 184.395C213.122 181.76 214.854 179.275 217.49 178.748L221.781 177.92C232.398 175.887 245.612 173.251 255.965 173.967C266.355 173.327 279.532 175.887 290.148 177.92L294.44 178.748C297.075 179.275 298.807 181.76 298.28 184.395C297.904 186.691 295.908 188.273 293.612 188.273Z" fill="#F8BC80"/>
<path d="M305.619 121.035C309.271 124.423 312.471 128.414 314.466 130.899C321.205 139.557 325.873 150.513 327.266 162.221C328.998 176.564 327.605 191.435 321.995 203.407C322.522 203.143 323.012 202.88 323.464 202.579C339.275 192.64 348.311 172.988 345.675 154.466C344.207 144.715 339.539 135.492 332.8 128.339C328.207 123.407 316.16 111.096 309.233 116.63C307.802 117.835 306.673 119.379 305.619 121.035ZM206.381 121.035C202.729 124.423 199.529 128.414 197.534 130.899C190.795 139.557 186.127 150.513 184.734 162.221C183.002 176.564 184.395 191.435 190.005 203.407C189.478 203.143 188.988 202.88 188.536 202.579C172.725 192.64 163.689 172.988 166.325 154.466C167.793 144.715 172.461 135.492 179.2 128.339C183.793 123.407 195.84 111.096 202.767 116.63C204.198 117.835 205.327 119.379 206.381 121.035Z" fill="#FFCD9F"/>
<path d="M257.733 277.835H255.136C245.912 277.797 235.446 277.835 228.105 273.957C217.827 268.611 210.223 258.71 207.813 247.454C206.91 243.313 206.646 238.983 206.383 234.729C205.856 226.334 205.366 218.39 200.246 212.743C197.837 210.07 194.637 208.263 191.286 206.343C190.006 205.628 188.764 204.913 187.521 204.122C171.22 193.882 161.733 173.327 164.444 154.164C165.95 144.225 170.693 134.588 177.809 127.021C189.441 114.597 198.213 110.569 203.936 115.124C206.119 116.894 207.512 119.228 208.867 121.487C209.432 122.39 209.959 123.331 210.561 124.197C215.38 131.35 224.227 136.244 234.881 137.675C240.83 138.465 247.267 138.353 255.776 137.298C255.926 137.298 256.077 137.261 256.227 137.298C261.987 138.014 269.554 138.691 277.121 137.675C287.776 136.244 296.66 131.313 301.441 124.197C302.081 123.294 302.609 122.39 303.173 121.487C304.529 119.228 305.921 116.931 308.105 115.162C313.827 110.607 322.599 114.597 334.232 127.058C341.347 134.663 346.091 144.301 347.597 154.202C350.307 173.364 340.82 193.92 324.519 204.16C323.277 204.913 322.034 205.665 320.754 206.381C317.366 208.301 314.204 210.108 311.794 212.818C306.712 218.465 306.185 226.409 305.658 234.804C305.394 239.021 305.131 243.388 304.227 247.529C301.818 258.785 294.213 268.687 283.898 274.033C276.783 277.722 266.731 277.835 257.733 277.835ZM256.001 274.07H256.867C265.601 274.108 275.616 274.07 282.166 270.644C291.503 265.788 298.354 256.828 300.538 246.663C301.366 242.823 301.63 238.607 301.893 234.503C302.458 225.844 303.023 216.884 308.971 210.258C311.794 207.134 315.408 205.063 318.872 203.105C320.077 202.39 321.319 201.713 322.486 200.96C337.583 191.51 346.354 172.498 343.832 154.729C342.439 145.581 338.034 136.658 331.446 129.618C321.696 119.153 314.204 115.087 310.439 118.098C308.783 119.416 307.616 121.374 306.373 123.444C305.771 124.423 305.169 125.402 304.529 126.343C299.183 134.324 289.357 139.821 277.611 141.402C269.705 142.494 261.912 141.778 255.964 141.063C247.23 142.155 240.566 142.268 234.317 141.402C222.571 139.821 212.783 134.324 207.399 126.305C206.759 125.402 206.157 124.423 205.592 123.444C204.35 121.374 203.183 119.416 201.526 118.098C197.761 115.124 190.307 119.19 180.519 129.656C173.931 136.696 169.526 145.618 168.133 154.767C165.611 172.498 174.42 191.51 189.479 200.997C190.646 201.75 191.889 202.428 193.093 203.143C196.557 205.138 200.171 207.171 202.994 210.296C208.98 216.922 209.545 225.882 210.072 234.541C210.336 238.607 210.599 242.823 211.427 246.701C213.611 256.865 220.5 265.825 229.799 270.682C236.35 274.145 246.364 274.07 255.098 274.108H256.001V274.07ZM230.891 263.378C229.456 263.381 228.058 262.92 226.906 262.066C225.753 261.212 224.906 260.008 224.491 258.635C223.437 255.096 225.432 251.369 228.933 250.277C230.665 249.788 232.359 249.185 234.091 248.583L234.881 248.32C241.319 246.061 248.585 243.501 256.378 244.065C263.305 243.501 270.646 246.061 277.121 248.32L277.95 248.621C279.681 249.223 281.376 249.788 283.07 250.277C286.609 251.369 288.604 255.134 287.55 258.635V258.672C286.496 262.023 282.806 264.131 279.267 263.115C277.084 262.475 274.9 261.722 272.754 260.969C267.258 259.087 261.611 257.167 256.529 257.355C256.303 257.393 256.039 257.43 255.851 257.393L255.399 257.317C250.505 256.978 244.82 259.049 239.324 260.931C237.216 261.684 234.994 262.4 232.924 263.077C232.209 263.303 231.531 263.378 230.891 263.378ZM254.42 247.755C247.945 247.755 241.959 249.863 236.124 251.896L235.333 252.16C233.526 252.8 231.757 253.402 230.025 253.891C228.519 254.343 227.616 256 228.105 257.543C228.214 257.913 228.395 258.257 228.638 258.556C228.882 258.856 229.182 259.103 229.522 259.285C229.861 259.468 230.234 259.58 230.618 259.617C231.001 259.654 231.388 259.615 231.757 259.501C233.752 258.861 235.898 258.183 238.006 257.43C243.879 255.397 249.94 253.289 255.7 253.59L256.001 253.628C256.114 253.59 256.227 253.59 256.265 253.59C262.063 253.327 268.086 255.397 273.959 257.393C276.067 258.145 278.213 258.861 280.284 259.463C281.752 259.877 283.446 258.974 283.898 257.505C284.119 256.762 284.037 255.961 283.67 255.277C283.304 254.593 282.682 254.082 281.94 253.854C280.209 253.364 278.477 252.762 276.67 252.122L275.841 251.821C269.441 249.6 262.816 247.265 256.34 247.755H254.42ZM227.616 241.92C226.524 241.92 225.432 241.656 224.416 241.091C222.872 240.225 221.743 238.833 221.216 237.101C220.199 233.487 222.307 229.76 225.846 228.781L230.176 227.501C238.533 225.016 247.117 222.494 256.152 223.134C264.924 222.494 273.47 225.016 281.79 227.463L286.194 228.781C287.888 229.233 289.319 230.362 290.185 231.943C291.051 233.524 291.277 235.294 290.787 237.025V237.063C289.733 240.489 285.969 242.597 282.505 241.581L278.025 240.301C271.173 238.23 263.418 235.896 256.604 236.461L256.378 236.498C256.204 236.536 256.025 236.536 255.851 236.498L255.324 236.423C248.547 235.896 240.83 238.193 234.016 240.263L229.498 241.543C228.858 241.844 228.218 241.92 227.616 241.92ZM253.404 226.823C245.761 226.823 238.42 229.007 231.305 231.115L226.9 232.395C226.526 232.499 226.175 232.676 225.87 232.917C225.564 233.157 225.31 233.456 225.121 233.796C224.931 234.136 224.812 234.509 224.768 234.896C224.725 235.282 224.758 235.673 224.867 236.047C225.093 236.762 225.583 237.402 226.26 237.778C226.938 238.155 227.691 238.23 228.444 238.004L232.961 236.724C239.738 234.691 248.209 232.094 255.738 232.771L256.039 232.809H256.152C263.87 232.131 272.303 234.729 279.079 236.762L283.521 238.042C285.065 238.456 286.684 237.553 287.136 236.047C287.324 235.294 287.248 234.503 286.872 233.825C286.496 233.148 285.856 232.658 285.14 232.433L280.773 231.153C272.717 228.781 264.472 226.334 256.152 226.936C255.211 226.861 254.307 226.823 253.404 226.823ZM223.286 218.089C222.119 218.089 220.99 217.788 219.973 217.185C218.43 216.282 217.338 214.851 216.849 213.12C215.945 209.468 218.016 205.891 221.554 204.913C223.136 204.536 224.641 204.084 226.223 203.595L229.347 202.691C237.893 200.282 247.569 197.571 256.303 197.985C264.585 197.571 274.411 200.357 283.07 202.804L285.743 203.595C287.324 204.084 288.867 204.536 290.373 204.913C293.987 205.891 296.096 209.581 295.117 213.12C294.326 216.018 291.653 218.014 288.641 218.014C288.19 218.014 287.625 218.014 286.91 217.825L284.387 217.148C283.107 216.809 281.79 216.433 280.434 216.056C271.964 213.609 263.154 211.237 256.265 211.388C248.849 211.237 239.964 213.571 231.493 216.056C230.138 216.433 228.783 216.809 227.503 217.185L225.018 217.863C224.491 217.976 223.889 218.089 223.286 218.089ZM254.533 201.713C246.703 201.713 238.044 204.16 230.364 206.305L227.314 207.209C225.658 207.698 224.114 208.15 222.533 208.564C221.027 208.978 220.124 210.56 220.5 212.178C220.689 212.894 221.178 213.534 221.856 213.91C222.533 214.287 223.324 214.4 224.039 214.211L226.524 213.534C227.804 213.195 229.121 212.818 230.477 212.442C239.211 209.92 248.321 207.435 256.265 207.623C263.531 207.435 272.378 209.807 281.451 212.442C282.769 212.818 284.086 213.195 285.366 213.534L287.889 214.249C288.077 214.287 288.265 214.324 288.604 214.324C289.959 214.324 291.126 213.458 291.465 212.178C291.659 211.43 291.55 210.635 291.163 209.966C290.775 209.297 290.14 208.807 289.394 208.602C287.851 208.225 286.27 207.736 284.651 207.247L282.016 206.494C273.62 204.122 264.058 201.487 256.227 201.825C255.7 201.713 255.136 201.713 254.533 201.713ZM293.611 190.155C293.423 190.155 293.234 190.155 293.009 190.117C292.896 190.117 292.444 190.08 292.331 190.042L287.964 189.138C278.289 187.256 266.204 184.884 257.319 185.336L256.679 185.562C256.265 185.713 255.851 185.713 255.437 185.562L254.721 185.336C245.761 184.922 233.677 187.294 223.964 189.176L219.634 190.08C215.983 190.757 212.481 188.31 211.766 184.771C211.427 183.04 211.766 181.233 212.783 179.764C213.799 178.258 215.305 177.242 217.112 176.903L222.383 175.887C232.811 173.891 245.799 171.407 256.114 172.084C266.354 171.444 279.606 173.967 290.26 176.037L294.853 176.941C296.623 177.28 298.129 178.296 299.145 179.764C300.161 181.233 300.538 183.04 300.199 184.809C299.559 187.896 296.811 190.155 293.611 190.155ZM252.538 175.698C243.164 175.698 232.171 177.807 223.098 179.576L217.827 180.593C217.037 180.743 216.359 181.195 215.907 181.835C215.493 182.475 215.343 183.228 215.456 183.981C215.757 185.562 217.3 186.616 218.919 186.353L223.211 185.487C233.225 183.529 245.686 181.12 255.136 181.609C255.324 181.609 255.474 181.647 255.663 181.722L256.001 181.835L256.265 181.722C256.453 181.647 256.641 181.609 256.83 181.609C266.204 181.12 278.665 183.567 288.679 185.487L292.896 186.353C293.046 186.353 293.234 186.39 293.385 186.39H293.573C295.004 186.39 296.209 185.411 296.472 184.018C296.623 183.265 296.472 182.475 296.02 181.835C295.568 181.195 294.891 180.743 294.1 180.593L289.809 179.764C279.079 177.694 266.129 175.209 256.077 175.811C254.947 175.736 253.78 175.698 252.538 175.698Z" fill="black"/>
<path d="M282.017 131.953H230.026C229.085 130.033 229.537 127.699 230.704 125.967C231.946 124.235 233.716 122.993 235.636 122.052C237.518 121.148 239.476 120.395 241.321 119.341C243.73 117.873 245.801 115.915 247.307 113.543C248.474 111.812 249.302 109.892 250.431 108.198C251.598 106.466 253.97 104.583 256.003 104.583C258.074 104.583 260.445 106.466 261.575 108.198C262.817 109.892 263.608 111.812 264.737 113.543C266.243 115.915 268.314 117.873 270.761 119.341C272.568 120.395 274.525 121.148 276.37 122.052C278.29 122.993 280.097 124.235 281.302 125.967C282.469 127.699 282.958 130.033 282.017 131.953Z" fill="#F8BC80"/>
<path d="M282.017 133.835H230.026C229.311 133.835 228.671 133.421 228.332 132.781C227.165 130.409 227.466 127.398 229.122 124.913C230.44 123.068 232.285 121.562 234.77 120.358C235.447 120.056 236.087 119.755 236.765 119.454C237.97 118.927 239.174 118.362 240.341 117.722C242.562 116.367 244.37 114.635 245.687 112.565C246.29 111.699 246.741 110.795 247.231 109.929C247.758 108.988 248.247 108.047 248.812 107.181C250.318 104.96 253.217 102.739 255.965 102.739C258.751 102.739 261.65 104.998 263.118 107.219C263.833 108.198 264.435 109.289 265 110.381C265.414 111.134 265.791 111.887 266.28 112.565C267.635 114.673 269.442 116.442 271.701 117.76C272.793 118.4 273.998 118.927 275.165 119.454C275.842 119.755 276.52 120.056 277.198 120.395C279.758 121.638 281.602 123.143 282.845 124.951C284.539 127.473 284.878 130.485 283.711 132.819C283.372 133.421 282.732 133.835 282.017 133.835ZM231.419 130.071H280.624C280.699 129.092 280.398 128 279.758 127.021C278.892 125.779 277.499 124.687 275.541 123.746L273.621 122.842C272.341 122.278 271.024 121.675 269.781 120.96C267.093 119.373 264.812 117.182 263.118 114.56C262.628 113.769 262.177 112.941 261.687 112.113C261.16 111.172 260.671 110.193 259.993 109.327C258.977 107.783 257.094 106.466 255.927 106.466C254.798 106.466 252.915 107.783 251.899 109.252C251.372 110.042 250.92 110.871 250.468 111.699C249.941 112.678 249.377 113.656 248.774 114.598C247.193 117.082 244.934 119.303 242.224 120.96C240.906 121.713 239.588 122.315 238.271 122.88C237.631 123.181 236.991 123.445 236.388 123.746C234.506 124.687 233.113 125.779 232.172 127.059C231.607 128 231.306 129.092 231.419 130.071Z" fill="black"/>
<path d="M280.058 129.205C281.564 129.205 283.07 129.656 284.162 130.673C287.814 134.061 290.148 138.842 290.524 143.812C290.976 149.534 288.981 155.558 284.915 159.586C291.127 163.012 293.574 171.106 292.105 178.033C290.637 184.96 286.27 190.758 281.112 195.614C283.296 204.725 281.225 215.718 276.482 223.812C279.607 225.882 280.999 229.948 280.849 233.713C280.698 237.478 279.305 241.054 277.95 244.555C277.047 246.852 276.068 249.449 273.884 250.616C276.67 253.478 277.272 257.92 276.407 261.835C275.541 265.75 272.717 269.289 270.609 272.715C272.792 275.84 273.621 279.906 272.83 283.633C272.265 286.419 270.835 289.167 268.802 291.2C267.597 292.405 265.941 293.082 264.247 293.082H247.757C246.063 293.082 244.369 292.442 243.202 291.2C241.173 289.107 239.777 286.484 239.174 283.633C238.421 279.906 239.249 275.878 241.395 272.715C239.324 269.289 236.463 265.75 235.597 261.835C234.731 257.92 235.334 253.478 238.119 250.616C235.936 249.449 234.957 246.852 234.054 244.555C232.661 241.054 231.268 237.478 231.155 233.713C231.042 229.948 232.397 225.92 235.522 223.812C230.778 215.718 228.67 204.762 230.891 195.614C225.734 190.795 221.367 184.96 219.898 178.033C218.43 171.106 220.877 162.974 227.089 159.586C223.023 155.52 221.028 149.534 221.479 143.812C221.856 138.842 224.19 134.061 227.842 130.673C228.934 129.656 230.439 129.205 231.945 129.205H280.058Z" fill="#F8BC80"/>
<path d="M264.245 294.927H247.755C245.496 294.927 243.351 294.023 241.845 292.518C239.586 290.221 237.967 287.172 237.327 283.972C236.537 280.132 237.214 276.066 239.172 272.678C238.871 272.226 238.607 271.774 238.306 271.36C236.461 268.536 234.504 265.562 233.788 262.249C232.847 258.033 233.487 253.967 235.52 250.955C233.977 249.374 233.148 247.228 232.433 245.421C231.002 241.807 229.497 237.892 229.346 233.788C229.195 229.647 230.626 225.807 233.186 223.36C228.819 215.115 227.162 204.762 228.894 196.254C223.059 190.607 219.445 184.621 218.127 178.447C216.734 172.009 218.504 163.727 224.301 159.209C220.951 154.993 219.219 149.308 219.671 143.661C220.085 138.278 222.607 133.007 226.635 129.28C227.991 128 229.911 127.285 232.019 127.285H280.169C282.278 127.285 284.198 128 285.553 129.28C289.575 133.046 292.057 138.17 292.518 143.661C292.969 149.346 291.238 154.993 287.887 159.209C293.685 163.727 295.454 171.972 294.061 178.447C292.744 184.621 289.129 190.607 283.294 196.254C285.026 204.762 283.369 215.115 279.002 223.36C281.525 225.807 282.993 229.609 282.842 233.788C282.692 237.929 281.148 241.807 279.793 245.271C279.04 247.191 278.174 249.374 276.631 250.955C278.626 253.967 279.266 258.033 278.362 262.249C277.609 265.6 275.689 268.536 273.845 271.36C273.544 271.812 273.242 272.263 272.979 272.715C274.937 276.103 275.614 280.132 274.824 284.009C274.184 287.209 272.565 290.221 270.306 292.555C268.649 294.023 266.466 294.927 264.245 294.927ZM231.944 131.087C230.814 131.087 229.798 131.426 229.12 132.066C225.807 135.153 223.699 139.482 223.36 143.962C222.946 149.346 224.828 154.692 228.442 158.268C228.857 158.682 229.045 159.285 228.969 159.849C228.894 160.414 228.518 160.941 228.028 161.242C222.306 164.405 220.537 171.896 221.779 177.656C223.021 183.416 226.409 188.838 232.245 194.221C232.734 194.673 232.96 195.388 232.809 196.028C230.814 204.311 232.546 214.852 237.252 222.833C237.741 223.699 237.515 224.791 236.687 225.355C233.939 227.2 233.035 230.814 233.148 233.6C233.261 237.101 234.617 240.527 235.934 243.84C236.8 246.023 237.628 248.132 239.134 248.922C239.393 249.058 239.617 249.254 239.787 249.492C239.957 249.731 240.068 250.006 240.112 250.295C240.156 250.585 240.131 250.88 240.04 251.159C239.949 251.437 239.793 251.689 239.586 251.896C237.101 254.456 236.913 258.447 237.553 261.383C238.155 264.056 239.887 266.692 241.544 269.252C242.071 270.08 242.598 270.871 243.087 271.661C243.464 272.301 243.464 273.092 243.012 273.694C241.129 276.405 240.414 279.943 241.092 283.143C241.581 285.591 242.861 288.038 244.631 289.807C245.459 290.635 246.626 291.087 247.868 291.087H264.358C265.6 291.087 266.767 290.598 267.595 289.769C269.327 288 270.607 285.591 271.134 283.106C271.812 279.868 271.059 276.367 269.214 273.656C269.009 273.36 268.894 273.011 268.88 272.651C268.867 272.291 268.957 271.934 269.139 271.623C269.628 270.833 270.155 270.005 270.682 269.214C272.339 266.654 274.071 264.019 274.673 261.346C275.313 258.447 275.125 254.419 272.64 251.859C272.436 251.65 272.283 251.397 272.193 251.12C272.104 250.842 272.08 250.547 272.124 250.259C272.168 249.971 272.278 249.696 272.446 249.458C272.614 249.219 272.835 249.023 273.092 248.885C274.598 248.056 275.426 245.986 276.254 243.953C277.609 240.489 278.965 237.026 279.115 233.562C279.228 230.776 278.325 227.162 275.576 225.318C275.174 225.052 274.891 224.641 274.786 224.17C274.68 223.7 274.761 223.207 275.012 222.795C279.718 214.814 281.449 204.273 279.454 195.991C279.372 195.667 279.381 195.326 279.481 195.007C279.581 194.688 279.767 194.403 280.019 194.183C285.816 188.762 289.242 183.341 290.485 177.619C291.727 171.859 289.958 164.367 284.235 161.205C283.708 160.903 283.369 160.414 283.294 159.812C283.219 159.209 283.407 158.645 283.821 158.231C287.398 154.654 289.318 149.308 288.904 143.925C288.528 139.381 286.475 135.14 283.144 132.028C282.466 131.388 281.487 131.049 280.32 131.049H231.944V131.087Z" fill="black"/>
<path d="M254.646 164.405C244.443 164.405 235.483 163.351 227.163 161.242C226.147 160.979 225.544 159.962 225.808 158.946C226.071 157.929 227.088 157.327 228.104 157.591C236.462 159.736 245.648 160.715 256.039 160.64C266.467 160.339 275.54 158.984 283.784 156.536C284.763 156.235 285.817 156.8 286.119 157.816C286.42 158.833 285.855 159.849 284.839 160.151C276.255 162.711 266.881 164.104 256.076 164.405H254.646ZM255.399 201.901C246.853 201.901 238.344 200.395 230.363 197.421C229.384 197.045 228.895 195.991 229.271 195.012C229.648 194.033 230.74 193.544 231.681 193.92C247.191 199.718 264.923 199.567 280.283 193.468C281.262 193.092 282.354 193.544 282.73 194.522C283.107 195.501 282.655 196.593 281.676 196.969C273.356 200.245 264.396 201.901 255.399 201.901ZM258.335 229.459C250.279 229.459 242.184 228.028 234.806 225.205C234.575 225.119 234.364 224.988 234.184 224.821C234.004 224.653 233.86 224.451 233.758 224.227C233.657 224.003 233.6 223.761 233.593 223.516C233.585 223.27 233.626 223.025 233.714 222.795C234.09 221.816 235.182 221.327 236.161 221.704C248.66 226.485 263.191 227.012 275.991 223.172C276.97 222.871 278.024 223.435 278.326 224.452C278.627 225.431 278.062 226.485 277.046 226.786C271.06 228.593 264.697 229.459 258.335 229.459ZM256.039 254.306C250.881 254.268 244.18 254.005 237.479 252.499C237.013 252.366 236.616 252.061 236.369 251.645C236.122 251.229 236.044 250.735 236.149 250.263C236.255 249.791 236.538 249.377 236.939 249.107C237.34 248.837 237.83 248.73 238.307 248.809C243.276 249.939 248.735 250.466 256.001 250.541C263.229 250.391 268.688 249.788 273.62 248.621C274.636 248.358 275.653 248.998 275.879 250.014C276.104 251.031 275.502 252.047 274.486 252.273C269.29 253.515 263.606 254.155 256.039 254.306Z" fill="black"/>
<path d="M343.041 439.604C325.497 439.604 307.239 432.715 294.551 420.517C292.631 418.673 292.594 415.623 294.401 413.741C296.246 411.821 299.295 411.783 301.177 413.59C315.671 427.52 339.502 433.506 357.949 427.859C368.49 424.621 382.006 416.188 386.674 394.353C390.476 376.659 387.653 371.313 382.043 360.734L381.177 359.077C380.618 357.958 380.519 356.663 380.902 355.472C381.284 354.28 382.118 353.285 383.224 352.7C384.331 352.114 385.622 351.985 386.823 352.34C388.023 352.695 389.037 353.505 389.648 354.597L390.514 356.216C396.349 367.247 400.566 375.228 396.048 396.348C391.643 416.979 379.107 431.435 360.735 437.044C355.126 438.776 349.14 439.604 343.041 439.604ZM168.961 439.604C162.862 439.604 156.876 438.776 151.229 437.044C132.857 431.397 120.321 416.979 115.916 396.348C111.399 375.228 115.615 367.247 121.45 356.254L122.316 354.635C122.927 353.542 123.941 352.732 125.141 352.378C126.342 352.023 127.633 352.152 128.74 352.737C129.846 353.322 130.68 354.317 131.063 355.509C131.445 356.701 131.346 357.995 130.787 359.115L129.921 360.771C124.311 371.35 121.488 376.659 125.29 394.39C129.959 416.263 143.511 424.696 154.015 427.934C172.424 433.543 196.293 427.557 210.749 413.666C212.669 411.821 215.719 411.896 217.526 413.816C219.37 415.736 219.295 418.786 217.375 420.593C204.763 432.715 186.467 439.604 168.961 439.604Z" fill="#FFCD9F"/>
<path d="M343.041 441.487C324.631 441.487 306.034 434.146 293.234 421.873C292.595 421.264 292.082 420.535 291.727 419.728C291.371 418.921 291.179 418.051 291.162 417.169C291.144 416.286 291.302 415.41 291.625 414.589C291.948 413.768 292.431 413.019 293.045 412.386C295.605 409.713 299.822 409.638 302.495 412.198C316.499 425.675 339.577 431.473 357.384 426.014C367.436 422.927 380.349 414.87 384.829 393.901C388.481 376.847 385.921 372.066 380.349 361.562L379.483 359.906C378.655 358.325 378.467 356.518 379.031 354.786C379.558 353.092 380.725 351.699 382.307 350.87C383.85 350.042 385.657 349.854 387.389 350.381C389.121 350.908 390.514 352.075 391.342 353.656L392.208 355.275C398.005 366.231 402.598 374.889 397.93 396.687C393.375 417.995 380.387 432.941 361.337 438.814C355.615 440.621 349.478 441.487 343.041 441.487ZM297.902 414.155C297.149 414.155 296.358 414.456 295.794 415.059C295.266 415.623 294.965 416.376 294.965 417.129C294.965 417.92 295.304 418.635 295.869 419.162C307.991 430.795 325.61 437.722 343.078 437.722C349.102 437.722 354.899 436.894 360.245 435.238C377.939 429.816 390.024 415.849 394.278 395.934C398.645 375.492 394.768 368.15 388.895 357.082L388.029 355.463C387.662 354.782 387.043 354.271 386.305 354.039C385.567 353.807 384.767 353.872 384.076 354.221C383.361 354.598 382.871 355.2 382.645 355.953C382.419 356.706 382.495 357.496 382.834 358.174L383.699 359.831C389.346 370.485 392.434 376.32 388.518 394.729C383.662 417.506 369.507 426.278 358.514 429.666C339.464 435.501 314.843 429.289 299.897 414.946C299.357 414.438 298.643 414.156 297.902 414.155ZM168.961 441.487C162.561 441.487 156.424 440.583 150.702 438.852C131.652 433.016 118.664 418.07 114.109 396.725C109.441 374.927 114.034 366.306 119.831 355.35L120.697 353.732C121.525 352.15 122.918 350.983 124.612 350.456C126.306 349.929 128.114 350.118 129.695 350.946C131.276 351.774 132.443 353.167 132.97 354.861C133.497 356.555 133.346 358.362 132.518 359.943L131.652 361.6C126.081 372.103 123.558 376.885 127.172 393.939C131.652 414.908 144.565 423.002 154.617 426.052C172.424 431.51 195.502 425.675 209.506 412.198C210.786 410.955 212.556 410.315 214.288 410.315C216.095 410.353 217.751 411.106 218.994 412.386C220.236 413.666 220.876 415.36 220.838 417.129C220.801 418.899 220.085 420.593 218.768 421.835C205.968 434.146 187.332 441.487 168.961 441.487ZM126.57 353.92C126.274 353.915 125.981 353.966 125.704 354.071C124.951 354.296 124.349 354.823 123.972 355.501L123.106 357.12C117.234 368.188 113.356 375.492 117.723 395.972C121.977 415.887 134.062 429.854 151.756 435.275C157.102 436.932 162.899 437.76 168.923 437.76C186.391 437.76 204.01 430.833 216.132 419.2C216.697 418.673 216.998 417.92 217.036 417.167C217.074 416.414 216.772 415.661 216.208 415.096C215.948 414.816 215.633 414.592 215.284 414.436C214.934 414.281 214.557 414.198 214.175 414.193C213.422 414.268 212.669 414.456 212.104 415.021C197.196 429.365 172.537 435.576 153.488 429.741C142.457 426.353 128.339 417.543 123.445 394.805C119.53 376.433 122.617 370.56 128.264 359.906L129.13 358.287C129.506 357.609 129.582 356.819 129.318 356.066C129.055 355.313 128.565 354.711 127.888 354.334C127.507 354.052 127.043 353.906 126.57 353.92Z" fill="black"/>
<path opacity="0.2" d="M224.906 145.167C226.261 150.475 231.193 148.103 246.892 148.103C262.591 148.066 283.071 146.033 281.715 140.725C280.36 135.454 262.553 130.823 246.892 130.861C231.231 130.936 223.551 139.859 224.906 145.167ZM224.906 180.329C226.261 185.637 231.193 183.266 246.892 183.266C262.591 183.228 283.071 181.195 281.715 175.887C280.36 170.616 262.553 165.986 246.892 166.023C231.231 166.136 223.551 175.021 224.906 180.329ZM233.113 210.748C234.054 213.873 237.555 212.48 248.699 212.48C259.842 212.442 274.374 211.275 273.433 208.15C272.492 205.063 259.842 202.353 248.699 202.353C237.631 202.39 232.172 207.623 233.113 210.748ZM233.113 238.005C234.054 241.129 237.555 239.736 248.699 239.736C259.842 239.699 274.374 238.532 273.433 235.407C272.492 232.32 259.842 229.609 248.699 229.609C237.631 229.685 232.172 234.88 233.113 238.005ZM238.609 261.609C239.438 264.32 242.449 263.115 252.087 263.115C261.725 263.077 274.299 262.061 273.471 259.388C272.642 256.715 261.725 254.381 252.087 254.381C242.487 254.419 237.781 258.936 238.609 261.609ZM242.035 282.165C242.713 284.31 245.122 283.369 252.878 283.369C260.633 283.332 270.722 282.541 270.045 280.357C269.367 278.212 260.595 276.329 252.878 276.329C245.16 276.367 241.358 279.981 242.035 282.165ZM137.226 250.767C136.398 238.23 139.786 224.828 148.746 216.282C154.016 211.237 161.094 207.849 164.332 201.261C167.795 194.183 165.725 185.637 162.863 178.259C160.002 170.88 156.351 163.426 156.915 155.52C157.631 144.828 165.875 135.906 166.929 125.214C167.983 114.522 161.32 104.169 152.473 98.3716C138.732 89.4492 120.285 90.1269 105.791 97.8069C91.2964 105.487 80.6046 119.303 73.8282 134.475C67.0517 149.647 63.8894 166.249 61.5552 182.776C60.3505 191.36 59.3341 200.207 61.367 208.64C62.9482 215.19 66.2988 221.139 69.6117 226.974L89.0376 261.308C92.4635 267.332 95.8894 273.43 100.181 278.852C104.285 284.047 109.103 288.602 113.922 293.12C123.974 302.569 134.026 312.056 144.115 321.506C147.579 324.781 151.193 328.132 155.673 329.713C160.115 331.294 165.687 330.654 168.661 326.889C172.087 322.56 170.732 315.859 167.419 311.454C164.106 307.049 159.249 304.188 154.958 300.762C147.466 294.776 147.579 288.489 144.567 280.169C141.179 270.569 137.866 261.045 137.226 250.767Z" fill="white"/>
<path opacity="0.2" d="M126.384 183.153C140.389 151.303 159.25 125.365 146.827 114.748C134.365 104.169 100.747 115.765 86.6667 147.576C72.6243 179.426 83.6173 219.52 96.0031 230.061C108.389 240.677 112.342 215.002 126.384 183.153ZM374.253 250.767C375.081 238.23 371.693 224.828 362.733 216.282C357.462 211.237 350.384 207.849 347.147 201.261C343.683 194.183 345.754 185.637 348.615 178.259C351.476 170.88 355.128 163.426 354.563 155.52C353.848 144.828 345.603 135.906 344.549 125.214C343.495 114.522 350.158 104.169 359.005 98.3716C372.747 89.4492 391.194 90.1269 405.688 97.8069C420.182 105.487 430.874 119.303 437.65 134.475C444.427 149.647 447.589 166.249 449.923 182.776C451.128 191.36 452.144 200.207 450.111 208.64C448.53 215.19 445.18 221.139 441.867 226.974L422.441 261.308C419.015 267.332 415.589 273.43 411.297 278.852C407.194 284.047 402.375 288.602 397.556 293.12C387.504 302.569 377.453 312.056 367.363 321.506C363.9 324.781 360.285 328.132 355.805 329.713C351.325 331.294 345.791 330.654 342.817 326.889C339.391 322.56 340.747 315.859 344.06 311.454C347.373 307.049 352.229 304.188 356.521 300.762C364.013 294.776 363.9 288.489 366.911 280.169C370.262 270.569 373.575 261.045 374.253 250.767Z" fill="white"/>
<path opacity="0.2" d="M385.095 183.153C371.09 151.304 352.229 125.365 364.653 114.748C377.114 104.169 410.733 115.765 424.813 147.576C438.855 179.426 427.862 219.52 415.476 230.061C403.053 240.678 399.1 215.002 385.095 183.153Z" fill="white"/>
<path d="M256.002 276.329C249.978 276.178 245.498 275.538 241.357 274.296C240.879 274.144 240.481 273.809 240.249 273.365C240.016 272.921 239.968 272.404 240.115 271.924C240.416 270.946 241.47 270.343 242.486 270.682C246.251 271.849 250.43 272.414 256.039 272.564C261.573 272.489 265.752 271.962 269.517 270.833C270.496 270.531 271.55 271.096 271.851 272.113C272.152 273.091 271.587 274.146 270.571 274.447C266.505 275.689 261.987 276.254 256.002 276.329Z" fill="black"/>
</svg>
