<svg width="512" height="512" viewBox="0 0 512 512" fill="none" xmlns="http://www.w3.org/2000/svg">
<g clip-path="url(#clip0_798_844)">
<path d="M224 362.667H288V501.333H224V362.667Z" fill="#DAD7E5"/>
<path d="M287.999 362.667C287.999 486.613 286.932 480 287.999 480C276.683 480 265.83 475.505 257.829 467.503C249.827 459.502 245.332 448.649 245.332 437.333V362.667H287.999Z" fill="#EDEBF2"/>
<path d="M224 10.6665H288V192H224V10.6665Z" fill="#DAD7E5"/>
<path d="M287.999 10.6665C287.999 167.893 286.932 160 287.999 160C276.683 160 265.83 155.505 257.829 147.503C249.827 139.502 245.332 128.649 245.332 117.333V10.6665H287.999Z" fill="#EDEBF2"/>
<path d="M298.668 480H213.335C210.506 480 207.793 478.876 205.792 476.876C203.792 474.875 202.668 472.162 202.668 469.333C202.668 466.504 203.792 463.791 205.792 461.791C207.793 459.79 210.506 458.667 213.335 458.667H298.668C301.497 458.667 304.21 459.79 306.21 461.791C308.211 463.791 309.335 466.504 309.335 469.333C309.335 472.162 308.211 474.875 306.21 476.876C304.21 478.876 301.497 480 298.668 480ZM298.668 437.333H213.335C210.506 437.333 207.793 436.21 205.792 434.209C203.792 432.209 202.668 429.496 202.668 426.667C202.668 423.838 203.792 421.125 205.792 419.124C207.793 417.124 210.506 416 213.335 416H298.668C301.497 416 304.21 417.124 306.21 419.124C308.211 421.125 309.335 423.838 309.335 426.667C309.335 429.496 308.211 432.209 306.21 434.209C304.21 436.21 301.497 437.333 298.668 437.333ZM298.668 138.667H213.335C210.506 138.667 207.793 137.543 205.792 135.542C203.792 133.542 202.668 130.829 202.668 128C202.668 125.171 203.792 122.458 205.792 120.458C207.793 118.457 210.506 117.333 213.335 117.333H298.668C301.497 117.333 304.21 118.457 306.21 120.458C308.211 122.458 309.335 125.171 309.335 128C309.335 130.829 308.211 133.542 306.21 135.542C304.21 137.543 301.497 138.667 298.668 138.667ZM298.668 96H213.335C210.506 96 207.793 94.8762 205.792 92.8758C203.792 90.8754 202.668 88.1623 202.668 85.3333C202.668 82.5044 203.792 79.7913 205.792 77.7909C207.793 75.7905 210.506 74.6667 213.335 74.6667H298.668C301.497 74.6667 304.21 75.7905 306.21 77.7909C308.211 79.7913 309.335 82.5044 309.335 85.3333C309.335 88.1623 308.211 90.8754 306.21 92.8758C304.21 94.8762 301.497 96 298.668 96ZM298.668 53.3333H213.335C210.506 53.3333 207.793 52.2095 205.792 50.2091C203.792 48.2087 202.668 45.4956 202.668 42.6667C202.668 39.8377 203.792 37.1246 205.792 35.1242C207.793 33.1238 210.506 32 213.335 32H298.668C301.497 32 304.21 33.1238 306.21 35.1242C308.211 37.1246 309.335 39.8377 309.335 42.6667C309.335 45.4956 308.211 48.2087 306.21 50.2091C304.21 52.2095 301.497 53.3333 298.668 53.3333Z" fill="#C6C3D8"/>
<path d="M501.335 405.333V416C501.335 421.658 499.087 427.084 495.086 431.085C491.086 435.086 485.659 437.333 480.001 437.333C459.948 437.333 451.095 438.507 439.681 432.64C383.575 403.627 366.828 428.587 332.375 400.64C310.544 382.77 283.145 373.109 254.935 373.333C192.001 373.333 181.335 416 138.668 416C90.8813 416 74.668 437.333 53.3346 437.333H32.0013C26.3434 437.333 20.9171 435.086 16.9164 431.085C12.9156 427.084 10.668 421.658 10.668 416V405.333C11.7316 405.448 12.8044 405.448 13.868 405.333C24.5346 406.72 61.868 407.04 106.668 362.667C147.045 323.941 200.112 301.198 256.001 298.667C311.89 301.198 364.958 323.941 405.335 362.667C450.135 407.467 487.361 407.147 498.135 405.333C499.198 405.448 500.271 405.448 501.335 405.333Z" fill="#C4455E"/>
<path d="M498.134 405.333C490.347 418.027 478.614 416 459.201 416C439.787 416 420.054 394.667 373.867 394.667C330.027 394.667 322.241 352 257.601 352C229.35 351.866 201.947 361.642 180.161 379.627C146.774 406.4 126.827 383.36 72.8539 411.627C60.8005 417.173 53.3339 416 32.0005 416C28.3139 415.94 24.7056 414.927 21.5276 413.057C18.3495 411.188 15.7103 408.527 13.8672 405.333C24.5339 406.72 61.8672 407.04 106.667 362.667C147.044 323.941 200.112 301.198 256.001 298.667C311.889 301.198 364.957 323.941 405.334 362.667C450.134 407.467 487.361 407.147 498.134 405.333Z" fill="#DB5669"/>
<path d="M501.335 405.333C501.335 405.333 458.668 416 405.335 362.667C364.958 323.941 311.89 301.198 256.001 298.667C200.112 301.198 147.045 323.941 106.668 362.667C53.3346 416 10.668 405.333 10.668 405.333V361.387C10.668 315.84 24.5346 252.8 61.3346 222.72C86.508 202.667 101.335 203.307 190.081 184.533C271.575 167.467 324.055 184.533 406.828 202.453C422.841 205.86 437.82 213.01 450.538 223.318C463.256 233.626 473.353 246.799 480.001 261.76C504.108 315.733 501.335 353.92 501.335 405.333Z" fill="#DB5669"/>
<path d="M501.333 405.333C501.333 405.333 458.667 416 405.333 362.667C365.033 323.825 311.92 301.062 256 298.667C200.111 301.198 147.044 323.941 106.667 362.667C93.8468 375.907 78.9255 386.936 62.5067 395.307C59.2514 396.857 55.6561 397.557 52.0569 397.342C48.4576 397.126 44.9717 396.001 41.9249 394.073C38.8781 392.145 36.3697 389.476 34.6341 386.315C32.8984 383.155 31.9922 379.606 32.0001 376C32.0001 322.667 41.3867 256.533 82.6667 223.253C107.84 202.987 122.667 203.307 211.413 184.533C281.067 169.92 310.08 182.08 406.827 202.453C422.84 205.86 437.818 213.01 450.537 223.318C463.255 233.626 473.352 246.8 480 261.76C504.107 315.733 501.333 353.92 501.333 405.333Z" fill="#F26674"/>
<path d="M489.92 257.387C482.541 240.893 471.373 226.374 457.323 215.012C443.273 203.649 426.739 195.765 409.067 192C328.533 175.04 318.933 172.48 298.667 169.92V138.667C301.496 138.667 304.209 137.543 306.209 135.542C308.209 133.542 309.333 130.829 309.333 128C309.333 125.171 308.209 122.458 306.209 120.458C304.209 118.457 301.496 117.333 298.667 117.333V96C301.496 96 304.209 94.8762 306.209 92.8758C308.209 90.8754 309.333 88.1623 309.333 85.3333C309.333 82.5044 308.209 79.7913 306.209 77.7909C304.209 75.7905 301.496 74.6667 298.667 74.6667V53.3333C301.496 53.3333 304.209 52.2095 306.209 50.2091C308.209 48.2088 309.333 45.4956 309.333 42.6667C309.333 39.8377 308.209 37.1246 306.209 35.1242C304.209 33.1238 301.496 32 298.667 32V10.6667C298.667 7.83769 297.543 5.12458 295.542 3.12419C293.542 1.12381 290.829 0 288 0C285.171 0 282.458 1.12381 280.457 3.12419C278.457 5.12458 277.333 7.83769 277.333 10.6667V32H234.667V10.6667C234.667 7.83769 233.543 5.12458 231.542 3.12419C229.542 1.12381 226.829 0 224 0C221.171 0 218.458 1.12381 216.457 3.12419C214.457 5.12458 213.333 7.83769 213.333 10.6667V32C210.504 32 207.791 33.1238 205.791 35.1242C203.79 37.1246 202.667 39.8377 202.667 42.6667C202.667 45.4956 203.79 48.2088 205.791 50.2091C207.791 52.2095 210.504 53.3333 213.333 53.3333V74.6667C210.504 74.6667 207.791 75.7905 205.791 77.7909C203.79 79.7913 202.667 82.5044 202.667 85.3333C202.667 88.1623 203.79 90.8754 205.791 92.8758C207.791 94.8762 210.504 96 213.333 96V117.333C210.504 117.333 207.791 118.457 205.791 120.458C203.79 122.458 202.667 125.171 202.667 128C202.667 130.829 203.79 133.542 205.791 135.542C207.791 137.543 210.504 138.667 213.333 138.667V169.92C194.667 172.267 195.52 172.48 102.933 192C85.2302 195.727 68.6668 203.61 54.6089 214.997C40.5511 226.384 29.4016 240.95 22.0799 257.493C-3.62682 315.413 -0.000147063 356.373 -0.000147063 416C-0.000147063 424.487 3.37127 432.626 9.37244 438.627C15.3736 444.629 23.5129 448 31.9999 448H53.3332C79.5732 448 92.7999 426.667 139.2 426.667C176.107 426.667 183.36 406.293 213.867 392.96V416C211.038 416 208.324 417.124 206.324 419.124C204.324 421.125 203.2 423.838 203.2 426.667C203.2 429.496 204.324 432.209 206.324 434.209C208.324 436.21 211.038 437.333 213.867 437.333V458.667C211.038 458.667 208.324 459.79 206.324 461.791C204.324 463.791 203.2 466.504 203.2 469.333C203.2 472.162 204.324 474.875 206.324 476.876C208.324 478.876 211.038 480 213.867 480V501.333C213.867 504.162 214.99 506.875 216.991 508.876C218.991 510.876 221.704 512 224.533 512C227.362 512 230.075 510.876 232.076 508.876C234.076 506.875 235.2 504.162 235.2 501.333V480H277.867V501.333C277.867 504.162 278.99 506.875 280.991 508.876C282.991 510.876 285.704 512 288.533 512C291.362 512 294.075 510.876 296.076 508.876C298.076 506.875 299.2 504.162 299.2 501.333V480C302.029 480 304.742 478.876 306.742 476.876C308.743 474.875 309.867 472.162 309.867 469.333C309.867 466.504 308.743 463.791 306.742 461.791C304.742 459.79 302.029 458.667 299.2 458.667V437.333C302.029 437.333 304.742 436.21 306.742 434.209C308.743 432.209 309.867 429.496 309.867 426.667C309.867 423.838 308.743 421.125 306.742 419.124C304.742 417.124 302.029 416 299.2 416V392.96C308.884 397.171 317.96 402.66 326.187 409.28C363.2 438.933 383.36 415.253 435.413 442.133C448.96 449.387 458.667 448 480 448C488.487 448 496.626 444.629 502.627 438.627C508.628 432.626 512 424.487 512 416C512 355.52 515.627 315.52 489.92 257.387ZM234.667 53.3333H277.333V74.6667H234.667V53.3333ZM234.667 96H277.333V117.333H234.667V96ZM277.333 138.667V167.787C263.127 166.827 248.873 166.827 234.667 167.787V138.667H277.333ZM41.4932 266.667C47.4533 253.179 56.5418 241.306 68.0056 232.031C79.4694 222.756 92.9784 216.346 107.413 213.333C264.107 180.267 246.08 179.84 404.587 213.333C418.998 216.403 432.481 222.834 443.936 232.102C455.392 241.37 464.496 253.213 470.507 266.667C493.333 317.867 490.667 355.627 490.667 395.52C477.12 395.52 448 390.293 412.907 355.093C370.601 314.245 314.76 290.367 256 288C197.24 290.367 141.399 314.245 99.0932 355.093C63.8932 390.293 35.0932 395.413 21.3332 395.627C21.3332 349.44 19.4132 315.947 41.4932 266.667ZM277.333 458.667H234.667V437.333H277.333V458.667ZM277.333 416H234.667V386.133C248.744 383.26 263.256 383.26 277.333 386.133V416ZM480 426.667C461.12 426.667 453.653 427.733 444.587 423.147C388.48 394.133 369.067 416.747 338.987 392.64C315.256 373.268 285.567 362.681 254.933 362.667C243.044 362.697 231.222 364.458 219.84 367.893C174.72 381.333 170.667 405.333 138.667 405.333C89.0665 405.333 71.1465 426.667 53.3332 426.667H31.9999C29.3127 426.675 26.7213 425.669 24.7437 423.85C22.7662 422.031 21.5481 419.532 21.3332 416.853C39.5732 416.853 74.6665 409.813 114.027 370.24C152.537 333.601 202.911 311.991 256 309.333C309.014 312.041 359.304 333.648 397.76 370.24C437.44 409.813 472.427 416.533 490.453 416.853C490.242 419.495 489.054 421.964 487.121 423.778C485.189 425.592 482.65 426.622 480 426.667Z" fill="black"/>
</g>
<defs>
<clipPath id="clip0_798_844">
<rect width="512" height="512" fill="white"/>
</clipPath>
</defs>
</svg>
