<svg width="512" height="512" viewBox="0 0 512 512" fill="none" xmlns="http://www.w3.org/2000/svg">
<g clip-path="url(#clip0_798_858)">
<path d="M503.469 366.933C503.469 440.491 498.519 481.024 496.215 496.299C495.89 498.303 494.861 500.126 493.313 501.44C491.764 502.754 489.798 503.472 487.767 503.467H288.121C286.249 503.481 284.425 502.872 282.936 501.737C281.447 500.602 280.377 499.004 279.895 497.195C275.355 480.162 262.897 430.592 256.01 375.467C249.115 430.6 236.665 480.162 232.126 497.195C231.643 499.004 230.574 500.602 229.085 501.737C227.596 502.872 225.772 503.481 223.899 503.467H24.2365C22.2057 503.472 20.2395 502.754 18.691 501.44C17.1426 500.126 16.1134 498.303 15.7885 496.299C13.4845 481.024 8.53516 440.491 8.53516 366.933C8.53516 218.385 76.5544 136.832 84.3538 16.5375C84.6354 12.1599 88.373 8.5332 92.7592 8.5332H419.245C423.631 8.5332 427.368 12.1513 427.65 16.5375C435.449 136.832 503.469 218.385 503.469 366.933Z" fill="#E9C4AA"/>
<path d="M495.191 278.613C439.639 263.509 306.349 274.176 256.002 375.467C205.655 274.176 72.3645 263.509 16.8125 278.613C23.1272 245.163 32.3432 214.955 41.9858 185.771C65.1965 197.12 142.765 230.4 256.002 230.4C369.239 230.4 446.807 197.12 470.018 185.771C479.661 214.955 488.877 245.163 495.191 278.613Z" fill="#DD467C"/>
<path d="M436.122 15.3344C435.584 6.7328 428.169 0 419.243 0H92.7573C83.8315 0 76.416 6.7328 75.8784 15.3429C75.3302 24.0888 74.4478 32.8106 73.2331 41.4891C72.9265 43.7286 73.5209 45.9983 74.886 47.7999C76.2511 49.6016 78.2753 50.7881 80.5142 51.0989C82.7531 51.4097 85.0239 50.8195 86.8282 49.4577C88.6324 48.096 89.8226 46.0741 90.1376 43.8357C91.3961 34.9515 92.273 26.0175 92.7659 17.0581L419.098 16.4011C422.571 71.6032 438.17 117.862 454.69 166.835C456.303 171.614 457.907 176.435 459.52 181.257C431.667 193.903 358.485 221.867 256.009 221.867C153.532 221.867 80.3584 193.903 52.5056 181.257C54.1184 176.435 55.7227 171.614 57.3355 166.827C67.3707 137.088 76.8341 108.996 83.7291 78.6859C84.1396 76.5129 83.6914 74.2654 82.4788 72.4162C81.2661 70.5669 79.3836 69.26 77.2271 68.7703C75.0706 68.2807 72.8082 68.6464 70.9159 69.7907C69.0235 70.9349 67.6487 72.7684 67.0805 74.9056C60.3904 104.371 51.0549 132.053 41.1648 161.374C20.9152 221.363 0 283.401 0 366.933C0 438.161 4.59947 479.351 7.35573 497.673C8.00038 501.68 10.0551 505.326 13.1498 507.953C16.2444 510.58 20.1755 512.015 24.2347 512H230.4C234.206 512 237.559 509.474 238.609 505.805C238.737 505.37 247.782 473.446 256 429.978C264.218 473.446 273.263 505.37 273.391 505.805C274.441 509.474 277.794 512 281.6 512H487.765C496.179 512 503.279 505.975 504.653 497.57C507.392 479.351 511.991 438.161 511.991 366.933C511.991 283.401 491.076 221.372 470.844 161.391C454.699 113.51 439.45 68.2923 436.122 15.3344ZM256 238.933C359.586 238.933 434.569 211.081 464.845 197.572C472.055 219.861 478.771 242.918 484.079 267.554C422.204 256.836 308.736 272.41 256 357.914C203.264 272.418 89.8133 256.819 27.9211 267.554C33.2203 242.927 39.9445 219.861 47.1552 197.581C77.4315 211.089 152.414 238.933 256 238.933ZM223.881 494.933L24.2261 495.036C21.5552 477.286 17.0667 437.043 17.0667 366.933C17.0667 337.451 19.84 310.69 24.2688 285.679C50.56 279.842 92.7147 279.356 134.724 291.234C171.179 301.542 219.904 324.787 246.946 376.67C243.413 389.743 223.266 444.177 133.111 444.177C71.1851 444.177 50.8587 411.196 50.0651 409.847C49.518 408.855 48.7787 407.982 47.8903 407.278C47.002 406.575 45.9825 406.055 44.8912 405.75C43.7999 405.444 42.6587 405.359 41.5342 405.5C40.4098 405.64 39.3246 406.003 38.3419 406.568C37.3593 407.132 36.4989 407.887 35.811 408.787C35.1231 409.688 34.6215 410.716 34.3354 411.813C34.0492 412.909 33.9844 414.052 34.1445 415.174C34.3047 416.295 34.6867 417.374 35.2683 418.347C36.2752 420.096 60.7403 461.244 133.12 461.244C189.133 461.244 221.619 441.464 240.299 421.069C235.765 445.892 230.292 470.534 223.889 494.942L223.881 494.933ZM487.765 494.933H288.119C281.713 470.529 276.24 445.89 271.71 421.069C290.389 441.464 322.876 461.244 378.889 461.244C451.26 461.244 475.733 420.096 476.74 418.347C477.856 416.396 478.156 414.083 477.574 411.913C476.992 409.742 475.576 407.889 473.634 406.758C471.683 405.63 469.366 405.316 467.185 405.883C465.003 406.45 463.133 407.852 461.978 409.788C461.141 411.196 440.823 444.177 378.897 444.177C288.7 444.177 268.578 389.692 265.054 376.678C292.096 324.787 340.83 301.542 377.284 291.234C419.285 279.347 461.449 279.834 487.74 285.679C492.169 310.69 494.942 337.451 494.942 366.942C494.942 437.052 490.462 477.295 487.774 494.942L487.765 494.933Z" fill="#161616"/>
</g>
<defs>
<clipPath id="clip0_798_858">
<rect width="512" height="512" fill="white"/>
</clipPath>
</defs>
</svg>
