<svg width="512" height="512" viewBox="0 0 512 512" fill="none" xmlns="http://www.w3.org/2000/svg">
<g clip-path="url(#clip0_800_890)">
<path d="M400.847 268.548L342.476 296.198C339.767 297.481 339.147 301.06 341.267 303.18L351.057 312.97C351.572 313.486 352.209 313.863 352.909 314.067C353.609 314.271 354.349 314.295 355.061 314.136L461.974 290.4C466.85 289.317 468.609 283.278 465.078 279.746L449.364 264.032C446.269 260.937 447.174 255.711 451.13 253.837L500.881 230.27C504.836 228.396 505.742 223.17 502.647 220.075L475.752 193.18C474.829 192.257 473.643 191.642 472.357 191.419C471.07 191.197 469.747 191.377 468.567 191.936L380.8 233.512C376.845 235.386 375.939 240.612 379.034 243.707L401.295 265.968C401.476 266.15 401.611 266.373 401.689 266.617C401.766 266.862 401.784 267.122 401.74 267.375C401.696 267.627 401.592 267.866 401.436 268.07C401.281 268.275 401.079 268.439 400.847 268.548Z" fill="#DD636E"/>
<path d="M111.154 268.548L169.525 296.198C172.234 297.481 172.854 301.06 170.734 303.18L160.944 312.97C160.429 313.486 159.791 313.863 159.091 314.067C158.392 314.271 157.651 314.295 156.94 314.136L50.0279 290.401C45.1519 289.318 43.3929 283.279 46.9239 279.747L62.6379 264.033C65.7329 260.938 64.8269 255.712 60.8719 253.838L11.1209 230.271C7.1659 228.397 6.2599 223.171 9.3549 220.076L36.2499 193.181C37.1729 192.258 38.3589 191.643 39.6452 191.42C40.9315 191.198 42.2552 191.378 43.4349 191.937L131.202 233.513C135.157 235.387 136.063 240.613 132.968 243.708L110.707 265.969C110.525 266.151 110.39 266.373 110.312 266.618C110.235 266.862 110.217 267.122 110.261 267.375C110.305 267.628 110.409 267.866 110.564 268.071C110.72 268.275 110.922 268.439 111.154 268.548Z" fill="#E28086"/>
<path d="M400.847 397.191L342.476 369.541C339.767 368.258 339.147 364.679 341.267 362.559L351.057 352.769C351.572 352.254 352.209 351.877 352.909 351.673C353.609 351.469 354.349 351.445 355.061 351.603L461.974 375.339C466.85 376.422 468.609 382.461 465.078 385.993L449.364 401.707C446.269 404.802 447.174 410.028 451.13 411.902L500.881 435.469C504.836 437.343 505.742 442.569 502.647 445.664L475.752 472.559C474.829 473.482 473.643 474.097 472.357 474.32C471.07 474.543 469.747 474.362 468.567 473.803L380.8 432.227C376.845 430.353 375.939 425.127 379.034 422.032L401.295 399.771C401.476 399.59 401.611 399.367 401.689 399.123C401.766 398.878 401.784 398.618 401.74 398.365C401.696 398.112 401.592 397.874 401.436 397.669C401.281 397.465 401.079 397.301 400.847 397.191Z" fill="#DD636E"/>
<path d="M111.154 397.191L169.525 369.541C172.234 368.258 172.854 364.679 170.734 362.559L160.944 352.769C160.429 352.254 159.791 351.877 159.091 351.673C158.392 351.469 157.651 351.445 156.94 351.603L50.0279 375.339C45.1519 376.422 43.3929 382.461 46.9239 385.993L62.6379 401.707C65.7329 404.802 64.8269 410.028 60.8719 411.902L11.1209 435.469C7.1659 437.343 6.2599 442.569 9.3549 445.664L36.2499 472.559C37.1731 473.482 38.359 474.097 39.6453 474.32C40.9315 474.543 42.2552 474.362 43.4349 473.803L131.202 432.227C135.157 430.353 136.063 425.127 132.968 422.032L110.707 399.771C110.525 399.59 110.39 399.367 110.313 399.123C110.235 398.878 110.218 398.618 110.262 398.366C110.305 398.113 110.409 397.874 110.565 397.67C110.72 397.465 110.922 397.301 111.154 397.191Z" fill="#E28086"/>
<path d="M380.799 432.228C376.845 430.354 375.938 425.128 379.033 422.033L401.294 399.772C401.476 399.591 401.611 399.368 401.688 399.124C401.766 398.879 401.784 398.619 401.74 398.367C401.696 398.114 401.592 397.875 401.437 397.671C401.281 397.466 401.079 397.302 400.847 397.192L342.477 369.543C339.768 368.26 339.148 364.681 341.268 362.561L351.058 352.771C351.573 352.255 352.21 351.878 352.91 351.674C353.61 351.471 354.35 351.447 355.062 351.605L438.863 370.21V320.258C438.863 311.992 438.956 303.729 439.14 295.47L355.062 314.137C354.35 314.295 353.61 314.271 352.91 314.067C352.21 313.863 351.573 313.486 351.058 312.971L341.268 303.181C339.149 301.062 339.769 297.483 342.477 296.2L400.847 268.55C401.079 268.44 401.281 268.276 401.437 268.072C401.592 267.867 401.696 267.629 401.74 267.376C401.784 267.123 401.766 266.863 401.688 266.619C401.611 266.374 401.476 266.151 401.294 265.97L379.033 243.709C375.938 240.614 376.844 235.388 380.799 233.514L445.057 203.075C451.162 145.474 461.759 88.4373 476.75 32.4868L482.035 12.7619C482.746 10.1079 480.746 7.50193 477.998 7.50293H34.0058C31.2578 7.50193 29.2578 10.1079 29.9688 12.7619L35.1778 32.2018C50.1938 88.243 60.8091 145.372 66.9267 203.066L131.204 233.515C135.159 235.389 136.065 240.615 132.97 243.71L110.71 265.971C110.528 266.152 110.393 266.375 110.315 266.62C110.238 266.864 110.22 267.124 110.264 267.377C110.308 267.63 110.412 267.868 110.567 268.073C110.723 268.277 110.925 268.441 111.157 268.551L169.527 296.201C172.236 297.484 172.856 301.063 170.736 303.182L160.946 312.972C160.431 313.487 159.794 313.865 159.094 314.068C158.394 314.272 157.654 314.296 156.942 314.138L72.8567 295.469C73.0447 303.826 73.1397 312.188 73.1397 320.553V370.21L156.941 351.605C157.653 351.447 158.393 351.471 159.093 351.675C159.793 351.878 160.43 352.255 160.945 352.771L170.735 362.561C172.854 364.68 172.234 368.259 169.526 369.543L111.156 397.192C110.924 397.302 110.722 397.466 110.566 397.671C110.411 397.875 110.307 398.114 110.263 398.367C110.219 398.619 110.237 398.879 110.314 399.124C110.392 399.368 110.527 399.591 110.709 399.772L132.969 422.033C136.064 425.128 135.158 430.354 131.203 432.228L113.078 440.814C152.101 461.878 201.829 474.499 255.986 474.499C310.15 474.499 359.883 461.875 398.908 440.807L380.799 432.228Z" fill="#FFF1DD"/>
<path d="M477.998 7.5H438.085L436.75 12.484C415.041 93.5047 405.575 164.368 401.579 223.668L445.057 203.072C451.162 145.471 461.758 88.4344 476.75 32.4839L482.035 12.759C482.747 10.105 480.746 7.499 477.998 7.5ZM381.72 357.522L438.864 370.209V320.257C438.864 311.991 438.957 303.728 439.141 295.469L397.58 304.696C395.168 323.043 389.812 340.88 381.72 357.522ZM400.848 397.191L367.603 381.444C338.903 422.189 292.967 449.969 239.925 453.669C232.058 454.218 224.072 454.499 215.987 454.499C180.272 454.499 146.484 449.01 116.421 439.231L113.078 440.815C152.102 461.879 201.83 474.5 255.987 474.5C310.15 474.5 359.883 461.876 398.909 440.808L380.799 432.229C376.844 430.355 375.938 425.129 379.033 422.034L401.294 399.773C401.476 399.592 401.611 399.369 401.689 399.125C401.766 398.88 401.784 398.62 401.74 398.367C401.697 398.114 401.593 397.875 401.437 397.67C401.282 397.466 401.08 397.302 400.848 397.191Z" fill="#FFE4C1"/>
<path d="M438.861 459.734L398.906 440.807C359.881 461.875 310.147 474.499 255.984 474.499C201.827 474.499 152.099 461.878 113.076 440.814L73.1367 459.733V503.193C73.1367 503.914 73.7207 504.498 74.4417 504.498H437.556C438.277 504.498 438.861 503.914 438.861 503.193V459.734Z" fill="#5C90B9"/>
<path d="M125.006 189.914C125.261 190.866 125.7 191.758 126.3 192.539C126.9 193.32 127.647 193.976 128.5 194.468C129.353 194.961 130.295 195.28 131.271 195.409C132.248 195.537 133.24 195.472 134.192 195.217L213.227 174.04C232.164 168.966 247.446 156.111 256 139.485C264.554 156.111 279.836 168.965 298.773 174.04L377.808 195.217C379.729 195.732 381.776 195.463 383.499 194.468C385.221 193.473 386.478 191.835 386.993 189.914C387.508 187.992 387.238 185.945 386.244 184.223C385.249 182.5 383.611 181.243 381.69 180.728L302.655 159.551C279.601 153.373 263.499 132.391 263.499 108.524V37.5009C263.499 33.358 260.141 30.001 255.999 30.001C251.857 30.001 248.499 33.358 248.499 37.5009V108.524C248.499 132.391 232.397 153.374 209.344 159.551L130.31 180.728C129.358 180.983 128.466 181.423 127.685 182.023C126.903 182.622 126.247 183.37 125.755 184.223C125.262 185.076 124.943 186.017 124.814 186.994C124.686 187.971 124.751 188.963 125.006 189.914Z" fill="black"/>
<path d="M296.703 134.024C300.845 134.024 304.203 130.667 304.203 126.524C304.203 122.382 300.845 119.024 296.703 119.024C292.561 119.024 289.203 122.382 289.203 126.524C289.203 130.667 292.561 134.024 296.703 134.024Z" fill="black"/>
<path d="M215.297 134.024C219.439 134.024 222.797 130.667 222.797 126.524C222.797 122.382 219.439 119.024 215.297 119.024C211.155 119.024 207.797 122.382 207.797 126.524C207.797 130.667 211.155 134.024 215.297 134.024Z" fill="black"/>
<path d="M248.5 310.497V344.24C248.5 348.383 251.858 351.74 256 351.74C260.142 351.74 263.5 348.383 263.5 344.24V310.497C263.5 306.354 260.142 302.997 256 302.997C251.858 302.997 248.5 306.354 248.5 310.497Z" fill="black"/>
<path d="M504.09 428.69L455.841 405.836L470.381 391.296C472.133 389.544 473.382 387.353 473.998 384.952C474.613 382.551 474.572 380.029 473.879 377.65C473.186 375.27 471.866 373.121 470.057 371.426C468.249 369.732 466.018 368.555 463.599 368.018L446.364 364.191C446.403 323.356 446.265 316.807 446.524 301.513L463.599 297.722C466.018 297.185 468.249 296.008 470.058 294.313C471.867 292.619 473.187 290.469 473.88 288.09C474.573 285.71 474.614 283.188 473.999 280.787C473.383 278.386 472.133 276.195 470.381 274.443L455.842 259.904L504.09 237.049C508.149 235.127 511.029 231.338 511.796 226.913C512.563 222.488 511.125 217.949 507.949 214.771L481.055 187.877C479.036 185.864 476.445 184.522 473.635 184.035C470.826 183.549 467.934 183.94 465.356 185.157L454.011 190.531C460.255 137.845 470.276 85.6754 483.995 34.4249L489.279 14.6999C491.272 7.26097 485.659 0 478.002 0H34.0034C26.3244 0 20.7335 7.27497 22.7234 14.7009L27.9314 34.1399C32.6497 51.756 36.9336 69.4857 40.7794 87.3127C41.1987 89.2571 42.3732 90.9553 44.0446 92.0337C45.7161 93.1121 47.7474 93.4824 49.6918 93.0631C51.6363 92.6438 53.3345 91.4693 54.4129 89.7979C55.4913 88.1265 55.8616 86.0951 55.4423 84.1507C51.5442 66.0821 47.2026 48.1121 42.4214 30.2569L38.3324 14.9999H473.67L469.505 30.5429C454.791 85.5152 444.276 141.526 438.051 198.092L429.487 202.149C427.699 203.007 426.324 204.537 425.662 206.406C425 208.275 425.104 210.33 425.953 212.122C426.802 213.913 428.326 215.296 430.191 215.968C432.056 216.639 434.112 216.545 435.908 215.705L471.03 199.067L496.167 224.204L447.918 247.059C445.916 248.009 444.171 249.425 442.83 251.189C441.489 252.953 440.591 255.013 440.211 257.196C439.834 259.38 439.987 261.622 440.656 263.735C441.326 265.847 442.493 267.768 444.059 269.336L458.264 283.541L355.13 306.438L349.745 301.053L404.054 275.326C405.372 274.701 406.521 273.769 407.404 272.609C408.287 271.448 408.878 270.092 409.128 268.655C409.376 267.217 409.276 265.741 408.836 264.351C408.395 262.96 407.627 261.695 406.596 260.663L385.51 239.577L412.258 226.907C414.056 226.056 415.441 224.525 416.11 222.651C416.779 220.778 416.677 218.716 415.825 216.918C414.973 215.121 413.442 213.735 411.569 213.066C409.696 212.397 407.634 212.5 405.836 213.351L377.586 226.734C373.527 228.657 370.647 232.447 369.881 236.872C369.115 241.297 370.553 245.835 373.729 249.011L390.072 265.353L339.265 289.421C337.552 290.234 336.059 291.446 334.912 292.955C333.765 294.464 332.996 296.227 332.671 298.095C332.349 299.964 332.479 301.883 333.052 303.691C333.625 305.499 334.623 307.143 335.963 308.485L345.753 318.275C347.158 319.686 348.897 320.719 350.809 321.276C352.721 321.833 354.743 321.896 356.686 321.459L431.47 304.856C431.325 315.415 431.363 319.48 431.363 360.862L356.687 344.283C354.744 343.846 352.722 343.909 350.81 344.466C348.898 345.023 347.158 346.056 345.753 347.468L335.963 357.258C333.245 359.975 332.014 363.858 332.67 367.645C333.326 371.432 335.791 374.675 339.264 376.322L390.072 400.388L373.729 416.731C372.163 418.299 370.996 420.22 370.327 422.333C369.657 424.445 369.504 426.688 369.881 428.871C370.261 431.054 371.159 433.114 372.499 434.878C373.84 436.642 375.585 438.059 377.587 439.008L381.75 440.98C323.078 467.896 248.056 474.335 181.193 458.405C180.235 458.177 179.241 458.14 178.268 458.295C177.296 458.451 176.364 458.797 175.525 459.313C174.686 459.829 173.957 460.506 173.379 461.303C172.802 462.101 172.387 463.005 172.159 463.963C171.931 464.921 171.893 465.915 172.049 466.888C172.205 467.86 172.551 468.792 173.067 469.631C173.583 470.47 174.259 471.199 175.057 471.777C175.855 472.354 176.759 472.769 177.717 472.997C202.797 478.972 229.13 482.001 255.987 482.001C307.69 482.001 358.335 470.371 399.095 449.196L431.364 464.482V497.002H80.6382V464.482L112.891 449.203C122.388 454.138 132.485 458.602 142.962 462.49C144.827 463.182 146.89 463.105 148.698 462.276C150.507 461.447 151.911 459.934 152.603 458.069C153.296 456.204 153.219 454.14 152.39 452.332C151.56 450.524 150.047 449.119 148.182 448.427C142.106 446.175 136.118 443.694 130.23 440.989L134.415 439.007C136.417 438.057 138.162 436.641 139.503 434.877C140.844 433.113 141.742 431.053 142.122 428.87C142.499 426.687 142.346 424.444 141.677 422.332C141.007 420.219 139.84 418.298 138.274 416.73L121.931 400.387L172.739 376.32C176.213 374.674 178.677 371.431 179.333 367.644C179.989 363.857 178.757 359.974 176.04 357.257L166.25 347.467C164.845 346.055 163.106 345.022 161.194 344.465C159.282 343.908 157.26 343.845 155.317 344.282L80.6402 360.861C80.6402 320.431 80.6812 315.67 80.5292 304.853L155.315 321.457C157.258 321.894 159.28 321.831 161.192 321.274C163.104 320.717 164.844 319.684 166.249 318.273L176.04 308.482C177.38 307.14 178.378 305.496 178.951 303.688C179.524 301.88 179.654 299.962 179.332 298.093C179.007 296.225 178.238 294.462 177.091 292.953C175.944 291.443 174.451 290.231 172.738 289.418L121.931 265.351L138.274 249.009C141.45 245.833 142.888 241.295 142.122 236.87C141.356 232.445 138.476 228.655 134.416 226.731L73.9302 198.082C71.0346 171.758 67.2119 145.545 62.4693 119.491C61.7273 115.416 57.8153 112.725 53.7463 113.457C52.7773 113.633 51.8525 113.999 51.0248 114.533C50.1971 115.067 49.4827 115.759 48.9224 116.569C48.362 117.379 47.9668 118.291 47.7592 119.254C47.5516 120.217 47.5356 121.211 47.7124 122.181C51.8233 144.74 55.2633 167.67 57.9703 190.523L46.6484 185.16C44.0698 183.943 41.1784 183.55 38.3686 184.037C35.5588 184.523 32.9675 185.865 30.9484 187.878L4.05252 214.772C0.877534 217.949 -0.56046 222.488 0.206537 226.913C0.973534 231.338 3.85352 235.127 7.91151 237.049L56.1603 259.904L41.6214 274.443C39.8685 276.195 38.6189 278.386 38.0031 280.787C37.3874 283.188 37.4283 285.71 38.1214 288.089C38.8146 290.469 40.1346 292.618 41.9432 294.313C43.7519 296.007 45.9828 297.184 48.4023 297.721L65.4733 301.511C65.7393 317 65.5983 324.236 65.6383 364.191L48.4023 368.018C45.9826 368.554 43.7515 369.731 41.9427 371.426C40.1338 373.12 38.8137 375.27 38.1206 377.65C37.4274 380.029 37.3866 382.552 38.0025 384.952C38.6184 387.353 39.8683 389.544 41.6214 391.296L56.1613 405.835L7.91051 428.691C-0.72146 432.78 -2.70145 444.212 4.05352 450.967L30.9474 477.861C35.0684 481.984 41.3754 483.075 46.6474 480.582L65.6383 471.586V503.195C65.6383 508.05 69.5883 512.001 74.4432 512.001H437.558C442.413 512.001 446.364 508.051 446.364 503.195V471.586L465.356 480.583C467.934 481.799 470.825 482.191 473.635 481.704C476.444 481.217 479.035 479.876 481.054 477.863L507.949 450.968C514.702 444.214 512.725 432.782 504.09 428.69ZM67.9413 269.336C69.5071 267.768 70.6738 265.847 71.3434 263.734C72.0129 261.622 72.1658 259.38 71.7893 257.196C71.4095 255.013 70.5115 252.953 69.1706 251.189C67.8297 249.425 66.0851 248.009 64.0833 247.059L15.8335 224.204L40.9704 199.067L126.49 239.578L105.404 260.664C104.373 261.696 103.605 262.961 103.165 264.351C102.724 265.742 102.624 267.218 102.872 268.656C103.122 270.092 103.714 271.447 104.596 272.608C105.478 273.769 106.626 274.701 107.943 275.326L162.255 301.054L156.87 306.439L53.7363 283.541L67.9413 269.336ZM40.9714 466.672L15.8345 441.535L64.0843 418.68C68.1433 416.757 71.0233 412.967 71.7893 408.542C72.5553 404.117 71.1173 399.579 67.9413 396.403L53.7363 382.199L156.869 359.302L162.254 364.688L107.943 390.414L107.941 390.416C106.624 391.042 105.477 391.975 104.595 393.135C103.712 394.296 103.122 395.652 102.872 397.088C102.624 398.525 102.725 400.001 103.166 401.391C103.607 402.781 104.375 404.045 105.405 405.076L126.491 426.162L40.9714 466.672ZM471.03 466.672L385.511 426.161L406.597 405.075C407.627 404.044 408.395 402.78 408.836 401.39C409.277 400 409.378 398.524 409.13 397.087C408.88 395.651 408.29 394.295 407.408 393.134C406.526 391.974 405.378 391.041 404.061 390.415L404.059 390.413L349.748 364.687L355.133 359.301L458.266 382.198L444.06 396.402C440.884 399.578 439.446 404.116 440.212 408.541C440.978 412.966 443.858 416.756 447.918 418.68L496.167 441.534L471.03 466.672Z" fill="black"/>
</g>
<defs>
<clipPath id="clip0_800_890">
<rect width="512" height="512" fill="white"/>
</clipPath>
</defs>
</svg>
