<svg width="512" height="512" viewBox="0 0 512 512" fill="none" xmlns="http://www.w3.org/2000/svg">
<path d="M363.667 362.637C363.667 333.633 350.014 307.833 328.792 291.269C286.381 255.324 230.128 253.367 183.207 291.269V291.28C161.984 307.833 148.332 333.643 148.332 362.637C148.332 362.637 145.852 398.526 180.627 409.598C183.257 409.879 185.867 410.412 188.407 411.205V411.195H230.765L230.8 411.206V411.195H323.591V411.206C325.825 410.493 328.586 409.897 331.372 409.599C366.146 398.526 363.667 362.637 363.667 362.637Z" fill="#FFDDCF"/>
<path d="M323.594 411.205L323.629 411.194H323.594V411.205Z" fill="#FFDDCF"/>
<path d="M190.725 362.637C190.725 333.643 204.379 307.833 225.6 291.28V291.269C242.181 277.876 259.938 269.457 277.845 265.758C246.457 259.216 212.941 267.25 183.207 291.269V291.28C161.984 307.833 148.332 333.643 148.332 362.637C148.332 362.637 145.852 398.526 180.627 409.598C183.257 409.879 185.867 410.412 188.407 411.205V411.195H230.765C228.242 410.413 225.648 409.878 223.02 409.599C188.246 398.526 190.725 362.637 190.725 362.637Z" fill="#FFC6BE"/>
<path d="M230.801 411.205V411.195H230.766L230.801 411.205Z" fill="#FFDDCF"/>
<path d="M329.635 380.516C329.635 395.943 324.842 405.572 323.591 411.195V411.206L290.633 491.577C270.692 508.627 241.312 508.632 221.365 491.577L188.407 411.206V411.195C186.68 404.435 182.363 395.18 182.363 380.516C182.363 370.718 190.313 362.767 200.112 362.767H311.886C321.685 362.767 329.635 370.718 329.635 380.516Z" fill="#D7F5F8"/>
<path d="M371.147 430.208C357.065 404.931 321.93 402.184 304.028 424.586L289.482 442.767C273.323 462.958 281.729 492.871 305.6 501.964C317.828 506.621 332.043 504.78 342.849 496.134L361.029 481.587C376.877 468.914 380.513 447.021 371.147 430.208Z" fill="#FFAEC3"/>
<path d="M309.56 460.587L324.106 442.406C335.662 427.946 355.008 423.603 371.146 430.209C357.065 404.932 321.93 402.185 304.028 424.587L289.482 442.768C273.324 462.958 281.728 492.872 305.6 501.965C298.747 488.927 299.912 472.642 309.56 460.587Z" fill="#FF91B3"/>
<path d="M222.52 442.768L207.974 424.587C192.868 405.686 164.689 404.205 147.63 421.245C130.549 438.326 132.094 466.489 150.973 481.588L169.153 496.135C188.62 511.708 217.49 504.557 227.562 481.934C233.188 469.293 231.62 454.138 222.52 442.768Z" fill="#FFAEC3"/>
<path d="M188.394 476.893L170.215 462.348C155.077 450.24 151.096 429.74 158.912 413.281C131.876 426.129 127.616 462.908 150.973 481.588L169.154 496.135C188.62 511.708 217.49 504.557 227.562 481.934C214.926 487.556 199.771 485.994 188.394 476.893Z" fill="#FF91B3"/>
<path d="M474.347 161.657C474.347 193.224 445.997 217.685 414.264 212.283C426.12 180.675 425.538 142.362 414.715 110.949C446.302 105.883 474.347 130.247 474.347 161.657ZM97.7354 212.283C65.9883 217.687 37.6523 193.211 37.6523 161.657C37.6523 130.305 65.6409 105.874 97.2836 110.949C86.4617 142.366 85.8814 180.677 97.7354 212.283Z" fill="#FFC6BE"/>
<path d="M292.351 10.8642C280.648 8.67374 268.487 7.5293 256.001 7.5293C163.776 7.5293 89.0234 69.4434 89.0234 161.657C89.0234 254.238 164.128 302.934 256.001 302.934C348.589 302.934 422.979 253.614 422.979 161.657C422.979 81.9219 367.086 24.8585 292.351 10.8642Z" fill="#FFDDCF"/>
<path d="M161.725 161.657C161.725 81.9269 217.611 24.8575 292.351 10.8642C280.648 8.67374 268.487 7.5293 256.001 7.5293C163.776 7.5293 89.0234 69.4434 89.0234 161.657C89.0234 254.238 164.128 302.934 256.001 302.934C268.49 302.934 280.653 302.029 292.354 300.245C217.821 288.894 161.725 241.666 161.725 161.657Z" fill="#FFC6BE"/>
<path d="M334.689 205.156C350.723 205.156 363.721 194.805 363.721 182.036C363.721 169.268 350.723 158.917 334.689 158.917C318.655 158.917 305.656 169.268 305.656 182.036C305.656 194.805 318.655 205.156 334.689 205.156Z" fill="#FD9FAA"/>
<path d="M177.318 205.156C193.352 205.156 206.35 194.805 206.35 182.036C206.35 169.268 193.352 158.917 177.318 158.917C161.283 158.917 148.285 169.268 148.285 182.036C148.285 194.805 161.283 205.156 177.318 205.156Z" fill="#FD9FAA"/>
<path d="M419.755 102.85C410.917 80.0666 397.005 60.1935 378.315 43.7216C376.816 42.4019 374.855 41.7313 372.862 41.857C370.869 41.9828 369.008 42.8946 367.687 44.3922C366.367 45.8906 365.697 47.8518 365.822 49.8446C365.948 51.8375 366.86 53.6988 368.358 55.0194C399.856 82.7771 415.45 120.661 415.45 161.657C415.45 249.648 343.969 295.405 256.001 295.405C205.682 295.405 167.242 280.583 142.021 260.502C140.458 259.267 138.469 258.701 136.49 258.929C134.511 259.157 132.703 260.161 131.462 261.719C130.221 263.277 129.648 265.264 129.869 267.244C130.09 269.224 131.087 271.036 132.641 272.282C143.359 280.816 155.571 288.03 169.046 293.819C151.027 312.009 140.87 336.372 140.804 362.386C140.142 373.117 143.61 392.086 158.205 405.367C152.254 407.788 146.848 411.375 142.306 415.918C122.004 436.223 123.92 469.594 146.27 487.466L164.45 502.012C181.473 515.63 205.477 515.2 221.962 501.458C232.011 508.258 243.867 511.892 256 511.892C268.134 511.892 279.989 508.258 290.038 501.458C306.521 515.2 330.529 515.629 347.551 502.012L365.731 487.467C388.071 469.601 390.008 436.232 369.692 415.917C365.151 411.375 359.747 407.789 353.798 405.369C368.393 392.088 371.86 373.118 371.197 362.387C371.133 336.385 360.98 312.026 342.972 293.83C379.064 278.382 405.155 253.243 419.106 220.42C453.071 222.716 481.876 195.588 481.876 161.657C481.877 127.857 453.354 100.957 419.755 102.85ZM173.859 490.255L155.677 475.707C140.342 463.445 139 440.522 152.952 426.572C166.947 412.59 189.871 413.99 202.096 429.291L216.643 447.472C226.393 459.655 225.341 477.064 214.397 488.009C203.415 498.993 185.988 499.958 173.859 490.255ZM231.871 489.943C241.576 473.885 240.501 453.184 228.401 438.063L213.858 419.888C208.704 413.438 202.077 408.492 194.534 405.417C193.534 401.397 189.896 393.158 189.896 380.516C189.896 374.872 194.471 370.296 200.115 370.296H311.889C317.524 370.296 322.109 374.88 322.109 380.516C322.109 393.734 318.223 401.883 317.471 405.418C309.923 408.496 303.3 413.439 298.15 419.884L283.604 438.062C271.495 453.195 270.426 473.918 280.126 489.948C272.883 494.451 264.525 496.837 255.997 496.836C247.469 496.835 239.112 494.448 231.871 489.943ZM356.324 475.708L338.144 490.255C326.017 499.955 308.589 498.991 297.61 488.014C286.599 476.983 285.644 459.61 295.36 447.471L309.909 429.287C322.221 413.877 345.162 412.697 359.047 426.569C372.99 440.51 371.677 463.433 356.324 475.708ZM356.155 363.122C356.223 364.266 357.43 389.379 334.676 400.214C336.273 393.959 337.165 387.503 337.165 380.516C337.165 366.578 325.825 355.238 311.887 355.238H301.175V341.324C301.175 337.165 297.805 333.795 293.646 333.795C289.487 333.795 286.117 337.165 286.117 341.324V355.238H225.883V341.324C225.883 337.165 222.513 333.795 218.354 333.795C214.195 333.795 210.825 337.165 210.825 341.324V355.238H200.113C186.145 355.238 174.835 366.548 174.835 380.516C174.835 387.145 175.675 393.752 177.324 400.214C154.572 389.379 155.777 364.268 155.845 363.156C155.857 362.983 155.863 362.81 155.863 362.637C155.863 338.243 166.349 315.545 184.762 299.746C228.323 313.987 283.171 314.144 327.247 299.742C345.656 315.551 356.14 338.25 356.14 362.637C356.14 362.787 356.147 362.973 356.155 363.122ZM424.468 205.469C432.432 178.333 432.541 146.283 424.726 117.852C448.091 118.778 466.819 138.068 466.819 161.658C466.819 185.333 447.954 204.675 424.468 205.469ZM96.5527 161.657C96.5527 77.9805 161.36 20.1994 244.714 15.3887C239.036 20.8649 228.295 26.6745 228.295 41.1597C228.295 53.0939 235.691 59.2579 241.092 63.7593C246.077 67.9134 248.473 70.117 248.473 74.7901C248.473 78.9492 251.843 82.3193 256.002 82.3193C260.161 82.3193 263.531 78.9492 263.531 74.7901C263.531 62.8558 256.135 56.6919 250.734 52.1904C245.749 48.0363 243.353 45.8328 243.353 41.1597C243.353 36.4865 245.749 34.282 250.734 30.1289C254.84 26.7076 260.088 22.3176 262.376 15.1718C290.736 16.0994 317.793 23.206 340.986 35.8812C342.737 36.8246 344.79 37.0369 346.697 36.4716C348.604 35.9062 350.21 34.6093 351.164 32.8639C352.118 31.1186 352.342 29.0667 351.789 27.1563C351.235 25.2459 349.947 23.6324 348.208 22.6679C321.074 7.8384 289.189 0 256.001 0C180.199 0 116.626 40.1678 92.2409 102.85C58.5543 100.963 30.125 127.939 30.125 161.657C30.125 195.571 58.9197 222.725 92.9035 220.42C96.6882 229.295 101.401 237.703 106.986 245.462C109.403 248.821 114.104 249.616 117.495 247.175C119.115 246.008 120.206 244.246 120.528 242.275C120.849 240.304 120.374 238.287 119.208 236.666C103.338 214.615 96.5527 188.714 96.5527 161.657ZM45.1834 161.657C45.1834 138.067 63.91 118.777 87.2767 117.851C79.7495 145.233 79.2807 177.345 87.5347 205.468C64.0486 204.675 45.1834 185.333 45.1834 161.657Z" fill="black"/>
<path d="M172.891 156.869C172.891 161.028 176.261 164.398 180.42 164.398C184.579 164.398 187.949 161.028 187.949 156.869C187.949 153.404 190.772 150.584 194.243 150.584C195.91 150.586 197.507 151.249 198.685 152.427C199.863 153.605 200.526 155.203 200.528 156.869C200.528 161.028 203.898 164.398 208.057 164.398C212.216 164.398 215.586 161.028 215.586 156.869C215.586 145.1 206.012 135.526 194.243 135.526C182.47 135.526 172.891 145.1 172.891 156.869ZM296.42 156.869C296.42 161.028 299.79 164.398 303.949 164.398C308.108 164.398 311.478 161.028 311.478 156.869C311.48 155.203 312.143 153.605 313.321 152.427C314.499 151.249 316.097 150.586 317.763 150.584C321.234 150.584 324.058 153.404 324.058 156.869C324.058 161.028 327.428 164.398 331.587 164.398C335.746 164.398 339.116 161.028 339.116 156.869C339.116 145.1 329.537 135.526 317.763 135.526C305.994 135.526 296.42 145.1 296.42 156.869ZM264.979 168.079C260.223 173.543 251.778 173.538 247.026 168.079C245.713 166.583 243.86 165.668 241.873 165.534C239.887 165.401 237.928 166.059 236.426 167.366C234.924 168.673 234.001 170.522 233.858 172.508C233.716 174.494 234.366 176.456 235.666 177.963C246.425 190.328 265.594 190.314 276.34 177.963C279.069 174.826 278.739 170.071 275.602 167.341C272.465 164.612 267.707 164.943 264.979 168.079Z" fill="black"/>
</svg>
