<svg width="512" height="512" viewBox="0 0 512 512" fill="none" xmlns="http://www.w3.org/2000/svg">
<path d="M394.388 234.813L365.983 280.473L325.84 255.472L354.245 209.812C361.17 198.779 375.725 195.375 386.876 202.182C397.91 209.108 401.313 223.663 394.388 234.813Z" fill="#D1DBC6"/>
<path d="M366.921 284.581L321.496 256.411L351.545 208.169C356.475 200.304 364.926 195.609 374.199 195.609C379.128 195.609 384.058 197.018 388.284 199.6C394.387 203.356 398.613 209.225 400.139 216.268C401.782 223.193 400.608 230.353 396.735 236.457L366.921 284.581ZM329.947 254.415L364.926 276.13L391.805 233.053C394.74 228.358 395.679 222.841 394.387 217.559C393.096 212.16 389.927 207.699 385.232 204.765C381.945 202.769 378.189 201.596 374.316 201.596C367.156 201.596 360.583 205.234 356.827 211.338L329.947 254.415Z" fill="#434244"/>
<path d="M364.34 357.356L364.692 347.496C364.81 342.801 362.11 338.81 358.119 336.932L359.88 296.202L370.913 267.21L343.565 257.115L330.77 291.272L328.892 337.049C325.841 338.927 323.728 342.214 323.61 346.087L323.258 355.947C323.023 362.051 327.836 367.215 333.94 367.45L352.837 368.154C358.941 368.272 364.106 363.577 364.34 357.356Z" fill="#F9E1BB"/>
<path d="M353.19 371.089H352.72L333.822 370.384C330.066 370.267 326.545 368.624 323.963 365.924C321.38 363.107 320.089 359.586 320.207 355.829L320.559 345.97C320.676 341.862 322.672 337.988 325.841 335.406L327.719 290.568L341.804 253.124L374.904 265.449L362.932 296.789L361.289 335.171C365.397 337.871 367.862 342.448 367.744 347.496L367.392 357.355C367.04 365.102 360.937 371.089 353.19 371.089ZM333.822 291.859L331.944 338.81L330.536 339.631C328.306 341.04 326.78 343.505 326.78 346.205L326.428 356.064C326.31 358.177 327.132 360.29 328.54 361.816C329.949 363.342 331.944 364.281 334.174 364.398L353.307 365.102C357.65 365.102 361.171 361.698 361.289 357.355L361.641 347.496C361.758 344.209 359.88 341.275 356.946 339.866L355.068 339.045L356.946 295.732L367.04 269.205L345.443 261.223L333.822 291.859Z" fill="#434244"/>
<path d="M420.682 162.157C430.665 162.157 438.758 154.064 438.758 144.081C438.758 134.098 430.665 126.005 420.682 126.005C410.698 126.005 402.605 134.098 402.605 144.081C402.605 154.064 410.698 162.157 420.682 162.157Z" fill="#F1946B"/>
<path d="M407.182 140.09C406.947 139.855 406.712 139.503 406.595 139.151C404.365 135.278 405.656 130.23 409.53 128C410.351 127.531 417.746 123.422 426.315 125.887C430.305 127.061 436.057 130.113 440.282 138.095C442.395 142.085 440.869 147.015 436.878 149.128C432.888 151.241 427.958 149.715 425.845 145.724C425.023 144.198 423.615 142.203 421.972 141.616C419.976 141.029 417.746 142.203 417.629 142.203C414.107 144.198 409.647 143.259 407.182 140.09Z" fill="#FAB9A6"/>
<path d="M420.679 165.209C414.105 165.209 408.002 162.274 404.011 156.992C400.607 152.532 399.081 147.015 399.785 141.381C400.49 135.747 403.307 130.817 407.767 127.413C411.523 124.479 415.983 122.953 420.679 122.953C427.252 122.953 433.355 125.887 437.346 131.169C440.75 135.63 442.276 141.146 441.572 146.78C440.867 152.415 438.05 157.344 433.59 160.748C429.834 163.683 425.374 165.209 420.679 165.209ZM420.679 129.174C417.275 129.174 414.105 130.23 411.523 132.343C408.354 134.808 406.359 138.329 405.889 142.32C405.419 146.311 406.476 150.184 408.941 153.354C411.758 156.992 416.101 159.105 420.796 159.105C424.2 159.105 427.369 158.049 429.951 155.936C433.121 153.471 435.116 149.95 435.585 145.959C436.055 141.968 434.999 138.095 432.534 134.925C429.599 131.287 425.374 129.174 420.679 129.174Z" fill="#434244"/>
<path d="M389.927 221.785L377.367 190.093L416.454 174.599L429.131 206.173L389.927 221.785Z" fill="#F9E1BB"/>
<path d="M388.286 225.776L373.379 188.45L418.217 170.608L433.124 207.934L388.286 225.776ZM381.243 191.853L391.572 217.794L425.025 204.53L414.696 178.59L381.243 191.853Z" fill="#434244"/>
<path d="M409.764 217.794L408.942 216.15C400.491 198.544 408.003 177.299 425.61 168.847L454.015 155.232C463.405 150.771 474.673 154.762 479.134 164.152L494.275 195.844C498.736 205.234 494.745 216.503 485.472 220.963L457.184 234.579C439.343 242.912 418.215 235.518 409.764 217.794Z" fill="#F9E1BB"/>
<path d="M441.69 241.035C426.9 241.035 413.284 232.466 406.946 219.085L406.124 217.442C396.969 198.309 405.068 175.303 424.2 166.148L452.606 152.532C455.54 151.123 458.709 150.419 461.996 150.419C470.33 150.419 478.194 155.349 481.715 162.861L496.857 194.553C502.022 205.469 497.444 218.498 486.528 223.663L458.357 237.278C453.075 239.743 447.559 241.035 441.69 241.035ZM462.113 156.523C459.766 156.523 457.418 156.992 455.305 158.049L426.9 171.664C410.819 179.411 403.894 198.779 411.641 214.859L412.463 216.503C417.862 227.653 429.248 234.931 441.69 234.931C446.502 234.931 451.197 233.874 455.658 231.762L483.946 218.146C491.81 214.39 495.096 205 491.34 197.135L476.199 165.443C473.734 160.044 468.1 156.523 462.113 156.523Z" fill="#434244"/>
<path d="M488.173 153.823C451.082 123.188 413.639 168.378 413.639 168.378C410.235 172.838 408.239 177.064 407.183 180.585C405.892 184.928 405.892 188.097 406.009 189.388C406.009 189.858 406.126 190.093 406.126 190.093C412.582 183.637 421.62 187.745 428.428 190.914C427.841 190.68 428.545 188.802 428.545 188.215C428.545 186.924 429.132 185.515 429.484 184.459C430.306 182.111 431.832 180.116 433.827 178.707C437.349 176.242 442.279 175.89 446.152 178.12C449.908 180.35 452.373 185.515 450.965 189.858C450.026 192.675 447.561 194.788 444.861 195.962C442.161 197.135 441.457 197.37 438.992 198.192C439.814 199.952 440.635 201.83 441.457 203.591C441.457 203.591 452.96 199.248 454.369 198.779C462.82 196.196 472.562 199.6 478.431 205.821C479.135 206.526 479.722 207.23 480.309 208.051C482.422 210.986 483.948 214.155 485.004 217.207C486.882 222.841 494.277 224.25 498.15 219.789C515.639 199.6 504.723 167.439 488.173 153.823Z" fill="#F1946B"/>
<path d="M431.598 160.514C431.481 160.279 431.363 160.161 431.246 159.927C428.781 156.171 429.837 151.123 433.593 148.658C434.767 147.954 462.468 130.23 485.474 148.658C503.902 163.448 511.884 183.754 507.776 205.821C506.954 210.282 502.729 213.216 498.268 212.394C493.808 211.573 490.873 207.347 491.695 202.887C493.808 191.619 492.634 175.186 475.262 161.335C461.294 150.184 442.514 162.157 442.397 162.274C438.875 164.622 434.18 163.8 431.598 160.514Z" fill="#FAB9A6"/>
<path d="M492.398 225.423C487.703 225.423 483.595 222.489 482.187 218.146C481.13 214.859 479.604 212.042 477.961 209.812C477.492 209.108 476.905 208.404 476.318 207.817C470.918 202.183 462.115 199.483 455.307 201.596C454.368 201.948 446.973 204.647 442.63 206.291L439.931 207.347L434.766 196.314L439.226 194.905C440.87 194.436 441.574 194.201 443.569 193.262C445.8 192.205 447.443 190.68 448.03 188.919C449.086 185.867 447.091 182.228 444.508 180.82C441.926 179.294 438.17 179.529 435.588 181.289C434.062 182.346 432.888 183.872 432.301 185.515C431.832 186.689 431.597 187.745 431.48 188.684V195.844L427.137 193.849C423.381 192.088 418.685 189.858 414.46 189.858C411.878 189.858 409.999 190.68 408.239 192.44L404.013 196.666L403.074 190.797C403.074 190.797 403.074 190.445 402.957 189.858C402.839 188.215 402.839 184.576 404.248 179.881C405.657 175.421 407.887 170.96 411.173 166.735C412.112 165.561 433.358 140.325 460.472 140.325C471.036 140.325 480.895 144.198 490.051 151.71C500.85 160.631 508.596 176.007 509.888 190.914C510.827 203.004 507.657 213.686 500.38 222.019C498.385 224.015 495.568 225.423 492.398 225.423ZM460.354 194.67C467.749 194.67 475.379 197.957 480.661 203.591C481.365 204.413 482.187 205.234 482.773 206.056C484.886 208.873 486.647 212.277 487.938 216.15C488.76 218.498 490.873 219.32 492.398 219.32C493.69 219.32 494.981 218.733 495.92 217.794C503.667 208.99 504.488 198.426 503.901 191.266C502.845 178.12 495.802 164.035 486.295 156.288C478.313 149.715 469.627 146.311 460.589 146.311C436.292 146.311 416.221 170.139 415.986 170.373C413.286 173.895 411.291 177.651 410.117 181.407C409.765 182.463 409.53 183.52 409.413 184.341C411.056 183.754 412.699 183.52 414.577 183.52C418.451 183.52 422.324 184.811 425.845 186.219C426.08 185.28 426.315 184.341 426.784 183.167C427.841 180.35 429.719 177.768 432.301 176.007C436.762 172.838 443.217 172.486 447.912 175.303C453.194 178.472 455.894 185.163 454.016 190.68C453.077 193.497 450.964 195.962 448.03 197.722C450.612 196.783 452.96 195.844 453.664 195.727C455.659 195.023 457.889 194.67 460.354 194.67Z" fill="#434244"/>
<path d="M371.851 251.951H372.32C392.04 244.204 401.665 218.615 393.918 198.779C386.054 178.707 370.912 173.66 344.737 177.768L249.074 208.404L249.192 273.431L317.857 258.289C322.318 257.819 326.778 259.815 329.008 263.806C330.065 265.684 331.473 267.444 333.234 268.97C338.751 273.665 346.85 274.487 353.188 271.083C357.766 268.618 360.7 264.745 362.109 260.284C363.517 255.824 367.273 252.42 371.851 251.951Z" fill="#D1DBC6"/>
<path d="M347.202 275.309C338.751 275.309 330.417 269.557 324.313 259.111C323.257 258.641 320.557 258.524 318.562 258.876L261.164 272.374C255.648 273.665 250.248 270.261 248.957 264.745C247.666 259.228 251.07 253.829 256.587 252.537L314.336 238.922C314.454 238.922 314.571 238.922 314.688 238.804C323.609 237.044 336.168 238.57 341.803 248.429C344.033 252.303 346.38 254.181 347.319 254.65C352.484 253.007 358.001 255.589 359.996 260.636C361.991 265.918 359.409 271.787 354.127 273.783C351.78 274.957 349.549 275.309 347.202 275.309Z" fill="#C1C9B8"/>
<path d="M261.049 220.259C260.11 219.085 259.406 217.676 259.053 216.033C257.762 210.282 260.814 204.413 265.979 202.887C266.448 202.77 318.329 187.158 334.175 181.407C351.782 175.068 364.224 176.007 365.515 176.125C370.797 176.712 374.67 181.876 374.083 187.745C373.496 193.614 368.801 197.957 363.519 197.488C363.285 197.488 353.542 196.783 339.809 201.713C323.494 207.582 272.787 222.841 270.674 223.545C267.153 224.602 263.396 223.193 261.049 220.259Z" fill="#E3F3F7"/>
<path d="M246.258 277.187L246.141 206.173L344.151 174.834C370.091 168.495 388.637 176.594 396.853 197.605C400.844 207.817 400.727 220.024 396.384 230.94C391.923 242.091 383.707 250.777 373.495 254.768L372.791 255.002H372.321C369.035 255.355 366.218 257.819 365.161 261.341C363.518 266.74 359.879 271.2 354.832 273.9C351.898 275.543 348.494 276.365 344.972 276.365C339.925 276.365 335.113 274.604 331.357 271.435C329.361 269.675 327.601 267.679 326.427 265.449C324.901 262.749 321.849 261.106 318.445 261.458L246.258 277.187ZM319.267 255.12C324.549 255.12 329.244 257.937 331.709 262.28C332.648 263.923 333.822 265.332 335.23 266.623C337.93 268.853 341.334 270.144 344.855 270.144C347.32 270.144 349.667 269.557 351.78 268.383C355.419 266.505 358.001 263.336 359.175 259.463C360.936 253.711 365.748 249.486 371.382 248.899H371.5C379.833 245.495 386.759 238.1 390.515 228.71C394.271 219.202 394.388 208.756 390.984 199.835C385.468 185.867 375.138 178.707 360.349 178.707C355.771 178.707 350.841 179.411 345.442 180.703L252.009 210.516L252.127 269.44L317.389 255.12H319.267Z" fill="#434244"/>
<path d="M420.092 347.613L416.454 338.458C414.693 334.115 410.585 331.533 406.242 331.533L391.335 293.502L389.692 262.515L360.582 264.275L362.577 300.662L379.362 343.27C377.367 346.205 376.78 350.078 378.189 353.599L381.827 362.755C384.057 368.389 390.513 371.206 396.265 368.976L413.754 361.933C419.623 359.703 422.44 353.247 420.092 347.613Z" fill="#F9E1BB"/>
<path d="M392.275 372.849C386.406 372.849 381.359 369.328 379.129 363.929L375.49 354.773C373.964 350.9 374.199 346.674 376.077 343.036L359.644 301.367L357.414 261.458L392.627 259.345L394.388 292.915L408.356 328.715C413.286 329.537 417.394 332.706 419.272 337.401L422.911 346.557C424.319 350.078 424.319 353.952 422.793 357.356C421.267 360.877 418.568 363.459 415.046 364.868L397.557 371.91C395.796 372.497 394.036 372.849 392.275 372.849ZM365.748 300.075L383.002 343.74L382.063 345.031C380.537 347.261 380.185 350.078 381.242 352.543L384.88 361.699C386.054 364.75 388.989 366.746 392.392 366.746C393.449 366.746 394.388 366.511 395.327 366.159L412.816 359.116C414.812 358.295 416.337 356.769 417.159 354.773C417.981 352.778 417.981 350.665 417.277 348.67L413.638 339.514C412.464 336.462 409.53 334.467 406.243 334.467H404.13L388.284 294.089L386.758 265.684L363.752 267.092L365.748 300.075Z" fill="#434244"/>
<path d="M398.025 223.311L390.513 276.6L343.68 270.027L351.192 216.737C353.07 203.826 365.042 194.788 377.954 196.666C390.865 198.427 399.903 210.282 398.025 223.311Z" fill="#D1DBC6"/>
<path d="M393.097 280.004L340.16 272.609L348.142 216.385C350.02 203.239 361.405 193.379 374.552 193.379C375.843 193.379 377.017 193.497 378.308 193.614C385.35 194.553 391.689 198.309 395.914 203.943C400.257 209.695 402.018 216.62 400.962 223.78L393.097 280.004ZM347.085 267.327L387.933 273.079L395.093 222.841C395.914 217.442 394.506 211.925 391.219 207.582C387.933 203.239 383.12 200.305 377.604 199.6C376.665 199.483 375.608 199.366 374.669 199.366C364.457 199.366 355.654 206.995 354.245 217.09L347.085 267.327Z" fill="#434244"/>
<path d="M154.939 213.568H117.027C109.867 213.568 103.998 207.699 103.998 200.539V171.312H66.7891V221.667C66.7891 237.748 79.8179 250.777 95.8986 250.777H154.939V213.568Z" fill="#F9E1BB"/>
<path d="M157.988 253.711H95.8958C78.1718 253.711 63.7344 239.274 63.7344 221.55L63.8518 168.143H107.164V200.422C107.164 203.122 108.22 205.586 110.098 207.464C111.976 209.343 114.441 210.399 117.141 210.399H158.106V253.711H157.988ZM69.838 216.62V221.667C69.838 235.987 81.4584 247.725 95.8958 247.725H151.885V216.62H117.024C112.681 216.62 108.69 214.977 105.638 211.925C102.586 208.873 100.943 204.882 100.943 200.539V174.364H69.838V216.62Z" fill="#434244"/>
<path d="M233.463 277.891C233.463 277.891 242.266 273.431 249.192 273.431H249.074V208.286L214.683 203.591C204.236 203.591 196.959 205.352 189.681 206.643C183.108 207.699 166.91 211.103 154.938 213.686V264.393L233.463 277.891Z" fill="#D1DBC6"/>
<path d="M238.278 293.385L192.148 268.853L193.439 314.278C190.857 322.142 185.106 326.368 177.241 323.786L147.31 313.926L136.746 345.735L188.862 363.811C214.215 371.793 236.165 350.665 238.278 324.607V293.385Z" fill="#F9E1BB"/>
<path d="M199.424 368.741C196.372 368.741 193.32 368.389 190.269 367.567L187.804 366.863L132.871 347.613L145.313 310.052L178.179 320.851C179.353 321.203 180.526 321.438 181.583 321.438C186.747 321.438 189.212 316.86 190.269 313.808L188.86 263.688L241.21 291.624V322.142C241.21 333.763 236.75 345.5 229.003 354.421C221.021 363.459 210.223 368.741 199.424 368.741ZM140.501 343.857L189.799 360.994C190.503 361.229 191.09 361.464 191.795 361.581C194.259 362.285 196.842 362.637 199.307 362.637C208.462 362.637 217.383 358.294 224.308 350.313C231.116 342.448 235.107 332.237 235.107 322.142V295.263L195.316 274.017L196.49 314.747L196.372 315.217C193.79 323.081 188.391 327.542 181.7 327.542C179.939 327.542 178.179 327.189 176.301 326.603L149.187 317.682L140.501 343.857Z" fill="#434244"/>
<path d="M176.889 323.668V359.703L136.746 345.735L147.31 313.926L176.889 323.668Z" fill="#E3F3F7"/>
<path d="M109.63 163.331L109.395 147.954C109.278 144.55 106.578 141.968 103.174 141.968L52.4669 142.085C48.8282 142.085 46.0112 145.02 46.1285 148.541C46.598 161.335 57.162 171.43 70.1909 171.43L101.765 171.312C106.226 171.195 109.747 167.674 109.63 163.331Z" fill="#F1946B"/>
<path d="M70.1902 174.364C55.518 174.364 43.6629 162.979 43.1934 148.541C43.076 145.959 44.0151 143.611 45.7757 141.733C47.5364 139.855 50.0013 138.799 52.5836 138.799L103.291 138.681C108.455 138.681 112.446 142.672 112.563 147.719L112.798 163.096C112.798 166.03 111.742 168.73 109.746 170.843C107.634 172.956 104.934 174.129 101.882 174.129L70.1902 174.364ZM103.173 144.902L52.4662 145.02C51.5272 145.02 50.7056 145.372 50.1187 146.076C49.5318 146.663 49.1797 147.485 49.1797 148.424C49.5318 159.575 58.8046 168.378 70.0728 168.378L101.647 168.26C102.938 168.26 104.23 167.791 105.169 166.852C106.108 165.913 106.577 164.739 106.577 163.448L106.342 148.072C106.342 146.194 104.934 144.902 103.173 144.902Z" fill="#434244"/>
<path d="M49.7578 163.081L49.7249 156.978L109.588 156.655L109.621 162.758L49.7578 163.081Z" fill="#434244"/>
<path d="M249.425 211.456V209.46L247.195 209.225C248.134 209.812 248.839 210.516 249.425 211.456Z" fill="#D1DBC6"/>
<path d="M214.095 204.765L247.195 209.108C245.904 208.169 244.378 207.347 242.618 207.112C219.729 203.474 205.996 201.948 201.77 202.652C196.84 203.474 164.327 210.869 160.688 211.69C155.171 212.981 151.767 218.381 153.059 223.897C154.115 228.593 158.341 231.762 162.918 231.762C163.623 231.762 164.444 231.644 165.148 231.527C172.661 229.766 182.99 227.536 191.324 225.658C192.967 214.625 201.183 203.709 214.095 204.765ZM251.186 218.733C251.656 216.033 250.951 213.451 249.425 211.338V222.841C250.364 221.785 250.951 220.376 251.186 218.733Z" fill="#E3F3F7"/>
<path d="M233.934 281.06L151.77 266.975V211.221L154.234 210.751C164.564 208.521 182.522 204.882 189.096 203.709C190.504 203.474 191.795 203.239 193.204 203.004C199.19 201.831 205.294 200.774 214.566 200.774H214.919L252.01 205.821V273.548H249.075V276.6C242.854 276.6 234.755 280.591 234.755 280.708L233.934 281.06ZM157.991 261.81L233.112 274.605C235.225 273.665 240.742 271.318 246.141 270.496V210.869L214.566 206.643C205.998 206.643 200.129 207.699 194.495 208.873C193.086 209.108 191.678 209.46 190.269 209.695C184.166 210.751 168.554 213.92 157.991 216.151V261.81Z" fill="#434244"/>
<path d="M239.215 226.128C225.247 223.898 208.227 221.667 204.471 221.785C202.711 222.137 197.429 223.193 191.09 224.602C190.973 225.893 190.855 227.067 190.855 228.358L193.555 307.94H238.393V292.094C238.393 289.159 238.98 282.351 241.797 278.361C243.793 275.544 245.905 273.783 249.427 273.431H249.309V221.902C246.962 224.954 243.206 226.832 239.215 226.128Z" fill="#D1DBC6"/>
<path d="M239.215 226.127C243.205 226.714 246.961 224.954 249.192 221.902V210.281C248.605 209.46 247.9 208.638 246.961 208.051L213.861 203.708C200.832 202.652 192.616 213.451 191.09 224.602C197.546 223.193 202.71 222.019 204.471 221.784C208.227 221.667 225.247 224.015 239.215 226.127Z" fill="#E3F3F7"/>
<path d="M241.329 310.991H190.505L187.688 228.475C187.688 214.39 197.782 199.365 213.98 200.657L252.128 205.704V273.431H249.311L249.545 276.482C247.315 276.717 245.789 277.656 244.146 280.121C242.033 283.055 241.329 288.924 241.329 292.094V310.991ZM196.373 304.888H235.108V292.094C235.108 291.037 235.225 281.999 238.981 276.6C240.39 274.604 242.503 272.139 245.907 270.966V210.986L213.276 206.643H211.867C200.599 206.643 193.674 217.911 193.674 228.358L196.373 304.888Z" fill="#434244"/>
<path d="M66.9062 171.312H103.763V199.248H66.9062V171.312Z" fill="#E3F3F7"/>
<path d="M106.812 202.3H63.8516V168.26H106.812V202.3ZM69.9552 196.196H100.708V174.364H69.9552V196.196Z" fill="#434244"/>
<path d="M176.889 323.668V359.703L136.746 345.735L147.31 313.926L176.889 323.668Z" fill="#E3F3F7"/>
<path d="M179.939 364.046L132.871 347.613L145.313 310.052L179.939 321.438V364.046ZM140.501 343.857L173.718 355.478V325.898L149.069 317.799L140.501 343.857Z" fill="#434244"/>
<path d="M179.939 364.046L132.871 347.613L145.313 310.052L179.939 321.438V364.046ZM140.501 343.857L173.718 355.478V325.898L149.069 317.799L140.501 343.857Z" fill="#434244"/>
<path d="M144.374 306.296L128.998 306.531C125.594 306.648 123.012 309.348 123.012 312.752L123.129 363.459C123.129 367.098 126.064 369.915 129.585 369.798C142.379 369.328 152.473 358.764 152.473 345.735L152.356 314.161C152.356 309.818 148.717 306.296 144.374 306.296Z" fill="#F1946B"/>
<path d="M129.351 372.849C124.187 372.849 120.078 368.624 120.078 363.459L119.961 312.752C119.961 307.587 123.952 303.596 128.999 303.479L144.375 303.244C150.596 303.244 155.409 308.174 155.409 314.16L155.526 345.735C155.526 360.407 144.258 372.262 129.703 372.849H129.351ZM144.493 309.348L128.999 309.583C127.238 309.583 125.947 310.991 125.947 312.752L126.065 363.459C126.065 365.22 127.473 366.746 129.234 366.746H129.351C140.502 366.393 149.305 357.121 149.305 345.735L149.188 314.16C149.305 311.578 147.192 309.348 144.493 309.348Z" fill="#434244"/>
<path d="M138.023 366.214L137.706 306.352L143.809 306.319L144.127 366.182L138.023 366.214Z" fill="#434244"/>
<path d="M500.379 385.995H11.6193C6.92423 385.995 3.05078 382.122 3.05078 377.427C3.05078 372.732 6.92423 368.858 11.6193 368.858H500.379C505.074 368.858 508.947 372.732 508.947 377.427C508.947 382.239 505.074 385.995 500.379 385.995Z" fill="#57C0EE"/>
<path d="M500.38 389.047H11.6204C5.1646 389.047 0 383.883 0 377.427C0 370.971 5.1646 365.807 11.6204 365.807H500.38C506.835 365.807 512 370.971 512 377.427C512 383.883 506.835 389.047 500.38 389.047ZM11.6204 371.91C8.56855 371.91 6.10362 374.375 6.10362 377.427C6.10362 380.479 8.56855 382.944 11.6204 382.944H500.38C503.431 382.944 505.896 380.479 505.896 377.427C505.896 374.375 503.431 371.91 500.38 371.91H11.6204Z" fill="#434244"/>
</svg>
