<svg width="512" height="512" viewBox="0 0 512 512" fill="none" xmlns="http://www.w3.org/2000/svg">
<path d="M347.144 289.826L345.883 254.171L389.906 252.796L391.167 288.45L347.144 289.826Z" fill="#F9E1BB"/>
<path d="M344.274 292.921L342.898 251.305L392.883 249.7L394.259 291.316L344.274 292.921ZM348.975 257.152L350.006 286.845L388.068 285.584L387.036 255.891L348.975 257.152Z" fill="#434244"/>
<path d="M376.261 260.935L376.146 254.057C375.802 234.911 391.165 219.205 410.196 218.861L446.882 218.288C457.085 218.173 465.339 226.198 465.569 236.402L466.142 275.724C466.256 285.928 458.231 294.182 448.028 294.411L411.342 294.985C392.311 295.329 376.49 280.081 376.261 260.935Z" fill="#F9E1BB"/>
<path d="M410.885 297.965C390.478 297.965 373.625 281.342 373.281 260.935L373.167 254.057C373.052 243.968 376.721 234.452 383.714 227.345C390.707 220.122 400.108 216.109 410.082 215.88L447.112 215.307C458.691 215.307 468.321 224.708 468.436 236.287L469.009 275.61C469.238 287.418 459.723 297.163 448.029 297.277L410.885 297.965ZM447.227 221.268H446.997L410.311 221.842C401.828 221.956 393.917 225.396 388.07 231.472C382.224 237.548 379.014 245.573 379.128 253.942L379.243 260.821C379.472 278.017 393.688 292.004 410.885 292.004H411.343L448.029 291.43C456.513 291.316 463.277 284.323 463.162 275.839L462.589 236.516C462.474 228.032 455.596 221.268 447.227 221.268Z" fill="#434244"/>
<path d="M466.027 298.195C449.748 307.137 427.392 309.888 408.362 300.029C393.687 292.348 385.089 291.087 385.777 281.686C386.121 277.1 388.872 271.941 391.738 268.387L410.31 268.502C410.196 270.451 410.654 272.514 411.686 274.463C414.782 280.196 422.004 282.374 427.736 279.278C433.469 276.183 435.647 268.96 432.551 263.228L432.437 263.114C431.29 260.362 428.539 258.184 425.329 257.496C425.1 257.381 424.87 257.381 424.641 257.381C424.412 257.381 424.297 257.267 424.068 257.267C418.45 256.235 412.603 257.381 412.603 257.381L411.457 250.503L441.608 248.783L438.742 207.97C449.748 207.167 461.556 210.836 473.021 224.135C492.854 247.063 488.039 286.157 466.027 298.195Z" fill="#F47952"/>
<path d="M452.156 219.09C452.156 219.09 481.161 230.211 476.117 269.419Z" fill="#FAB9A6"/>
<path d="M471.187 278.132C467.748 276.183 465.684 272.285 466.257 268.158C470.155 238.121 450.78 229.294 448.487 228.376C443.328 226.427 440.806 220.695 442.755 215.536C444.704 210.377 450.551 207.855 455.595 209.804C468.206 214.619 490.676 233.535 485.861 270.68C485.173 276.068 480.129 279.966 474.741 279.278C473.48 279.164 472.219 278.705 471.187 278.132Z" fill="#FAB9A6"/>
<path d="M435.304 309.2C425.1 309.2 415.356 306.908 406.987 302.551C403.777 300.946 400.91 299.57 398.388 298.309C388.988 293.838 382.224 290.743 382.911 281.342C383.485 274.463 388.185 268.158 389.561 266.324L390.478 265.177L413.521 265.406L413.407 268.502C413.407 270.107 413.751 271.597 414.438 272.973C416.043 275.839 419.024 277.673 422.234 277.673C423.725 277.673 425.1 277.329 426.476 276.642C430.833 274.349 432.438 268.96 430.145 264.604L429.915 264.26C429.113 262.426 427.164 260.935 424.871 260.362C424.756 260.362 424.642 260.247 424.413 260.247H424.069C423.954 260.247 423.839 260.247 423.725 260.133C422.234 259.904 420.629 259.674 418.91 259.674C415.814 259.674 413.292 260.133 413.292 260.133L410.311 260.706L408.018 247.522L438.514 245.802L435.648 205.104L438.628 204.874C439.66 204.76 440.692 204.76 441.724 204.76C454.22 204.76 465.455 210.607 475.314 222.071C485.632 234.109 490.218 250.388 487.925 266.782C485.976 280.883 479.212 292.806 469.238 299.456C460.181 305.646 447.8 309.2 435.304 309.2ZM393.344 271.253C390.822 274.693 389.102 278.82 388.873 281.801C388.529 286.845 391.51 288.45 401.025 292.921C403.662 294.182 406.643 295.558 409.853 297.277C417.305 301.175 426.132 303.239 435.418 303.239C446.768 303.239 458.003 300.144 466.258 294.641C474.741 288.908 480.703 278.476 482.422 266.094C484.486 251.42 480.359 236.86 471.187 226.084C462.474 215.88 453.073 210.951 442.412 210.836L445.278 251.535L415.47 253.254L415.585 253.942C416.617 253.827 417.878 253.713 419.368 253.713C421.432 253.713 423.381 253.827 425.1 254.171C425.215 254.171 425.444 254.286 425.674 254.286C426.018 254.286 426.247 254.401 426.591 254.515C430.603 255.547 434.043 258.299 435.648 261.738C439.546 269.075 436.794 278.017 429.572 281.915C427.393 283.062 424.986 283.635 422.578 283.635C417.075 283.635 412.031 280.654 409.509 275.839C408.706 274.463 408.248 272.973 408.018 271.368L393.344 271.253Z" fill="#434244"/>
<path d="M366.632 267.355C368.351 249.586 355.053 237.089 336.022 235.14L325.589 234.338C312.405 233.306 299.68 229.867 286.725 227.115L232.727 214.161L216.219 281.113L285.464 295.902L337.053 298.539C356.084 300.488 364.912 285.125 366.632 267.355Z" fill="#EFB81C"/>
<path d="M341.984 234.338L307.82 234.453H307.591C306.445 233.535 305.069 232.848 303.579 232.504L241.671 218.517C236.283 217.371 231.009 220.695 229.863 226.084C228.716 231.472 232.041 236.745 237.429 237.892L299.337 251.878C300.254 252.108 301.056 252.108 301.974 252.108C303.693 253.484 305.871 254.286 308.279 254.286L342.443 254.171C344.048 254.171 345.538 253.713 346.914 253.025C350.124 251.305 352.302 247.981 352.188 244.083C351.958 238.58 347.373 234.223 341.984 234.338Z" fill="#F9D658"/>
<path d="M185.495 203.728L127.027 189.283C124.619 188.824 122.212 188.366 119.689 188.366C102.837 188.022 87.4744 198.684 82.0861 214.963L62.0234 279.049L102.837 277.329L116.135 235.828C117.74 230.899 122.785 227.803 127.944 228.491L180.909 242.134L185.495 203.728Z" fill="#F9E1BB"/>
<path d="M57.7812 280.425L79.105 214.046C85.1812 195.818 102.722 184.009 122.097 185.5C123.816 185.614 125.536 185.958 127.026 186.302L188.705 201.55L183.202 245.917L127.141 231.472C123.358 231.013 119.918 233.306 118.772 236.86L104.9 280.425H57.7812ZM118.886 191.346C103.41 191.346 89.7669 201.206 84.8372 215.995L66.0356 274.578L100.543 274.463L113.154 235.026C115.218 228.72 121.523 224.708 128.173 225.625L128.517 225.74L178.157 238.58L182.17 206.25L125.765 192.264C124.504 192.034 123.128 191.69 121.638 191.576C120.721 191.346 119.804 191.346 118.886 191.346Z" fill="#434244"/>
<path d="M148.809 194.442L130.695 261.509L216.334 281.342L232.728 214.275L148.809 194.442Z" fill="#EFB81C"/>
<path d="M197.188 225.74C195.697 226.084 194.207 226.198 192.602 225.854L154.081 217.371C148.693 216.224 145.368 210.836 146.515 205.562C147.661 200.174 153.05 196.849 158.323 197.996L196.844 206.479C202.232 207.626 205.557 213.014 204.41 218.288C203.608 222.071 200.741 224.937 197.188 225.74Z" fill="#F9D658"/>
<path d="M110.286 253.598L101.114 282.488H60.3008L72.6823 243.968L110.286 253.598Z" fill="#E3F3F7"/>
<path d="M110.286 253.598L101.114 282.488H60.3008L72.6823 243.968L110.286 253.598Z" fill="#E3F3F7"/>
<path d="M103.294 285.469H56.1758L70.6209 240.299L113.956 251.42L103.294 285.469ZM64.3155 279.508H98.938L106.504 255.662L74.6335 247.522L64.3155 279.508Z" fill="#434244"/>
<path d="M103.294 285.469H56.1758L70.6209 240.299L113.956 251.42L103.294 285.469ZM64.3155 279.508H98.938L106.504 255.662L74.6335 247.522L64.3155 279.508Z" fill="#434244"/>
<path d="M107.767 286.042L107.423 302.207C107.308 305.761 104.442 308.513 100.888 308.513H41.9611C38.1779 308.513 35.1971 305.417 35.3118 301.749C35.885 288.335 47.0055 277.788 60.5335 277.788H99.5124C104.098 277.788 107.881 281.571 107.767 286.042Z" fill="#F1946B"/>
<path d="M101 311.493H42.0733C39.4365 311.493 36.9143 310.462 35.08 308.513C33.2457 306.678 32.3285 304.156 32.4432 301.519C33.0164 286.501 45.2833 274.693 60.5309 274.693H99.5099C102.605 274.693 105.471 275.839 107.535 278.017C109.599 280.196 110.745 283.062 110.745 286.042L110.401 302.207C110.401 307.481 106.159 311.493 101 311.493ZM60.5309 280.769C48.4933 280.769 38.8632 290.055 38.4047 301.863C38.4047 302.78 38.7486 303.698 39.4365 304.5C40.1243 305.188 41.0415 305.647 42.0733 305.647H101C102.949 305.647 104.44 304.156 104.554 302.207L104.898 286.042C104.898 284.667 104.44 283.291 103.408 282.374C102.376 281.342 101 280.769 99.6245 280.769H60.5309Z" fill="#434244"/>
<path d="M107.777 292.689H39.1056V286.728H107.777V292.689Z" fill="#434244"/>
<path d="M218.513 284.896L127.027 263.687L146.631 190.888L236.398 212.097L218.513 284.896ZM134.365 259.33L214.042 277.788L229.06 216.568L150.873 198.11L134.365 259.33Z" fill="#434244"/>
<path d="M340.148 301.749C339.116 301.749 337.97 301.749 336.823 301.634L284.89 298.997L212.664 283.635L230.549 210.836L233.415 211.524C254.853 216.797 311.946 230.44 318.137 231.013L336.25 232.389C357.803 234.453 371.446 249.012 369.612 267.814C367.548 289.023 356.542 301.749 340.148 301.749ZM285.922 293.036L337.282 295.558C338.314 295.672 339.346 295.672 340.148 295.672C358.95 295.672 362.848 275.61 363.765 267.011C365.255 251.535 354.02 239.841 335.792 238.121L317.793 236.745C310.57 236.172 249.35 221.383 235.02 217.829L220.001 278.934L285.922 293.036Z" fill="#434244"/>
<path d="M290.966 306.564L290.851 276.068L218.625 276.412C216.447 273.661 213.008 271.826 209.225 271.941L198.907 272.285C192.487 272.514 187.442 277.788 187.672 284.208L188.245 303.927C188.474 310.347 193.748 315.391 200.168 315.162L210.486 314.818C215.53 314.703 219.657 311.379 221.148 306.793L290.966 306.564Z" fill="#F9E1BB"/>
<path d="M199.823 318.028C191.912 318.028 185.492 311.837 185.263 303.812L184.69 284.093C184.46 276.068 190.766 269.304 198.905 269.075L209.567 268.731C213.58 268.731 217.249 270.336 220 273.202L293.831 272.858L294.06 309.315L223.095 309.659C220.688 314.359 215.873 317.455 210.485 317.684L199.823 318.028ZM209.567 274.807H209.338L199.02 275.151C194.32 275.266 190.536 279.278 190.651 283.979L191.224 303.697C191.339 308.398 195.122 312.066 199.823 312.066H200.052L210.37 311.722C214.039 311.608 217.134 309.2 218.28 305.761L218.968 303.697L288.099 303.353L287.984 278.82L217.249 279.164L216.331 278.017C214.726 275.954 212.204 274.807 209.567 274.807Z" fill="#434244"/>
<path d="M338.888 305.073L282.598 304.615L282.942 255.088L339.232 255.547C352.874 255.662 363.88 266.782 363.766 280.539C363.766 294.182 352.53 305.188 338.888 305.073Z" fill="#EFB81C"/>
<path d="M339.117 308.054H338.888L279.617 307.595L280.076 252.108L339.347 252.566C354.594 252.681 366.976 265.177 366.861 280.539C366.747 295.672 354.25 308.054 339.117 308.054ZM285.579 301.634L339.003 302.092C350.926 302.092 360.671 292.462 360.785 280.539C360.9 268.502 351.155 258.642 339.232 258.642L285.923 258.184L285.579 301.634Z" fill="#434244"/>
<path d="M500.65 323.645H11.3495C6.76372 323.645 2.98047 319.862 2.98047 315.277C2.98047 310.691 6.76372 306.907 11.3495 306.907H500.65C505.236 306.907 509.019 310.691 509.019 315.277C509.019 319.977 505.236 323.645 500.65 323.645Z" fill="#57C0EE"/>
<path d="M500.65 326.626H11.3498C5.04433 326.626 0 321.582 0 315.277C0 308.971 5.04433 303.927 11.3498 303.927H500.65C506.956 303.927 512 308.971 512 315.277C512 321.582 506.956 326.626 500.65 326.626ZM11.3498 309.888C8.36901 309.888 5.96149 312.296 5.96149 315.277C5.96149 318.257 8.36901 320.665 11.3498 320.665H500.65C503.631 320.665 506.039 318.257 506.039 315.277C506.039 312.296 503.631 309.888 500.65 309.888H11.3498Z" fill="#434244"/>
</svg>
