<svg width="512" height="512" viewBox="0 0 512 512" fill="none" xmlns="http://www.w3.org/2000/svg">
<g clip-path="url(#clip0_801_906)">
<path d="M273.037 357.838C273.037 357.838 177.922 342.877 143.723 327.914L273.037 357.838Z" fill="#425A6B"/>
<path d="M273.038 357.838C273.038 357.838 177.923 342.877 143.724 327.914L273.038 357.838ZM155.48 31.882C152.274 35.0881 152.274 37.2252 153.343 41.5004C154.412 45.7756 156.549 48.9817 157.618 53.2559C159.755 60.7372 159.755 68.2175 160.824 75.6988C160.824 97.0727 161.893 119.516 156.549 140.89C153.343 153.715 149.068 165.47 145.862 178.295C140.519 198.601 140.519 221.044 144.793 241.349C142.656 237.073 138.38 233.867 135.174 230.661C124.487 221.043 119.144 207.149 117.007 192.188C114.869 178.294 117.007 163.332 115.938 148.371C115.938 144.096 115.938 138.752 117.007 134.477C118.076 130.202 120.213 125.928 122.35 121.653C130.899 103.485 136.243 84.2481 136.243 63.9423C136.243 56.461 136.243 48.9807 138.38 41.4994C140.518 34.0181 146.93 25.4688 154.411 25.4688L155.48 31.882Z" fill="#425A6B"/>
<path d="M345.711 376.007C345.711 376.007 345.711 393.107 348.917 406.999C352.123 421.961 354.26 463.64 352.123 471.122C349.986 478.603 345.711 491.428 349.986 496.771C354.261 502.114 362.811 499.977 367.086 499.977C371.361 499.977 397.01 499.977 404.49 501.046C411.971 502.115 424.796 503.183 428.002 502.115C428.002 502.115 435.484 504.252 437.621 502.115C437.621 502.115 441.896 504.252 442.964 501.046C442.964 501.046 447.239 503.183 448.307 498.909C448.307 498.909 452.582 498.909 449.376 492.497H442.964C442.964 492.497 438.689 490.36 436.552 490.36C434.415 490.36 400.215 472.192 398.078 470.054C395.941 468.985 388.46 459.366 388.46 450.817C388.46 441.199 391.666 358.908 391.666 358.908L345.711 376.007Z" fill="#F5B54C"/>
<path d="M346.781 384.556C346.781 384.556 346.781 400.587 351.056 415.549C355.332 430.51 358.538 472.19 356.4 479.671C354.262 487.153 351.056 499.977 355.331 504.251C359.606 509.595 368.155 507.457 372.43 507.457C376.705 507.457 402.355 507.457 409.835 508.526C417.315 509.596 430.141 510.664 433.347 509.596C433.347 509.596 440.828 511.733 442.965 509.596C442.965 509.596 447.24 511.733 448.308 508.526C448.308 508.526 452.584 510.664 453.652 506.389C453.652 506.389 457.927 506.389 454.721 499.977H448.308C448.308 499.977 444.033 497.84 441.896 497.84C439.759 497.84 405.56 479.672 402.354 477.534C400.216 476.465 391.666 466.847 391.666 458.297V366.389L346.781 384.556Z" fill="#FFD15C"/>
<path d="M403.423 338.601C400.217 328.983 395.942 317.228 392.736 308.677C386.323 291.578 376.705 281.959 366.017 279.822C355.33 277.685 309.376 281.959 286.933 285.165C265.559 288.371 235.635 296.921 235.635 296.921L232.429 291.578L205.711 330.051L403.423 338.601Z" fill="#344A5E"/>
<path d="M226.017 12.6452C226.017 12.6452 233.498 16.9204 235.635 21.1945C237.772 25.4697 240.978 38.2942 240.978 43.6375C240.978 50.0497 238.841 50.0497 239.909 53.2558C240.978 56.462 247.391 67.1494 247.391 67.1494C247.391 67.1494 249.528 71.4246 245.254 71.4246L239.91 72.4936C239.91 72.4936 238.841 75.6998 238.841 77.8369C238.841 81.043 237.772 79.9739 236.704 78.9059C236.704 78.9059 238.841 81.043 237.773 83.1811C235.636 85.3182 234.567 88.5243 232.43 92.7995C229.224 98.1427 213.193 91.7304 213.193 91.7304C213.193 91.7304 202.506 100.28 201.438 104.555C200.369 108.83 202.507 114.173 202.507 114.173C202.507 114.173 217.469 124.861 219.607 138.753L195.027 179.364L143.729 192.189C143.729 192.189 140.522 166.539 139.453 159.058C138.384 151.577 138.384 136.615 138.384 136.615C138.384 136.615 125.56 133.409 122.354 131.272C119.148 129.135 115.941 119.517 115.941 119.517C115.941 119.517 131.972 97.0736 148.003 102.417C148.003 102.417 149.072 96.0046 160.827 97.0736C160.827 97.0736 171.515 76.7678 168.309 59.6691C164.033 41.5014 178.996 21.1955 178.996 21.1955C178.996 21.1955 217.468 8.37001 226.017 12.6452Z" fill="#FFD15C"/>
<path d="M221.74 36.1571C221.74 36.1571 222.809 37.2262 221.74 38.2942H220.67C217.464 39.3633 215.327 42.5694 214.258 45.7755C213.189 50.0507 211.052 53.2568 206.777 53.2568C203.571 53.2568 200.365 51.1197 199.296 47.9136C199.296 46.8446 198.227 45.7765 198.227 44.7075C197.158 41.5014 192.883 39.3643 188.608 40.4323C184.333 41.5004 182.196 44.7075 181.127 48.9817C180.058 53.2568 180.058 56.463 180.058 60.7371V63.9433C178.989 67.1494 176.852 68.2184 173.646 69.2865C170.439 70.3555 166.164 72.4926 165.096 69.2865C155.478 54.3249 161.89 35.0881 161.89 35.0881C161.89 32.951 156.547 31.882 156.547 31.882V25.4697H157.616C160.822 24.4007 165.097 22.2636 165.097 22.2636C170.44 7.30196 191.815 0.889699 191.815 0.889699C220.67 -4.45352 234.564 15.8513 236.701 20.1265V21.1955C235.633 20.1265 213.19 20.1265 221.74 36.1571Z" fill="#425A6B"/>
<path d="M67.8459 108.829C64.6397 108.829 62.5027 114.172 63.5707 120.584C63.5707 126.997 66.7768 131.272 69.983 131.272L95.632 129.135C98.8381 129.135 100.975 123.792 99.9072 117.379C99.9072 110.967 96.7011 106.692 93.4949 106.692L67.8459 108.829Z" fill="#56BFEB"/>
<path d="M99.9281 118.072C99.4781 111.595 96.7269 106.511 93.783 106.715C90.8391 106.92 88.8174 112.336 89.2673 118.813C89.7173 125.29 92.4685 130.374 95.4124 130.17C98.3563 129.965 100.378 124.549 99.9281 118.072Z" fill="#8AD6F7"/>
<path d="M99.9062 117.378C99.9062 120.584 99.9062 122.722 98.8371 124.86C98.8371 128.066 96.7001 129.135 95.631 129.135C93.4939 129.135 92.4249 128.066 91.3558 125.929C90.2868 123.792 89.2188 121.654 89.2188 118.447C89.2188 115.241 89.2188 113.104 90.2878 110.966C90.2878 108.829 92.4249 106.691 93.4939 106.691C95.631 106.691 96.7001 107.76 97.7691 109.897C98.8381 112.034 99.9062 115.241 99.9062 117.378Z" fill="#8AD6F7"/>
<path d="M144.793 114.172C144.793 118.448 141.587 121.654 137.312 121.654L93.4952 124.86C92.4262 124.86 92.4262 123.791 91.3581 122.723C90.2891 121.654 90.2891 119.517 90.2891 117.38C90.2891 115.242 90.2891 113.104 91.3581 112.036C91.3581 110.967 92.4272 109.899 92.4272 109.899L136.244 106.693C140.519 107.76 144.793 109.898 144.793 114.172Z" fill="#425A6B"/>
<path d="M136.244 103.486C133.038 103.486 130.901 108.829 131.969 115.241C131.969 121.654 135.175 125.929 138.381 125.929L164.03 123.792C167.237 123.792 169.374 118.449 168.306 112.036C168.306 105.624 165.099 101.349 161.893 101.349L136.244 103.486Z" fill="#56BFEB"/>
<path d="M168.284 112.727C167.834 106.25 165.082 101.166 162.138 101.37C159.195 101.575 157.173 106.991 157.623 113.468C158.073 119.944 160.824 125.029 163.768 124.825C166.712 124.62 168.733 119.204 168.284 112.727Z" fill="#8AD6F7"/>
<path d="M167.226 112.874C166.98 109.341 165.35 106.577 163.583 106.699C161.817 106.822 160.584 109.786 160.829 113.318C161.074 116.851 162.705 119.616 164.472 119.493C166.238 119.37 167.471 116.407 167.226 112.874Z" fill="#E8EAE8"/>
<path d="M167.235 134.478C166.166 135.547 146.93 154.784 138.38 169.745C137.311 165.47 137.311 162.264 137.311 160.127C136.242 152.646 136.242 137.684 136.242 137.684C136.242 137.684 149.068 148.372 167.235 134.478Z" fill="#F5B54C"/>
<path d="M124.488 96.0045C124.488 96.0045 137.313 93.8674 133.037 103.486C129.831 112.035 128.762 114.173 128.762 114.173C128.762 114.173 126.625 125.929 126.625 128.067C126.625 128.067 123.419 134.479 120.213 128.067C120.213 128.067 121.282 132.342 117.007 132.342C112.732 132.342 111.663 128.067 111.663 128.067C111.663 128.067 113.801 133.41 109.526 132.342C105.251 132.342 103.114 128.067 103.114 128.067C103.114 128.067 103.114 132.342 100.977 131.273C98.8399 131.273 96.7019 128.067 96.7019 125.93C96.7019 124.861 95.6328 121.655 95.6328 119.517V113.105L96.7019 102.418C96.7019 102.418 97.7709 94.9364 104.183 96.0055C104.183 96.0055 110.595 91.7303 113.802 93.8684C113.801 94.9354 119.144 89.5922 124.488 96.0045Z" fill="#FFD15C"/>
<path d="M121.281 128.066V126.997C121.281 125.928 121.281 124.86 120.212 123.791C120.212 122.722 120.212 120.585 119.143 119.516V114.171C119.143 112.034 120.212 110.965 120.212 108.828C120.212 106.691 121.281 105.622 121.281 104.553C121.281 103.484 122.35 102.416 122.35 101.347C122.35 102.416 122.35 103.484 121.281 104.553C121.281 105.622 120.212 107.759 120.212 108.828C120.212 110.965 119.143 112.034 119.143 114.171V125.928C121.281 126.997 121.281 128.066 121.281 128.066ZM112.731 128.066V126.997C112.731 125.928 112.731 124.86 111.662 123.791C111.662 122.722 110.593 120.585 110.593 119.516V115.24C110.593 113.103 111.662 112.034 111.662 109.897C111.662 107.76 112.731 106.691 112.731 105.622C112.731 104.553 113.8 103.485 113.8 102.416V101.347V105.622C113.8 106.691 113.8 108.828 112.731 109.897C112.731 112.034 111.662 113.103 111.662 115.24V119.516C111.662 121.653 111.662 122.722 112.731 123.791V128.066ZM104.181 128.066C104.181 126.997 103.112 126.997 103.112 125.929C103.112 124.861 102.043 124.86 102.043 123.792C100.974 122.723 100.974 120.586 99.9062 119.517C100.975 117.38 100.975 114.173 102.043 112.035C102.043 110.966 103.112 109.898 103.112 107.76C103.112 106.691 103.112 106.691 104.181 105.623C104.181 104.554 104.181 104.554 105.25 103.486V107.76C105.25 108.828 105.25 109.897 104.181 112.035C104.181 114.172 103.112 117.379 102.044 119.517C102.044 120.586 103.113 122.723 103.113 124.86C103.113 125.929 103.113 126.997 104.182 126.997C104.181 125.929 104.181 126.997 104.181 128.066Z" fill="#F5B54C"/>
<path d="M147.998 174.021L141.586 193.258C141.586 193.258 147.998 226.388 149.067 232.8C150.136 239.213 155.479 284.098 151.204 294.786C146.929 305.473 151.204 312.954 151.204 312.954L236.701 294.786C236.701 294.786 233.495 270.206 231.358 261.655C229.22 253.106 232.427 243.488 232.427 243.488C232.427 243.488 237.77 214.633 234.564 200.739C234.564 200.739 244.182 180.433 228.151 152.647C219.602 137.685 212.121 129.135 207.846 123.792C204.64 120.586 200.364 120.586 197.158 123.792L180.059 147.304L147.998 174.021Z" fill="#FFD15C"/>
<path d="M205.71 99.2107C208.916 96.0046 212.122 93.8675 212.122 93.8675C203.573 88.5243 197.161 81.043 191.816 72.4937C195.024 83.1801 199.298 91.7294 205.71 99.2107Z" fill="#F5B54C"/>
<path d="M235.636 199.67C235.636 201.807 236.705 205.013 236.705 208.219C223.881 209.288 200.369 213.562 185.407 217.838C168.307 223.181 148.002 224.25 148.002 224.25C145.865 212.494 141.59 193.258 141.59 193.258C141.59 193.258 140.521 186.845 139.453 179.364C142.659 182.57 149.072 183.639 164.033 180.433C178.995 177.227 200.37 154.784 199.301 140.89C198.232 126.997 177.927 108.829 177.927 108.829C177.927 108.829 195.026 118.447 202.507 123.791C209.988 129.134 216.4 135.546 220.674 141.958C222.812 145.165 224.95 148.371 228.156 152.646C245.254 179.364 235.636 199.67 235.636 199.67Z" fill="#F3F3F3"/>
<path d="M152.276 290.51C152.276 290.51 166.17 276.616 195.025 276.616C223.88 276.616 234.568 280.891 234.568 280.891C234.568 280.891 236.705 290.51 235.637 296.922V300.128C235.637 300.128 265.561 291.579 286.935 288.372C308.309 285.166 355.333 280.891 366.019 283.029C376.706 285.166 386.325 295.854 392.737 311.884C399.149 328.984 409.837 355.701 413.043 357.839C413.043 357.839 401.287 371.733 392.737 376.007C384.188 380.282 359.607 396.313 344.645 389.901C344.645 389.901 340.37 354.633 340.37 342.878L273.041 356.771C273.041 356.771 175.788 343.947 141.59 330.053C141.589 331.121 146.933 295.854 152.276 290.51Z" fill="#425A6B"/>
<path d="M325.406 419.824C325.406 448.679 315.787 475.397 299.757 496.771C294.414 504.252 285.863 509.595 276.245 509.595C220.672 512.802 164.03 512.802 106.32 509.595C96.7015 508.526 88.1522 504.252 82.8079 496.771C66.7773 474.328 56.0898 446.542 56.0898 416.618C56.0898 389.9 63.5712 364.25 77.4637 343.946C88.1512 326.846 110.594 319.366 129.831 325.778C178.992 340.74 243.114 353.564 286.931 359.976C307.237 363.182 322.199 379.213 325.405 399.519C324.337 405.93 325.406 413.411 325.406 419.824ZM153.344 37.2251C155.481 36.1561 156.55 35.0881 157.619 32.95C156.55 29.7438 156.55 27.6068 157.619 24.4006C153.344 22.2635 150.138 24.4006 146.932 28.6758C150.138 29.7448 152.275 32.951 153.344 37.2251Z" fill="#F26F5A"/>
</g>
<defs>
<clipPath id="clip0_801_906">
<rect width="512" height="512" fill="white"/>
</clipPath>
</defs>
</svg>
