<svg width="512" height="512" viewBox="0 0 512 512" fill="none" xmlns="http://www.w3.org/2000/svg">
<g clip-path="url(#clip0_801_1072)">
<path d="M256 512C397.385 512 512 397.385 512 256C512 114.615 397.385 0 256 0C114.615 0 0 114.615 0 256C0 397.385 114.615 512 256 512Z" fill="#94F7F0"/>
<path d="M512 256C512 251.576 511.888 247.179 511.666 242.81L365.264 96.408L325.53 139.532L303.067 153.794L246.067 96.408L186.468 136.408L146.736 96.408L133.693 265.341L196.401 328.056L221.642 391.35L331.089 500.799C435.831 468.709 512 371.254 512 256Z" fill="#5CE0D7"/>
<path d="M325.532 96.408V331.16C325.532 355.846 305.52 375.859 280.833 375.859L260.967 395.725L280.833 415.591C327.463 415.591 365.264 377.79 365.264 331.16V96.408H325.532Z" fill="#FFC40F"/>
<path d="M146.736 96.408H107.004V170.428L126.87 190.295L146.736 170.428V96.408Z" fill="#46C7C2"/>
<path d="M236.134 331.161V211.567L243.409 188.027C245.171 182.327 246.067 176.394 246.067 170.428V96.408H186.468V170.428C186.468 176.394 187.364 182.327 189.126 188.027L196.401 211.567V251.299C168.971 251.299 146.736 229.063 146.736 201.634V170.428H107.004V201.634C107.004 251.007 147.029 291.032 196.402 291.032V331.161C196.402 377.791 234.203 415.592 280.833 415.592V375.86C256.146 375.859 236.134 355.847 236.134 331.161Z" fill="#FFD959"/>
<path d="M365.266 139.532H325.53C302.383 147.714 285.799 169.79 285.799 195.739C285.799 221.688 302.383 243.764 325.53 251.946H365.265C388.412 243.764 404.996 221.688 404.996 195.739C404.996 169.79 388.413 147.714 365.266 139.532Z" fill="#FFF7E0"/>
<path d="M325.531 251.942C331.912 254.196 338.63 255.344 345.397 255.338C352.164 255.344 358.883 254.196 365.263 251.942V139.537C359.049 137.34 352.363 136.141 345.397 136.141C338.431 136.141 331.745 137.34 325.531 139.537V251.942Z" fill="#FFEAA6"/>
</g>
<defs>
<clipPath id="clip0_801_1072">
<rect width="512" height="512" fill="white"/>
</clipPath>
</defs>
</svg>
