<svg width="512" height="512" viewBox="0 0 512 512" fill="none" xmlns="http://www.w3.org/2000/svg">
<path d="M255.998 308.566C255.959 314.411 253.665 320.016 249.596 324.212C245.526 328.409 239.995 330.874 234.153 331.094C231.24 331.116 228.35 330.564 225.65 329.47C222.949 328.376 220.491 326.76 218.415 324.716C216.339 322.672 214.685 320.238 213.55 317.555C212.414 314.872 211.818 311.991 211.796 309.078L210.942 243.883L149.502 357.547C147.622 361.075 144.819 364.025 141.392 366.084C137.965 368.143 134.044 369.233 130.046 369.238C126.114 369.119 122.281 367.977 118.926 365.925C115.57 363.872 112.808 360.979 110.912 357.532C109.016 354.085 108.052 350.204 108.116 346.27C108.179 342.337 109.267 338.488 111.273 335.104L95.7425 359.595C93.86 363.114 91.054 366.055 87.6261 368.099C84.1982 370.144 80.2779 371.216 76.2865 371.2C72.348 371.059 68.5142 369.894 65.1625 367.821C61.8107 365.748 59.0565 362.838 57.1708 359.377C55.2851 355.917 54.3328 352.025 54.4078 348.084C54.4828 344.144 55.5824 340.291 57.5985 336.905L66.7291 320C64.761 323.503 61.8814 326.407 58.3958 328.405C54.9103 330.404 50.9488 331.421 46.9318 331.35C42.989 331.238 39.1443 330.095 35.7809 328.034C32.4175 325.974 29.6527 323.068 27.7622 319.606C25.8716 316.145 24.9212 312.248 25.0057 308.304C25.0902 304.361 26.2066 300.508 28.2438 297.131L49.0651 258.39C47.1424 261.552 44.4351 264.165 41.2058 265.974C37.9765 267.783 34.3346 268.727 30.6331 268.715C26.7169 268.597 22.8983 267.465 19.5501 265.43C16.2019 263.396 13.4386 260.527 11.53 257.106C9.62146 253.684 8.63285 249.826 8.66073 245.908C8.68861 241.99 9.73204 238.146 11.6891 234.752L69.7158 126.55C71.1835 123.623 100.385 97.229 116.88 82.4492C124.099 75.992 128.892 67.2599 130.465 57.7026L136.532 21.3335H238.932C238.932 45.8583 239.973 177.493 243.966 193.792C243.966 193.792 254.974 230.4 255.06 235.008L255.998 308.566ZM255.998 308.566C256.038 314.411 258.332 320.016 262.401 324.212C266.471 328.409 272.002 330.874 277.844 331.094C280.757 331.116 283.647 330.564 286.347 329.47C289.048 328.376 291.506 326.76 293.582 324.716C295.658 322.672 297.311 320.238 298.447 317.555C299.583 314.872 300.179 311.991 300.201 309.078L301.054 243.883L362.494 357.547C364.375 361.075 367.178 364.025 370.605 366.084C374.031 368.143 377.953 369.233 381.95 369.238C385.882 369.119 389.716 367.977 393.071 365.925C396.427 363.872 399.189 360.979 401.085 357.532C402.981 354.085 403.945 350.204 403.881 346.27C403.818 342.337 402.73 338.488 400.724 335.104L416.254 359.595C418.137 363.114 420.943 366.055 424.371 368.099C427.799 370.144 431.719 371.216 435.71 371.2C439.649 371.059 443.483 369.894 446.834 367.821C450.186 365.748 452.94 362.838 454.826 359.377C456.712 355.917 457.664 352.025 457.589 348.084C457.514 344.144 456.414 340.291 454.398 336.905L445.268 320C447.236 323.503 450.116 326.407 453.601 328.405C457.087 330.404 461.048 331.421 465.065 331.35C469.008 331.238 472.853 330.095 476.216 328.034C479.579 325.974 482.344 323.068 484.235 319.606C486.125 316.145 487.076 312.248 486.991 308.304C486.907 304.361 485.79 300.508 483.753 297.131L462.932 258.39C464.855 261.552 467.562 264.165 470.791 265.974C474.02 267.783 477.662 268.727 481.364 268.715C485.28 268.597 489.099 267.465 492.447 265.43C495.795 263.396 498.558 260.527 500.467 257.106C502.375 253.684 503.364 249.826 503.336 245.908C503.308 241.99 502.265 238.146 500.308 234.752L442.281 126.55C440.813 123.623 411.604 97.2204 395.1 82.4407C387.891 75.977 383.102 67.2475 381.524 57.694L375.465 21.3335H273.065C273.065 45.8583 272.024 177.493 268.03 193.792C268.03 193.792 257.022 230.4 256.937 235.008L255.998 308.566Z" fill="#FFE0B2"/>
<path d="M490.92 266.496C488.283 267.793 485.41 268.537 482.475 268.684C479.54 268.831 476.606 268.377 473.854 267.35C478.393 260.054 478.718 250.889 474.707 243.286L416.68 135.083C415.23 132.182 386.046 105.728 369.491 90.9655C362.317 84.4751 357.537 75.7577 355.923 66.2188C348.806 23.5095 349.864 32.6914 349.864 21.3335H375.464L381.523 57.7026C383.144 67.2428 387.923 75.9639 395.099 82.4492C411.654 97.2119 440.83 123.657 442.28 126.558L500.307 234.761C501.791 237.457 502.725 240.421 503.056 243.481C503.387 246.541 503.108 249.636 502.235 252.587C501.362 255.538 499.913 258.287 497.971 260.675C496.028 263.062 493.632 265.041 490.92 266.496Z" fill="#DFC49C"/>
<path d="M219.365 373.7C217.765 372.101 215.595 371.202 213.332 371.202C211.069 371.202 208.899 372.101 207.299 373.7C206.497 374.511 125.532 453.538 21.5367 389.53C19.6189 388.486 17.3741 388.217 15.2642 388.779C13.1543 389.34 11.3397 390.689 10.194 392.547C9.0483 394.406 8.65852 396.633 9.10491 398.77C9.55129 400.907 10.7999 402.792 12.5937 404.036C39.8544 421.641 71.5288 431.197 103.977 431.608C146.699 430.659 187.654 414.377 219.365 385.732C220.954 384.134 221.846 381.971 221.846 379.716C221.846 377.462 220.954 375.299 219.365 373.7ZM183.917 464.597C182.945 465.084 86.2876 512.316 23.0983 449.135C21.4889 447.581 19.3333 446.72 17.0959 446.74C14.8585 446.759 12.7182 447.657 11.1361 449.239C9.55392 450.821 8.65648 452.961 8.63704 455.199C8.6176 457.436 9.47771 459.592 11.0321 461.201C23.5573 473.604 38.4645 483.343 54.855 489.83C71.2454 496.316 88.7797 499.417 106.401 498.944C135.791 498.496 164.775 492.001 191.546 479.864C192.558 479.368 193.461 478.677 194.204 477.831C194.947 476.985 195.515 476 195.876 474.933C196.236 473.866 196.382 472.738 196.305 471.614C196.227 470.491 195.928 469.394 195.425 468.386C194.921 467.379 194.223 466.481 193.371 465.745C192.519 465.008 191.53 464.448 190.46 464.095C189.39 463.743 188.262 463.606 187.139 463.692C186.016 463.779 184.921 464.086 183.917 464.597ZM499.403 404.07C501.197 402.826 502.446 400.941 502.892 398.804C503.339 396.667 502.949 394.44 501.803 392.581C500.657 390.723 498.843 389.374 496.733 388.813C494.623 388.251 492.378 388.52 490.46 389.564C462.252 408.277 428.543 416.896 394.815 414.021C361.087 411.145 329.323 396.944 304.69 373.726C303.079 372.173 300.923 371.314 298.686 371.335C296.448 371.356 294.309 372.255 292.728 373.838C291.147 375.422 290.251 377.562 290.233 379.8C290.215 382.037 291.077 384.192 292.632 385.801C324.34 414.449 365.297 430.732 408.02 431.676C440.472 431.256 472.146 421.687 499.403 404.07ZM320.451 479.864C347.222 492.002 376.206 498.497 405.596 498.944C423.217 499.417 440.752 496.316 457.142 489.83C473.533 483.343 488.44 473.604 500.965 461.201C502.519 459.592 503.379 457.436 503.36 455.199C503.341 452.961 502.443 450.821 500.861 449.239C499.279 447.657 497.139 446.759 494.901 446.74C492.664 446.72 490.508 447.581 488.899 449.135C425.872 512.154 329.052 465.067 328.071 464.597C326.054 463.647 323.745 463.523 321.638 464.254C319.531 464.984 317.794 466.51 316.798 468.505C315.802 470.5 315.627 472.806 316.309 474.929C316.992 477.052 318.479 478.823 320.451 479.864Z" fill="black"/>
<path d="M507.826 230.716L449.919 122.735C448.903 120.713 447.512 117.931 400.809 76.0918C395.062 70.919 391.241 63.9479 389.972 56.3201L383.879 19.9254C383.546 17.9344 382.518 16.126 380.978 14.8214C379.437 13.5168 377.484 12.8006 375.465 12.8H273.065C270.802 12.8 268.632 13.6991 267.031 15.2994C265.431 16.8997 264.532 19.0702 264.532 21.3334C264.532 44.8427 263.295 177.203 259.864 191.334C258.601 195.533 257.304 199.987 255.999 204.399C254.753 200.132 253.439 195.797 252.253 191.77C248.6 176.819 247.465 47.727 247.465 21.3334C247.465 19.0702 246.566 16.8997 244.966 15.2994C243.366 13.6991 241.195 12.8 238.932 12.8H136.532C134.513 12.8006 132.56 13.5168 131.02 14.8214C129.479 16.126 128.451 17.9344 128.118 19.9254L122.025 56.3201C120.757 63.9479 116.936 70.919 111.188 76.0918C64.485 117.905 63.0941 120.713 62.1981 122.513L4.15437 230.75C1.56613 235.345 0.184323 240.521 0.137927 245.795C0.0915308 251.068 1.38206 256.268 3.88905 260.908C6.39604 265.547 10.0378 269.477 14.4743 272.328C18.9108 275.179 23.9974 276.86 29.2594 277.214L20.7688 293.018C18.0043 297.72 16.5253 303.067 16.48 308.522C16.4348 313.977 17.8249 319.348 20.511 324.096C23.197 328.844 27.0845 332.802 31.7833 335.573C36.4821 338.343 41.8271 339.83 47.2818 339.883C45.8993 344.454 45.5947 349.282 46.3918 353.991C47.189 358.699 49.0663 363.158 51.8764 367.019C54.6865 370.88 58.353 374.038 62.5882 376.243C66.8234 378.449 71.5122 379.644 76.2866 379.733C81.7214 379.788 87.0696 378.369 91.7632 375.629C96.4568 372.889 100.321 368.928 102.945 364.169L103.943 362.59C106.653 367.282 110.571 371.162 115.289 373.826C120.007 376.491 125.352 377.843 130.769 377.742C136.187 377.641 141.478 376.09 146.093 373.252C150.708 370.413 154.479 366.39 157.012 361.6L202.836 276.821L203.263 309.188C203.291 315.29 205.148 321.243 208.592 326.279C212.036 331.316 216.91 335.205 222.586 337.445C228.262 339.684 234.478 340.173 240.434 338.846C246.389 337.519 251.811 334.438 255.999 330.001C260.197 334.417 265.619 337.479 271.569 338.794C277.519 340.108 283.727 339.616 289.395 337.38C295.064 335.144 299.935 331.266 303.385 326.243C306.836 321.22 308.707 315.282 308.76 309.188L309.187 276.821L354.985 361.634C357.529 366.414 361.305 370.426 365.922 373.255C370.538 376.083 375.828 377.625 381.242 377.72C386.655 377.815 391.996 376.459 396.709 373.794C401.422 371.13 405.336 367.252 408.046 362.564L408.694 363.588C410.696 367.363 413.472 370.673 416.84 373.301C420.209 375.929 424.095 377.816 428.243 378.839C432.391 379.862 436.709 379.997 440.913 379.237C445.117 378.476 449.114 376.837 452.641 374.426C457.974 370.62 461.996 365.255 464.156 359.069C466.315 352.883 466.504 346.181 464.698 339.883C470.148 339.833 475.488 338.352 480.185 335.588C484.882 332.825 488.77 328.875 491.459 324.135C494.149 319.396 495.545 314.033 495.509 308.583C495.473 303.134 494.006 297.79 491.254 293.086L482.721 277.214C487.987 276.861 493.077 275.179 497.517 272.325C501.957 269.471 505.6 265.538 508.108 260.894C510.615 256.25 511.904 251.046 511.855 245.769C511.806 240.491 510.42 235.312 507.826 230.716ZM224.425 318.686C221.824 316.116 220.343 312.623 220.304 308.966L219.45 243.772C219.428 241.881 218.778 240.051 217.603 238.57C216.428 237.088 214.794 236.039 212.958 235.587C211.122 235.135 209.188 235.305 207.459 236.072C205.731 236.838 204.306 238.157 203.408 239.821L141.968 353.459C141.072 355.128 139.837 356.59 138.341 357.751C136.846 358.913 135.123 359.747 133.285 360.202C131.446 360.656 129.533 360.72 127.669 360.389C125.804 360.058 124.03 359.34 122.461 358.281C119.865 356.244 118.027 353.397 117.24 350.194C116.452 346.99 116.761 343.615 118.117 340.608C119.184 339.123 126.847 324.523 170.034 242.953C171.094 240.953 171.317 238.614 170.653 236.451C169.988 234.287 168.492 232.476 166.493 231.416C164.493 230.355 162.154 230.133 159.991 230.797C157.827 231.461 156.016 232.957 154.955 234.957C96.0157 346.291 110.531 320.29 88.1565 355.601C87.2574 357.235 86.0288 358.664 84.5485 359.798C83.0682 360.932 81.3685 361.746 79.5571 362.189C77.7457 362.632 75.8621 362.694 74.0255 362.371C72.189 362.047 70.4396 361.346 68.8882 360.312C66.0001 358.109 64.0171 354.926 63.313 351.363C62.6088 347.8 63.2321 344.102 65.0653 340.966C73.7096 324.966 101.409 272.597 125.84 226.441C126.391 225.448 126.739 224.356 126.863 223.228C126.987 222.1 126.885 220.958 126.562 219.87C126.239 218.782 125.703 217.769 124.984 216.89C124.265 216.012 123.378 215.286 122.375 214.755C121.372 214.223 120.273 213.898 119.143 213.796C118.012 213.695 116.873 213.82 115.791 214.165C114.71 214.509 113.708 215.066 112.844 215.802C111.98 216.539 111.272 217.44 110.761 218.453C40.9586 350.31 63.6573 306.5 58.7592 315.733C57.8559 317.345 56.6333 318.755 55.1663 319.878C53.6992 321.001 52.0186 321.813 50.227 322.265C48.4355 322.716 46.5707 322.797 44.7467 322.503C42.9227 322.209 41.1779 321.546 39.6189 320.555C36.6834 318.375 34.6629 315.182 33.9501 311.596C33.2373 308.01 33.883 304.287 35.7618 301.15C68.9821 240.017 42.8189 288.35 93.9592 192.435C95.0251 190.438 95.254 188.099 94.5955 185.933C93.937 183.767 92.445 181.951 90.4477 180.885C88.4504 179.819 86.1115 179.591 83.9455 180.249C81.7795 180.908 79.9638 182.4 78.8978 184.397L41.812 253.935C40.0736 256.714 37.3657 258.749 34.2128 259.646C31.0599 260.543 27.6863 260.238 24.7453 258.79C21.3882 256.842 18.9293 253.655 17.897 249.913C16.8646 246.171 17.3412 242.174 19.2242 238.78L76.9949 131.046C79.3757 128.23 92.4829 115.78 122.589 88.815C131.232 81.0485 136.984 70.5791 138.904 59.119L143.76 29.8667H230.399C230.399 49.6043 231.098 179.021 235.792 196.267C240.272 212.668 246.194 232.175 246.527 235.136L247.465 308.693C247.517 311.384 246.768 314.03 245.313 316.294C243.858 318.558 241.762 320.338 239.293 321.409C236.824 322.48 234.093 322.793 231.445 322.308C228.798 321.823 226.355 320.562 224.425 318.686ZM487.252 258.79C484.316 260.266 480.933 260.586 477.773 259.687C474.613 258.788 471.905 256.735 470.185 253.935L433.099 184.414C432.572 183.425 431.854 182.55 430.988 181.838C430.122 181.126 429.124 180.592 428.052 180.266C426.979 179.94 425.853 179.828 424.737 179.938C423.622 180.047 422.539 180.375 421.55 180.902C420.561 181.43 419.685 182.148 418.974 183.014C418.262 183.88 417.728 184.878 417.402 185.95C417.076 187.023 416.964 188.149 417.073 189.265C417.182 190.38 417.51 191.463 418.038 192.452C470.407 290.645 442.273 238.66 476.27 301.235C480.118 307.721 478.454 316.058 472.404 320.555C470.847 321.556 469.1 322.227 467.273 322.528C465.446 322.828 463.577 322.75 461.781 322.3C459.985 321.85 458.301 321.037 456.831 319.91C455.362 318.784 454.139 317.368 453.238 315.75C448.34 306.492 471.482 351.096 401.185 218.47C400.674 217.457 399.966 216.556 399.102 215.819C398.238 215.083 397.236 214.526 396.155 214.182C395.073 213.837 393.934 213.712 392.803 213.813C391.673 213.915 390.574 214.241 389.571 214.772C388.568 215.303 387.681 216.029 386.962 216.908C386.243 217.786 385.707 218.799 385.384 219.887C385.061 220.975 384.959 222.117 385.083 223.245C385.207 224.373 385.555 225.466 386.106 226.458C413.908 278.98 438.288 325.069 446.881 340.984C450.678 347.469 449.031 355.772 443.058 360.329C441.459 361.405 439.648 362.126 437.747 362.442C435.846 362.758 433.899 362.662 432.038 362.16C430.177 361.659 428.445 360.763 426.96 359.534C425.476 358.306 424.272 356.772 423.431 355.038C400.579 319.019 416.203 346.761 356.965 234.974C356.44 233.984 355.725 233.107 354.861 232.393C353.997 231.679 353.001 231.143 351.93 230.814C350.859 230.485 349.733 230.37 348.617 230.477C347.502 230.583 346.418 230.908 345.428 231.433C344.438 231.958 343.561 232.672 342.847 233.536C342.133 234.4 341.597 235.396 341.268 236.468C340.939 237.539 340.824 238.665 340.931 239.78C341.037 240.896 341.362 241.98 341.887 242.97C385.074 324.54 392.737 339.14 393.803 340.625C396.594 346.812 394.802 354.108 389.451 358.298C387.884 359.352 386.113 360.067 384.253 360.397C382.392 360.726 380.484 360.663 378.649 360.212C376.815 359.76 375.095 358.93 373.6 357.774C372.105 356.619 370.869 355.164 369.97 353.502L308.564 239.787C307.666 238.123 306.241 236.804 304.512 236.038C302.784 235.271 300.849 235.101 299.013 235.553C297.177 236.005 295.544 237.054 294.369 238.536C293.193 240.017 292.544 241.847 292.521 243.738L291.668 308.924C291.63 312.583 290.149 316.079 287.546 318.652C285.617 320.518 283.177 321.771 280.536 322.251C277.895 322.732 275.171 322.418 272.707 321.351C270.244 320.283 268.153 318.509 266.698 316.253C265.243 313.997 264.489 311.361 264.532 308.676L265.454 235.46C265.803 232.158 271.734 212.659 276.317 195.814C280.899 178.97 281.599 50.5003 281.599 29.8667H368.238L373.11 59.119C375.03 70.5793 380.79 81.0497 389.426 88.815C420.385 116.548 433.373 128.922 434.763 130.628L492.79 238.797C496.698 245.854 494.241 254.754 487.252 258.79Z" fill="black"/>
</svg>
