<svg width="512" height="512" viewBox="0 0 512 512" fill="none" xmlns="http://www.w3.org/2000/svg">
<g clip-path="url(#clip0_801_1107)">
<path d="M256 449.647C359.493 449.647 443.391 365.749 443.391 262.256C443.391 158.763 359.493 74.8654 256 74.8654C152.507 74.8654 68.6094 158.763 68.6094 262.256C68.6094 365.749 152.507 449.647 256 449.647Z" fill="#AFB0CC"/>
<path d="M332.626 428.877C328.038 430.498 323.541 431.631 321.616 432.088C313.473 449.337 302.848 457.073 301.506 458.001C300.361 458.794 298.354 460.903 296.232 463.137C292.963 466.575 289.258 470.471 286.132 472.347C282.71 474.4 276.366 474.849 269.65 475.323C265.626 475.607 261.464 475.902 258.38 476.556C257.449 476.754 256.506 476.843 255.567 476.843C254.444 476.835 253.326 476.716 252.227 476.489C254.564 484.941 255.6 503.084 255.901 509.424C265.535 509.349 318.277 508.537 350.073 499.918C348.063 491.925 341.309 464.864 338.816 452.397C336.424 440.444 333.559 431.612 332.626 428.877ZM308.319 192.213C315.181 193.702 320.255 193.224 323.832 190.757C329.538 186.823 330.891 177.872 332.083 169.976C332.251 168.857 332.422 167.765 332.598 166.69C332.262 166.645 331.935 166.602 331.584 166.553C325.126 165.64 316.222 163.865 310.602 161.615C300.103 157.416 288.285 134.949 287.788 133.993L291.815 131.892C294.993 137.98 304.866 154.429 312.288 157.397C321.499 161.082 341.118 163.728 344.628 162.744C347.026 159.609 356.744 148.781 364.106 142.674C371.218 136.772 375.886 126.762 379.293 119.453L379.567 118.865C382.851 111.827 386.897 90.7528 386.938 90.5404C387.113 89.3184 387.337 87.8692 387.58 86.311C390.477 67.7378 395.868 33.1636 372.426 16.2315C346.361 -2.59048 314.49 6.08741 304.409 11.0198C293.756 16.2326 281.833 34.2005 279.196 62.5931C283.637 64.5056 286.71 69.8093 288.085 73.6377L283.81 75.1766C283.773 75.071 279.926 64.6623 274.161 66.7088C273.553 66.9246 272.671 67.4062 272.038 69.112C269.964 74.6826 273.068 85.6001 273.84 86.9538C274.573 88.0521 274.983 90.2724 275.7 94.4233C276.165 97.1127 277.029 102.119 277.737 103.08C278.757 104.026 281.837 105.452 283.859 105.325C284.385 105.292 284.746 105.16 284.935 104.933L288.437 107.826C287.591 108.848 286.393 109.484 284.964 109.736C283.589 117.383 280.754 129.779 276.606 131.583C273.616 132.882 262.061 136.643 256.755 138.352C263.534 152.787 281.948 186.497 308.319 192.213Z" fill="white"/>
<path d="M376.432 175.985C371.21 174.755 358.44 163.653 353.604 159.32C350.776 162.409 348.647 164.919 348.055 165.746C347.578 166.415 346.823 167.47 341.99 167.47C340.69 167.47 339.081 167.391 337.116 167.209C336.93 168.334 336.751 169.48 336.574 170.654C335.244 179.462 333.735 189.445 326.411 194.497C321.743 197.714 315.511 198.422 307.356 196.653C274.861 189.61 254.671 145.507 250.443 135.414C240.118 138.676 193.025 153.539 182.857 156.443C173.38 159.151 163.735 174.307 158.86 194.156C154.574 211.609 141.236 255.484 135.371 267.618C141.205 271.236 162.078 282.847 194.033 285.958C198.934 269.461 210.081 231.426 210.644 227.097L215.15 227.685C214.397 233.457 198.532 286.771 197.857 289.038C197.708 289.539 197.39 289.973 196.958 290.267C196.526 290.561 196.006 290.697 195.485 290.652C195.141 290.622 194.807 290.585 194.465 290.553C194.283 294.399 193.311 305.576 188.128 319.507C188.221 320.574 188.854 324.231 193.145 327.595C199.301 332.42 225.751 364.408 231.027 372.404C233.803 376.615 244.663 387.088 253.389 395.501C261.736 403.553 266.141 407.835 267.159 409.558C268.091 410.899 275.161 411.673 278.18 412.004C282.032 412.425 283.933 412.659 285.087 413.37C287.263 414.709 293.161 421.154 294.85 423.024C299.635 416.871 300.667 399.645 300.646 393.176C300.646 392.99 300.669 392.804 300.713 392.623C300.769 392.396 306.316 369.894 306.551 362.596C306.789 355.201 323.26 326.81 339.34 300.011C349.358 283.314 357.193 247.922 357.27 247.566L361.707 248.538C361.483 249.56 357.732 266.507 352.016 282.617C365.716 280.644 382.719 276.16 383.432 271.032C379.705 255.426 385.212 232.391 389.241 215.537C391.062 207.918 392.636 201.339 392.636 198.205C392.636 188.749 380.844 177.023 376.432 175.985ZM238.731 469.672C238.396 469.388 238.15 469.013 238.023 468.592C237.897 468.171 237.895 467.722 238.019 467.3C238.448 465.835 239.549 463.808 241.423 462.399C240.35 461.082 239.327 459.258 238.33 456.719C238.03 455.944 237.78 455.151 237.581 454.345C235.233 455.108 224.725 458.259 210.91 458.259C210.306 458.259 209.695 458.254 209.079 458.242C196.559 457.986 165.647 451.259 151.517 448.043C150.75 456.545 147.814 489.531 147.134 504.445C158.615 505.554 204.8 509.774 239.425 509.454C242.362 486.254 244.514 477.635 246.151 474.388C241.992 472.389 238.959 469.867 238.731 469.672Z" fill="white"/>
<path d="M242.557 455.057C243.901 458.479 245.022 459.924 246.069 460.538C246.256 457.842 247 454.012 249.621 452.15C250.781 451.326 252.992 450.109 255.789 448.568C260.696 445.865 267.417 442.165 269.613 439.822C272.635 436.599 280.867 427.833 290.103 424.565C287.25 421.476 283.77 417.894 282.705 417.239C282.173 417.011 279.579 416.727 277.686 416.519C270.367 415.719 265.048 414.916 263.247 411.869C262.489 410.59 255.978 404.311 250.232 398.771C240.884 389.753 230.286 379.535 227.233 374.906C222.319 367.457 196.179 335.745 190.342 331.17C183.451 325.77 183.562 319.339 183.57 319.067C183.577 318.816 183.627 318.569 183.714 318.334C188.908 304.551 189.786 293.323 189.933 290.074C169.769 287.674 154.311 282.157 144.304 277.539C144.151 290.838 144.082 313.963 144.798 318.801C145.369 322.65 144.577 326.184 143.941 329.02C143.665 330.25 143.294 331.912 143.38 332.507C146.267 335.6 206.934 399.663 216.123 405.789C234.633 418.129 242.438 426.073 242.221 432.353C242.157 434.222 241.983 436.197 241.8 438.287C241.3 443.972 240.732 450.413 242.557 455.057Z" fill="white"/>
<path d="M341.935 371.06C345.049 364.351 350.152 337.417 352.072 322.533C353.556 311.028 360.023 293.691 363.381 285.227C358.14 286.358 353.283 287.061 350.228 287.444C348.096 292.959 345.745 298.169 343.236 302.349C335.343 315.502 311.325 355.53 311.093 362.743C310.854 370.151 305.862 390.711 305.19 393.443C305.185 397.234 304.82 420.161 297.081 427.303C296.711 427.644 296.241 427.853 295.739 427.897C286.24 428.733 276.222 439.419 272.93 442.929C270.241 445.797 263.445 449.539 257.984 452.548C255.525 453.901 253.203 455.18 252.255 455.853C251.201 456.603 250.699 458.997 250.58 461.134C254.512 461.297 259.544 461.036 261.081 459.862C264.423 457.309 272.824 452.923 275.864 452.759L276.11 457.295C274.614 457.381 267.324 460.811 263.838 463.473C261.402 465.333 256.607 465.738 252.888 465.738C250.738 465.738 248.956 465.603 248.187 465.534C247.483 465.535 246.78 465.47 246.087 465.34C244.535 465.478 243.579 466.396 243.022 467.241C245.76 469.219 252.145 473.228 257.438 472.113C260.83 471.393 265.151 471.086 269.331 470.791C274.943 470.394 281.305 469.945 283.796 468.452C286.392 466.893 290.023 463.074 292.938 460.007C295.328 457.496 297.39 455.324 298.92 454.266C299.486 453.875 312.832 444.448 320.703 422.412C327.589 403.131 337.602 380.391 341.935 371.06ZM332.204 405.077C329.669 411.352 327.166 417.822 324.981 423.94C324.629 424.924 324.266 425.875 323.894 426.812C328.812 425.467 335.681 423.251 339.323 420.86L332.204 405.077ZM237.275 437.89C237.455 435.862 237.623 433.945 237.684 432.198C237.784 429.264 233.689 422.958 213.605 409.569C206.609 404.904 175.17 372.453 155.669 352.046C153.842 366.038 148.954 405.208 149.74 417.786C150.476 429.563 148.728 438.446 147.691 442.496C157.478 444.77 195.523 453.421 209.174 453.699C224.656 454.033 236.46 449.933 236.577 449.891L236.994 451.075C236.496 446.764 236.903 442.133 237.277 437.89H237.275Z" fill="white"/>
<path d="M377.47 171.561C374.075 170.763 363.508 162.083 356.704 156C359.987 152.563 363.712 148.902 367.004 146.17C374.902 139.617 379.817 129.072 383.408 121.372L383.681 120.786C387.204 113.238 391.228 92.2802 391.414 91.2921C391.602 89.9838 391.826 88.5506 392.067 87.0105C395.113 67.4765 400.782 31.1114 375.081 12.5495C348.204 -6.86193 315.792 0.391791 302.408 6.93911C291.505 12.2758 277.731 29.8803 274.694 61.9377C273.995 62.0255 273.307 62.1893 272.643 62.426C271.001 63.0064 268.799 64.4328 267.635 67.9296C265.199 75.247 268.759 87.5239 269.995 89.3728C270.329 90.0372 270.844 93.0184 271.221 95.1978C272.341 101.682 273.035 104.892 274.552 106.315C275.671 107.365 277.925 108.687 280.404 109.386C278.78 118.13 276.19 126.432 274.791 127.418C271.919 128.667 259.846 132.585 254.871 134.185C254.526 133.395 254.194 132.599 253.875 131.798C253.666 131.259 253.26 130.82 252.739 130.57C252.218 130.32 251.622 130.277 251.071 130.45C250.492 130.634 192.923 148.841 181.608 152.076C168.054 155.949 158.689 175.792 154.446 193.072C149.902 211.573 135.205 259.586 130.458 267.183C130.152 267.673 130.044 268.262 130.157 268.829C130.27 269.396 130.594 269.898 131.065 270.234C131.399 270.473 134.377 272.564 139.787 275.343C139.764 277.034 139.308 312.74 140.304 319.468C140.75 322.481 140.09 325.428 139.507 328.029C138.841 331.002 138.266 333.57 139.857 335.388C139.998 335.551 144.681 340.522 151.639 347.826C150.431 356.814 144.292 403.517 145.203 418.07C146.142 433.114 142.732 443.328 142.698 443.425C142.595 443.725 142.556 444.043 142.583 444.359C142.61 444.674 142.703 444.981 142.856 445.258C143.009 445.536 143.218 445.779 143.47 445.971C143.722 446.163 144.011 446.3 144.319 446.374C144.569 446.433 145.529 446.661 147.046 447.014C146.339 454.831 142.934 492.885 142.494 506.729L147.035 506.873C147.058 506.133 147.09 505.32 147.13 504.445C147.812 489.532 150.746 456.546 151.514 448.042C165.644 451.259 196.556 457.986 209.077 458.242C209.694 458.253 210.304 458.26 210.908 458.26C224.722 458.26 235.231 455.108 237.577 454.344C237.782 455.157 238.026 455.952 238.327 456.719C239.325 459.258 240.346 461.083 241.421 462.401C239.547 463.809 238.446 465.835 238.017 467.301C237.893 467.723 237.895 468.172 238.021 468.593C238.147 469.014 238.393 469.39 238.729 469.674C238.957 469.867 241.989 472.388 246.149 474.389C244.512 477.635 242.359 486.254 239.422 509.454C239.339 510.114 239.256 510.758 239.172 511.441L243.681 512C245.112 500.45 247.076 487.912 248.637 481.125C250.681 491.941 251.445 511.573 251.453 511.806L255.993 511.635C255.987 511.457 255.955 510.663 255.897 509.425C255.598 503.084 254.561 484.941 252.222 476.49C253.321 476.717 254.44 476.835 255.562 476.843C256.503 476.843 257.445 476.752 258.377 476.556C261.46 475.903 265.622 475.608 269.647 475.324C276.363 474.849 282.706 474.401 286.129 472.347C289.255 470.472 292.96 466.575 296.228 463.136C298.352 460.904 300.357 458.794 301.503 458.001C302.845 457.073 313.47 449.335 321.612 432.089C323.537 431.631 328.035 430.498 332.622 428.878C333.556 431.613 336.421 440.444 338.812 452.398C341.306 464.865 348.06 491.925 350.07 499.918L350.643 502.194L355.046 501.079C354.959 500.729 346.173 466.038 343.266 451.506C340.75 438.923 337.778 429.882 336.86 427.227C339.583 426.049 342.046 424.71 343.655 423.252C344.011 422.929 344.256 422.502 344.354 422.032C344.452 421.561 344.398 421.072 344.2 420.634L334.571 399.284C339.157 388.215 343.554 378.351 346.05 372.972C349.455 365.638 354.639 338.106 356.574 323.115C358.18 310.672 366.244 290.203 368.805 283.922C378.5 281.315 387.797 277.188 387.992 270.916C387.998 270.706 387.976 270.497 387.925 270.293C384.292 255.761 389.705 233.123 393.657 216.594C395.623 208.369 397.175 201.875 397.175 198.205C397.175 186.385 383.959 173.089 377.471 171.561H377.47ZM383.43 271.032C382.715 276.16 365.714 280.644 352.014 282.616C357.73 266.507 361.481 249.56 361.705 248.538L357.268 247.566C357.189 247.921 349.355 283.313 339.337 300.011C323.258 326.809 306.788 355.201 306.549 362.596C306.313 369.894 300.767 392.397 300.711 392.623C300.666 392.804 300.643 392.99 300.644 393.176C300.664 399.645 299.633 416.871 294.847 423.022C293.159 421.154 287.261 414.709 285.085 413.37C283.931 412.659 282.03 412.425 278.178 412.004C275.159 411.673 268.089 410.899 267.157 409.558C266.139 407.834 261.735 403.553 253.385 395.501C244.661 387.087 233.801 376.614 231.023 372.404C225.749 364.408 199.299 332.42 193.143 327.595C188.851 324.231 188.219 320.573 188.126 319.507C193.309 305.576 194.281 294.399 194.463 290.553C194.805 290.585 195.139 290.622 195.483 290.652C196.003 290.697 196.524 290.56 196.956 290.266C197.388 289.972 197.705 289.538 197.854 289.037C198.53 286.771 214.394 233.456 215.147 227.685L210.642 227.097C210.078 231.426 198.933 269.461 194.031 285.957C162.076 282.846 141.203 271.235 135.369 267.618C141.234 255.483 154.57 211.609 158.857 194.155C163.733 174.307 173.377 159.153 182.855 156.443C193.022 153.539 240.116 138.676 250.44 135.414C254.67 145.506 274.858 189.61 307.354 196.653C315.509 198.422 321.741 197.714 326.409 194.497C333.734 189.445 335.241 179.462 336.572 170.654C336.749 169.479 336.927 168.332 337.114 167.209C339.078 167.391 340.688 167.47 341.988 167.47C346.821 167.47 347.576 166.414 348.053 165.746C348.644 164.917 350.774 162.409 353.602 159.319C358.438 163.653 371.207 174.755 376.429 175.984C380.842 177.022 392.634 188.749 392.634 198.205C392.634 201.339 391.059 207.917 389.238 215.536C385.208 232.389 379.702 255.426 383.43 271.032ZM284.96 109.736C286.388 109.484 287.587 108.849 288.433 107.826L284.93 104.933C284.742 105.16 284.381 105.292 283.855 105.326C281.833 105.451 278.752 104.026 277.732 103.08C277.026 102.119 276.161 97.1126 275.696 94.4233C274.978 90.2723 274.568 88.052 273.836 86.9549C273.064 85.6 269.96 74.6825 272.033 69.1119C272.667 67.4061 273.55 66.9234 274.157 66.7088C279.923 64.6622 283.769 75.0709 283.806 75.1765L288.081 73.6377C286.707 69.8104 283.632 64.5055 279.192 62.593C281.829 34.2005 293.751 16.2337 304.404 11.0208C314.486 6.08733 346.357 -2.59056 372.421 16.2325C395.863 33.1636 390.473 67.7377 387.576 86.3121C387.354 87.7202 387.139 89.1296 386.933 90.5403C386.893 90.7527 382.847 111.827 379.563 118.865L379.29 119.453C375.882 126.762 371.214 136.772 364.101 142.675C356.74 148.781 347.022 159.608 344.624 162.744C341.115 163.729 321.493 161.083 312.285 157.397C304.862 154.429 294.988 137.98 291.811 131.891L287.783 133.993C288.281 134.947 300.099 157.416 310.597 161.615C316.219 163.863 325.122 165.64 331.579 166.553C331.93 166.603 332.257 166.645 332.594 166.689C332.418 167.765 332.247 168.857 332.079 169.977C330.887 177.872 329.534 186.823 323.828 190.758C320.251 193.224 315.176 193.702 308.315 192.212C281.944 186.497 263.529 152.787 256.75 138.351C262.056 136.644 273.612 132.883 276.602 131.582C280.75 129.779 283.585 117.384 284.961 109.736H284.96ZM236.572 449.891C236.454 449.933 224.651 454.033 209.168 453.699C195.517 453.421 157.473 444.77 147.687 442.496C148.724 438.446 150.471 429.564 149.736 417.786C148.95 405.208 153.838 366.037 155.664 352.046C175.165 372.453 206.603 404.903 213.601 409.569C233.684 422.959 237.78 429.264 237.679 432.198C237.618 433.944 237.45 435.861 237.272 437.89C236.898 442.133 236.492 446.764 236.988 451.075L236.572 449.891ZM216.121 405.789C206.931 399.663 146.264 335.601 143.378 332.508C143.292 331.912 143.663 330.252 143.939 329.022C144.575 326.182 145.366 322.65 144.796 318.803C144.08 313.964 144.149 290.838 144.302 277.539C154.309 282.157 169.767 287.674 189.931 290.075C189.784 293.323 188.906 304.551 183.712 318.333C183.624 318.568 183.575 318.816 183.568 319.067C183.559 319.34 183.449 325.77 190.339 331.17C196.177 335.745 222.317 367.457 227.231 374.906C230.284 379.535 240.882 389.754 250.23 398.772C255.976 404.312 262.487 410.59 263.245 411.869C265.046 414.916 270.365 415.719 277.682 416.521C279.577 416.727 282.171 417.011 282.702 417.238C283.768 417.894 287.248 421.476 290.101 424.565C280.865 427.833 272.634 436.599 269.611 439.822C267.415 442.166 260.695 445.865 255.787 448.568C252.989 450.109 250.779 451.326 249.619 452.151C246.998 454.013 246.254 457.842 246.067 460.539C245.021 459.925 243.899 458.479 242.555 455.057C240.73 450.413 241.297 443.973 241.798 438.288C241.981 436.198 242.154 434.223 242.219 432.354C242.436 426.074 234.63 418.128 216.121 405.789ZM298.915 454.265C297.386 455.324 295.323 457.495 292.934 460.008C290.018 463.074 286.388 466.893 283.791 468.452C281.301 469.945 274.939 470.394 269.326 470.791C265.147 471.086 260.825 471.393 257.433 472.113C252.141 473.228 245.756 469.219 243.017 467.241C243.574 466.396 244.53 465.479 246.084 465.34C246.776 465.471 247.478 465.536 248.183 465.535C248.951 465.603 250.733 465.739 252.884 465.739C256.603 465.739 261.396 465.333 263.833 463.473C267.319 460.811 274.61 457.381 276.105 457.294L275.86 452.758C272.818 452.922 264.419 457.31 261.076 459.862C259.54 461.037 254.507 461.297 250.576 461.134C250.695 458.997 251.196 456.603 252.251 455.853C253.198 455.181 255.522 453.902 257.979 452.548C263.441 449.539 270.237 445.797 272.925 442.929C276.217 439.418 286.235 428.733 295.734 427.897C296.235 427.853 296.707 427.644 297.076 427.304C304.814 420.16 305.18 397.234 305.186 393.443C305.856 390.711 310.848 370.151 311.088 362.743C311.321 355.531 335.339 315.502 343.232 302.348C345.739 298.169 348.091 292.96 350.223 287.444C353.278 287.061 358.134 286.358 363.377 285.228C360.018 293.691 353.552 311.028 352.067 322.533C350.147 337.417 345.044 364.351 341.929 371.06C337.597 380.39 327.585 403.132 320.698 422.411C312.828 444.447 299.481 453.875 298.915 454.265ZM324.976 423.94C327.162 417.822 329.665 411.352 332.199 405.076L339.318 420.86C335.676 423.251 328.808 425.466 323.89 426.811C324.26 425.875 324.624 424.924 324.976 423.94Z" fill="black"/>
<circle cx="264" cy="431" r="62" fill="#FF0909" fill-opacity="0.25"/>
</g>
<defs>
<clipPath id="clip0_801_1107">
<rect width="512" height="512" fill="white"/>
</clipPath>
</defs>
</svg>
