<svg width="512" height="512" viewBox="0 0 512 512" fill="none" xmlns="http://www.w3.org/2000/svg">
<path fill-rule="evenodd" clip-rule="evenodd" d="M449.202 37.7705C453.44 37.7152 457.62 38.7546 461.339 40.7882C465.058 42.8217 468.189 45.7807 470.429 49.3787C477.554 61.977 482.859 75.5216 486.183 89.6084C490.758 107.526 493.713 125.819 495.013 144.267C496.587 164.748 496.377 185.328 494.384 205.774C492.473 226.486 488.273 246.923 481.861 266.71C475.817 285.688 466.752 303.557 455.002 319.648C443.481 335.272 428.582 348.094 411.415 357.158C391.931 366.881 370.44 371.906 348.665 371.83C325.924 371.857 303.302 368.554 281.518 362.026C270.641 358.878 259.964 355.074 249.547 350.636C240.437 345.286 230.703 341.077 220.564 338.105C213.682 336.627 206.799 340.623 204.676 347.337C202.56 354.984 208.822 362.706 211.709 369.345C219.156 386.8 222.573 405.709 221.706 424.666C221.969 432.306 220.523 439.907 217.474 446.917C214.424 453.926 209.848 460.166 204.08 465.181C195.047 471.618 184.101 474.807 173.024 474.23C164.129 474.737 155.237 473.203 147.027 469.743C138.817 466.283 131.508 460.991 125.66 454.27C120.871 447.787 117.5 440.369 115.765 432.498C114.029 424.628 113.969 416.48 115.588 408.584C118.441 398.932 122.336 389.615 127.204 380.802C134.532 364.099 136.68 323.148 109.116 323.148C105.47 323.486 101.993 324.842 99.0798 327.06C96.1668 329.279 93.9355 332.271 92.64 335.696C89.4198 342.557 87.2334 349.857 86.1519 357.359C83.7697 365.386 83.5295 373.896 85.4552 382.044C86.4708 384.747 88.3006 387.131 89.1483 389.875C90.1003 395.485 89.2941 401.252 86.8401 406.385C84.9936 411.757 82.6434 416.944 80.394 422.148C77.6874 428.809 74.3335 435.188 70.3806 441.193C67.8625 444.869 62.4068 451.995 57.2364 448.252C54.8697 446.693 52.1318 445.79 49.302 445.635C46.4722 445.48 43.6521 446.079 41.1294 447.371C33.3655 451.735 25.6099 439.061 22.5296 433.865C19.0481 428.013 16.0474 421.889 13.557 415.551C11.4656 410.696 9.90101 405.631 8.89021 400.443C8.11345 396.236 8.43433 391.9 9.82188 387.853C11.1816 384.227 14.3627 381.448 16.0079 377.89C18.372 369.981 19.1283 361.679 18.2321 353.473C18.8197 339.003 21.2286 324.658 25.4085 310.792C29.003 298.943 33.8216 287.499 39.7865 276.648C44.6106 267.846 50.1375 259.447 56.3132 251.535C60.5323 246.106 65.0788 240.94 69.9273 236.066C70.2043 235.789 75.5425 230.82 75.5425 230.82C36.9831 176.942 33.8523 116.602 52.704 55.4555C54.3109 50.324 57.5157 45.8403 61.8508 42.6588C66.1859 39.4774 71.4243 37.7646 76.8016 37.7705H449.202Z" fill="#FFE0B2"/>
<path fill-rule="evenodd" clip-rule="evenodd" d="M204.693 347.296C205.222 345.407 206.204 343.686 207.547 342.259C203.713 340.317 199.624 338.924 195.402 338.121C188.519 336.644 181.636 340.64 179.513 347.354C177.398 355.001 183.659 362.723 186.547 369.362C193.993 386.817 197.41 405.726 196.543 424.683C196.806 432.322 195.361 439.924 192.311 446.934C189.262 453.943 184.686 460.183 178.917 465.198C173.268 469.412 166.662 472.165 159.688 473.197C164.092 473.932 168.551 474.297 173.016 474.288C184.098 474.854 195.044 471.65 204.072 465.198C209.841 460.183 214.417 453.943 217.466 446.934C220.516 439.924 221.962 432.322 221.698 424.683C222.58 405.714 219.18 386.787 211.727 369.312C208.84 362.664 202.578 354.942 204.693 347.296ZM495.014 144.267C493.714 125.819 490.759 107.526 486.184 89.6084C482.859 75.5216 477.555 61.977 470.43 49.3787C468.189 45.7807 465.058 42.8217 461.34 40.7882C457.621 38.7546 453.441 37.7152 449.203 37.7705H424.022C428.26 37.7152 432.441 38.7546 436.159 40.7882C439.878 42.8217 443.009 45.7807 445.249 49.3787C452.375 61.977 457.679 75.5216 461.004 89.6084C465.578 107.526 468.534 125.819 469.834 144.267C471.408 164.748 471.197 185.328 469.204 205.774C467.294 226.486 463.094 246.923 456.681 266.71C450.638 285.688 441.573 303.557 429.822 319.648C418.301 335.272 403.402 348.094 386.235 357.158C369.895 365.382 352.058 370.21 333.801 371.351C338.736 371.662 343.68 371.872 348.641 371.821C370.422 371.905 391.926 366.886 411.415 357.158C428.582 348.094 443.482 335.272 455.002 319.648C466.748 303.564 475.818 285.687 481.861 266.71C488.274 246.923 492.474 226.486 494.384 205.774C496.377 185.328 496.588 164.748 495.014 144.267Z" fill="#DFC49C"/>
<path d="M193.05 306.361C230.134 306.361 260.197 280.056 260.197 247.607C260.197 215.158 230.134 188.853 193.05 188.853C155.965 188.853 125.902 215.158 125.902 247.607C125.902 280.056 155.965 306.361 193.05 306.361Z" fill="#EF314C"/>
<path fill-rule="evenodd" clip-rule="evenodd" d="M193.051 188.853C188.829 188.853 184.624 189.213 180.461 189.919C211.517 195.08 235.018 218.926 235.018 247.607C235.018 276.287 211.517 300.133 180.461 305.295C184.624 306 188.829 306.352 193.051 306.361C230.133 306.361 260.199 280.056 260.199 247.607C260.199 215.158 230.133 188.853 193.051 188.853Z" fill="#BB193B"/>
<path d="M176.263 264.393C185.535 264.393 193.05 256.878 193.05 247.607C193.05 238.335 185.535 230.82 176.263 230.82C166.992 230.82 159.477 238.335 159.477 247.607C159.477 256.878 166.992 264.393 176.263 264.393Z" fill="#FFDF00"/>
<path fill-rule="evenodd" clip-rule="evenodd" d="M427.31 121.974C422.623 123.837 418.731 127.276 416.305 131.699C413.878 136.121 413.069 141.251 414.015 146.205C416.634 163.227 415.694 180.602 411.279 197.246C397.757 251.803 380.223 278.31 354.623 285.377C319.186 295.172 322.468 337.937 367.213 331.541C430.424 322.51 466.256 249.848 458.307 139.868C458.086 136.52 457.083 133.27 455.378 130.38C453.673 127.49 451.315 125.039 448.491 123.226C445.668 121.412 442.459 120.286 439.121 119.937C435.784 119.588 432.411 120.027 429.274 121.218L427.31 121.974Z" fill="#EF314C"/>
<path fill-rule="evenodd" clip-rule="evenodd" d="M458.285 139.868C458.064 136.52 457.061 133.27 455.356 130.38C453.651 127.49 451.293 125.039 448.469 123.226C445.646 121.412 442.437 120.286 439.1 119.937C435.762 119.588 432.389 120.027 429.252 121.218L427.288 121.974C426.088 122.427 424.93 122.981 423.83 123.652C426.499 125.481 428.719 127.89 430.325 130.698C431.931 133.506 432.882 136.641 433.105 139.868C440.869 247.069 406.926 318.649 346.652 330.559C353.354 332.376 360.372 332.711 367.216 331.541C430.427 322.51 466.276 249.848 458.285 139.868Z" fill="#BB193B"/>
<path d="M494.309 87.4849C490.798 72.6137 485.167 58.3246 477.589 45.056C474.597 40.2293 470.415 36.2524 465.444 33.5069C460.474 30.7613 454.881 29.3392 449.202 29.3771H76.8019C69.6383 29.4029 62.6679 31.7024 56.8951 35.9441C51.1223 40.1859 46.8452 46.1508 44.6802 52.9794C24.1834 119.464 30.8562 178.881 64.5139 229.603C42.6269 251.646 26.4443 278.692 17.3679 308.4C12.1916 325.297 9.66314 342.894 9.8726 360.566C10.4182 365.232 9.91456 369.966 8.39535 374.406C5.09153 378.072 2.67041 382.445 1.31741 387.191C-0.0355991 391.937 -0.284609 396.929 0.589448 401.786C1.69052 407.551 3.41574 413.18 5.73463 418.573C8.38696 425.338 11.5849 431.885 15.2948 438.138C25.1822 454.757 35.2544 460.313 45.2342 454.69C46.3581 454.186 47.5854 453.956 48.8154 454.019C50.0454 454.082 51.243 454.435 52.3098 455.05C53.7692 456.136 55.4337 456.913 57.2026 457.336C58.9715 457.759 60.8078 457.818 62.6002 457.51C68.8154 455.728 74.0871 451.586 77.2887 445.969C81.561 439.531 85.1953 432.69 88.133 425.548L88.7961 423.869C90.8693 419.127 92.9929 414.225 94.9905 408.467C101.705 389.044 95.8718 385.931 93.3118 379.09C92.0631 373.438 92.2449 367.564 93.8406 362.001C94.8418 354.231 96.9592 346.646 100.127 339.481C101.957 335.855 105.012 331.533 109.108 331.533C113.255 331.239 117.225 333.27 119.399 336.812C125.946 346.834 123.847 367.557 119.516 377.428C118.375 380.047 117.065 382.64 115.773 385.242C111.999 392.067 109.175 399.375 107.379 406.964C105.552 416.027 105.643 425.373 107.648 434.398C109.653 443.423 113.528 451.928 119.021 459.365C125.597 467.17 133.901 473.337 143.275 477.374C152.649 481.411 162.835 483.208 173.024 482.623C185.981 483.23 198.758 479.405 209.25 471.779C216.034 466.061 221.434 458.882 225.046 450.779C228.659 442.676 230.389 433.861 230.108 424.994C231.053 404.759 227.4 384.574 219.423 365.954C216.905 360.137 211.819 353.028 212.784 349.52C213.623 346.574 217.14 346.045 219.247 346.381C225.195 347.758 230.88 350.088 236.084 353.28C249.905 360.201 264.339 365.821 279.201 370.067C301.755 376.882 325.197 380.307 348.758 380.223C371.858 380.335 394.658 374.989 415.301 364.62C433.573 354.948 449.445 341.304 461.75 324.692C474.027 307.881 483.508 289.197 489.826 269.362C496.436 248.983 500.777 227.936 502.769 206.605C504.809 185.68 505.027 164.612 503.415 143.654C502.066 124.696 499.018 105.898 494.309 87.4849ZM486.024 204.993C484.168 225.084 480.101 244.909 473.896 264.108C468.142 282.223 459.504 299.291 448.312 314.653C437.526 329.247 423.608 341.238 407.579 349.746C389.264 358.9 369.048 363.602 348.573 363.47C328.492 363.531 308.501 360.8 289.173 355.353C291.573 353.775 293.798 351.937 295.795 349.872C304.239 341.118 316.233 320.185 301.671 278.461C290.667 246.86 301.906 235.889 317.442 220.714C331.593 206.898 349.203 189.709 344.016 154.112C340.188 127.824 344.62 108.108 355.85 101.393C360.186 99.3409 365.037 98.6313 369.779 99.3551C374.521 100.079 378.939 102.203 382.466 105.455C399.194 117.836 414.63 148.791 403.105 195.265C390.582 245.785 374.937 271.091 352.359 277.328C328.857 283.824 319.624 302.114 322.713 316.777C325.693 331.046 340.927 343.795 368.382 339.851C443.427 329.132 480.854 238.953 463.639 110.105C463.301 107.938 462.128 105.989 460.371 104.675C458.613 103.362 456.412 102.789 454.237 103.078C452.063 103.368 450.088 104.497 448.736 106.225C447.384 107.952 446.762 110.141 447.003 112.321C462.842 231.155 431.056 313.94 365.998 323.231C351.393 325.305 340.818 321.444 339.139 313.344C337.704 306.478 343.42 297.17 356.841 293.468C385.949 285.419 405.246 256.369 419.405 199.269C432.91 144.77 413.329 107.377 392.462 91.9166C386.314 86.608 378.699 83.2901 370.624 82.4014C362.549 81.5127 354.395 83.095 347.239 86.9393C336.948 93.0917 320.69 110.315 327.413 156.487C331.358 183.623 319.473 195.232 305.725 208.661C289.592 224.407 271.312 242.235 285.824 283.942C294.276 308.224 293.504 327.999 283.683 338.189C279.988 341.584 275.446 343.921 270.535 344.955C265.625 345.989 260.526 345.681 255.775 344.064C251.68 342.551 247.725 340.68 243.957 338.474C237.144 334.354 229.679 331.425 221.883 329.812C216.519 328.718 210.941 329.68 206.254 332.507C201.566 335.333 198.112 339.818 196.576 345.071C193.446 356.402 201.226 366.315 204.005 372.644C210.974 388.939 214.156 406.602 213.313 424.305C213.626 430.715 212.498 437.114 210.011 443.031C207.524 448.947 203.742 454.231 198.943 458.492C191.389 463.83 182.249 466.424 173.024 465.836C165.426 466.272 157.827 465.001 150.784 462.117C143.741 459.232 137.434 454.807 132.325 449.167C128.268 443.625 125.417 437.295 123.954 430.584C122.491 423.874 122.449 416.932 123.83 410.204C125.378 404.108 127.721 398.241 130.797 392.754C132.224 389.901 133.642 387.055 134.901 384.176C140.651 371.057 144.134 344.022 133.449 327.638C130.864 323.56 127.26 320.227 122.992 317.968C118.725 315.708 113.943 314.601 109.117 314.754C103.898 315.018 98.8644 316.777 94.6161 319.82C90.3678 322.863 87.0832 327.062 85.1534 331.919C81.2193 340.504 78.583 349.627 77.3307 358.988C75.0333 367.521 75.1262 376.523 77.5993 385.007C80.7468 393.51 83.4747 390.32 78.9087 403.674C77.3643 408.165 75.4422 412.546 73.411 417.188L72.6975 418.866C70.1914 425.024 67.0996 430.926 63.4647 436.493C62.544 437.887 61.4868 439.186 60.3088 440.37C58.8151 439.549 57.2325 438.902 55.5917 438.44C53.8458 346.112 75.887 285.948 119.65 263.369C123.089 274.676 129.303 284.943 137.725 293.234C146.148 301.524 156.511 307.575 167.871 310.834V323.148C167.871 325.374 168.755 327.509 170.329 329.083C171.903 330.657 174.038 331.541 176.264 331.541C178.49 331.541 180.625 330.657 182.199 329.083C183.773 327.509 184.658 325.374 184.658 323.148V314.318C187.419 314.586 190.214 314.754 193.051 314.754C210.087 314.86 226.724 309.597 240.6 299.713L255.163 310.625C256.943 311.96 259.182 312.534 261.386 312.219C263.589 311.904 265.578 310.727 266.913 308.946C268.249 307.165 268.823 304.926 268.508 302.723C268.193 300.519 267.016 298.531 265.235 297.195L253.131 288.122C263.032 277.036 268.532 262.708 268.592 247.845C268.653 232.981 263.269 218.61 253.459 207.444L271.731 189.171H285.043C287.269 189.171 289.404 188.287 290.978 186.713C292.552 185.139 293.437 183.004 293.437 180.778C293.437 178.552 292.552 176.417 290.978 174.843C289.404 173.269 287.269 172.385 285.043 172.385H276.65V163.991C276.65 161.765 275.765 159.63 274.191 158.056C272.617 156.482 270.482 155.598 268.256 155.598C266.03 155.598 263.895 156.482 262.321 158.056C260.747 159.63 259.863 161.765 259.863 163.991V177.303L241.238 195.928C229.568 187.428 215.82 182.234 201.445 180.895V167.147L215.772 152.819C217.301 151.236 218.147 149.116 218.128 146.915C218.109 144.715 217.226 142.61 215.67 141.053C214.114 139.497 212.008 138.614 209.808 138.595C207.607 138.576 205.487 139.422 203.904 140.951L193.051 151.804L182.198 140.951C180.615 139.422 178.495 138.576 176.294 138.595C174.094 138.614 171.988 139.497 170.432 141.053C168.876 142.61 167.993 144.715 167.974 146.915C167.955 149.116 168.801 151.236 170.33 152.819L184.658 167.147V180.895C169.815 182.298 155.66 187.822 143.79 196.843L124.225 182.138C123.343 181.476 122.34 180.995 121.272 180.722C120.204 180.448 119.093 180.388 118.002 180.543C115.798 180.858 113.81 182.036 112.474 183.816C111.138 185.597 110.565 187.836 110.88 190.039C111.195 192.243 112.372 194.232 114.153 195.567L131.619 208.669C123.023 219.147 118.102 232.157 117.611 245.701C78.9003 262.765 36.2448 310.675 38.8216 439.296C38.4607 439.455 38.041 439.514 37.6885 439.69C34.3213 436.968 31.6056 433.526 29.7399 429.618C26.4852 424.152 23.6783 418.432 21.3464 412.513C19.4835 408.223 18.0768 403.75 17.1497 399.167C15.5885 389.355 20.1546 388.919 23.5959 381.465C26.3164 374.685 27.3644 367.349 26.6511 360.079C26.5022 344.206 28.7894 328.405 33.433 313.227C42.5525 283.68 59.328 257.074 82.0562 236.108C83.2151 234.68 83.8731 232.911 83.9292 231.074C83.9853 229.236 83.4364 227.43 82.3668 225.935C48.3062 178.344 41.0207 121.822 60.7285 57.9148C61.8181 54.5064 63.9617 51.532 66.8504 49.4202C69.7391 47.3084 73.2236 46.1682 76.8019 46.164H449.202C451.992 46.1139 454.747 46.7825 457.203 48.1055C459.66 49.4285 461.734 51.3613 463.228 53.7181C469.962 65.6245 474.957 78.4343 478.059 91.7571C482.507 109.19 485.386 126.984 486.645 144.93C488.182 164.917 487.974 185 486.024 204.951V204.993ZM134.297 247.607C134.297 219.833 160.661 197.246 193.051 197.246C225.441 197.246 251.805 219.833 251.805 247.607C251.805 275.38 225.441 297.967 193.051 297.967C160.661 297.967 134.297 275.38 134.297 247.607Z" fill="black"/>
<path fill-rule="evenodd" clip-rule="evenodd" d="M173.025 432.262C170.689 432.601 168.31 432.473 166.023 431.887C163.737 431.3 161.59 430.267 159.705 428.846C158.277 427.197 157.266 425.23 156.756 423.109C156.247 420.988 156.253 418.776 156.776 416.659C157.203 414.474 156.745 412.209 155.502 410.362C154.259 408.514 152.334 407.237 150.149 406.809C147.964 406.382 145.699 406.84 143.852 408.083C142.004 409.325 140.727 411.251 140.299 413.436C139.177 418.26 139.28 423.288 140.599 428.061C141.919 432.835 144.413 437.202 147.853 440.765C151.255 443.803 155.247 446.106 159.58 447.532C163.913 448.957 168.492 449.474 173.034 449.049C175.26 449.049 177.395 448.165 178.969 446.591C180.543 445.017 181.427 442.882 181.427 440.656C181.427 438.43 180.543 436.295 178.969 434.721C177.395 433.147 175.251 432.262 173.025 432.262Z" fill="white"/>
<path d="M226.624 247.607C231.259 247.607 235.017 243.849 235.017 239.213C235.017 234.578 231.259 230.82 226.624 230.82C221.988 230.82 218.23 234.578 218.23 239.213C218.23 243.849 221.988 247.607 226.624 247.607Z" fill="black"/>
<path d="M218.229 281.18C222.865 281.18 226.623 277.423 226.623 272.787C226.623 268.151 222.865 264.394 218.229 264.394C213.594 264.394 209.836 268.151 209.836 272.787C209.836 277.423 213.594 281.18 218.229 281.18Z" fill="black"/>
<path d="M176.262 272.787C182.941 272.787 189.345 270.134 194.068 265.412C198.79 260.69 201.443 254.285 201.443 247.607C201.443 240.928 198.79 234.524 194.068 229.801C189.345 225.079 182.941 222.426 176.262 222.426C169.584 222.426 163.179 225.079 158.457 229.801C153.735 234.524 151.082 240.928 151.082 247.607C151.082 254.285 153.735 260.69 158.457 265.412C163.179 270.134 169.584 272.787 176.262 272.787ZM176.262 239.213C178.488 239.213 180.623 240.097 182.197 241.672C183.771 243.246 184.656 245.381 184.656 247.607C184.656 249.833 183.771 251.968 182.197 253.542C180.623 255.116 178.488 256 176.262 256C174.036 256 171.901 255.116 170.327 253.542C168.753 251.968 167.869 249.833 167.869 247.607C167.869 245.381 168.753 243.246 170.327 241.672C171.901 240.097 174.036 239.213 176.262 239.213Z" fill="black"/>
</svg>
