<svg width="512" height="512" viewBox="0 0 512 512" fill="none" xmlns="http://www.w3.org/2000/svg">
<path d="M426.055 346.372C401.717 273.757 360.905 201.33 307.823 136.621C305.551 133.852 303.259 131.099 300.947 128.363C306.95 144.81 310.26 162.797 310.26 181.633C310.26 205.858 304.784 228.678 295.148 248.625C319.381 287.377 338.29 327.636 350.913 367.664L426.055 346.372ZM444.061 414.8C441.882 403.314 439.215 391.603 436.124 379.923L359.791 400.448C360.976 406.092 363.931 420.421 365.112 428.404C366.813 439.901 373.474 450.033 383.387 456.202C393.426 462.454 405.639 463.969 416.902 460.351C436.142 454.184 447.817 434.6 444.061 414.8Z" fill="#EBA2D7"/>
<path d="M453.261 413.056C450.757 399.849 447.622 386.355 443.943 372.952C443.275 370.509 440.791 369.036 438.348 369.636C438.296 369.648 438.245 369.659 438.193 369.673L353.342 392.488C350.845 393.158 349.366 395.728 350.036 398.224C350.051 398.281 350.068 398.337 350.085 398.393C350.004 398.945 350.023 399.507 350.14 400.053C350.183 400.251 354.432 420.189 355.85 429.775C357.955 443.998 366.188 456.528 378.44 464.152C386.395 469.105 395.459 471.644 404.608 471.644C409.692 471.644 414.804 470.861 419.763 469.269C443.497 461.658 457.899 437.493 453.261 413.056ZM383.388 456.202C373.476 450.033 366.814 439.901 365.113 428.404C363.932 420.421 360.977 406.093 359.793 400.448L436.125 379.923C439.217 391.603 441.883 403.314 444.062 414.8C447.819 434.6 436.143 454.184 416.904 460.351C405.641 463.969 393.427 462.454 383.388 456.202ZM433.281 354.04C433.347 354.022 433.413 354.002 433.479 353.981C435.938 353.179 437.282 350.537 436.482 348.08C411.986 272.826 369.999 197.653 315.064 130.684C304.848 118.227 294.229 106.106 283.225 94.34C260.098 61.4858 224.246 40.3561 184.068 40.3561C114.483 40.3561 57.8711 103.732 57.8711 181.632C57.8711 259.536 114.483 322.915 184.068 322.915C228.461 322.915 267.571 297.118 290.072 258.211C313.003 295.658 330.862 334.435 342.754 372.937C343.039 373.867 343.608 374.683 344.381 375.273C345.173 376.873 346.811 377.875 348.573 377.875C348.997 377.875 349.426 377.817 349.853 377.698L432.908 354.164C433.034 354.128 433.158 354.087 433.281 354.04ZM184.069 313.551C119.647 313.551 67.235 254.372 67.235 181.633C67.235 108.896 119.647 49.7199 184.069 49.7199C248.489 49.7199 300.898 108.896 300.898 181.633C300.898 254.372 248.489 313.551 184.069 313.551ZM310.261 181.633C310.261 162.797 306.951 144.81 300.949 128.363C303.261 131.099 305.553 133.852 307.824 136.621C360.907 201.331 401.718 273.757 426.056 346.372L350.915 367.664C338.292 327.636 319.382 287.377 295.15 248.625C304.786 228.678 310.261 205.858 310.261 181.633Z" fill="#613B57"/>
<path d="M300.897 181.633C300.897 108.896 248.488 49.72 184.068 49.72C119.646 49.72 67.2344 108.896 67.2344 181.633C67.2344 254.372 119.646 313.551 184.068 313.551C248.488 313.551 300.897 254.372 300.897 181.633ZM180.429 273.264C179.627 274.901 177.976 275.886 176.225 275.886C175.811 275.886 175.392 275.831 174.976 275.715C172.805 275.115 171.371 273.054 171.56 270.811L177.778 197.08L140.75 202.323C139.022 202.57 137.321 201.841 136.304 200.436C135.285 199.034 135.126 197.181 135.89 195.626L187.703 90.0005C188.693 87.9797 190.976 86.9464 193.156 87.5499C195.326 88.1504 196.76 90.2109 196.571 92.4543L190.353 166.188L227.381 160.945C229.113 160.719 230.812 161.43 231.827 162.832C232.847 164.234 233.005 166.087 232.242 167.642L180.429 273.264Z" fill="white"/>
<path d="M182.938 186.939C184.134 186.939 185.285 187.397 186.154 188.219C186.665 188.702 187.062 189.294 187.312 189.951C187.563 190.608 187.663 191.313 187.603 192.014L182.982 246.801L219.942 171.455L185.852 176.283C184.439 176.481 183.014 176.03 181.98 175.048C181.468 174.566 181.072 173.974 180.821 173.317C180.57 172.66 180.471 171.954 180.53 171.254L185.151 116.467L148.191 191.813L182.281 186.985C182.499 186.955 182.718 186.939 182.938 186.939Z" fill="#EBA2D7"/>
<path d="M232.241 167.642C233.004 166.087 232.846 164.234 231.826 162.832C230.811 161.43 229.112 160.719 227.38 160.945L190.352 166.188L196.57 92.4542C196.759 90.2108 195.325 88.1504 193.155 87.5499C190.976 86.9463 188.693 87.9796 187.702 90.0005L135.889 195.626C135.125 197.181 135.284 199.034 136.303 200.436C137.32 201.841 139.021 202.57 140.749 202.323L177.777 197.08L171.559 270.811C171.37 273.054 172.804 275.115 174.975 275.715C175.381 275.829 175.802 275.886 176.224 275.886C177.975 275.886 179.626 274.901 180.428 273.265L232.241 167.642ZM185.149 116.467L180.528 171.254C180.469 171.955 180.568 172.66 180.819 173.317C181.07 173.974 181.466 174.566 181.978 175.049C183.012 176.03 184.437 176.481 185.85 176.283L219.94 171.455L182.98 246.801L187.601 192.014C187.661 191.314 187.561 190.608 187.31 189.951C187.059 189.294 186.663 188.702 186.152 188.22C185.283 187.397 184.132 186.939 182.936 186.939C182.718 186.939 182.499 186.955 182.279 186.985L148.189 191.813L185.149 116.467Z" fill="#613B57"/>
</svg>
