<svg width="512" height="512" viewBox="0 0 512 512" fill="none" xmlns="http://www.w3.org/2000/svg">
<g clip-path="url(#clip0_797_666)">
<path d="M407.763 7.5C371.439 73.048 344.346 156.27 379.413 228.179C392.094 254.182 407.247 278.257 419.681 303.691C427.892 320.486 427.09 347.119 431.435 366.046C435.155 382.25 445.513 389.44 447.044 405.983C450.073 438.726 449.185 471.889 445.851 504.5C445.851 506.489 445.06 508.397 443.654 509.803C442.247 511.21 440.34 512 438.351 512H73.6475C71.6584 512 69.7508 511.21 68.3442 509.803C66.9377 508.397 66.1475 506.489 66.1475 504.5C62.8315 472.065 61.9345 439.084 64.9055 406.514C66.4305 389.791 82.2076 379.843 85.9676 363.466C90.3256 344.483 84.1485 320.381 92.3915 303.539C104.813 278.161 119.931 254.13 132.586 228.179C167.652 156.27 140.559 73.048 104.235 7.5C102.028 4.338 104.29 0 108.146 0H403.852C407.708 0 409.97 4.338 407.763 7.5Z" fill="#FFCEBF"/>
<path d="M429.372 358.823C425.027 339.897 427.892 320.486 419.682 303.691C407.248 278.257 392.094 254.182 379.414 228.179C344.346 156.27 371.439 73.048 407.763 7.5C409.97 4.338 407.708 0 403.852 0H373.852C377.708 0 379.97 4.338 377.763 7.5C341.439 73.048 314.346 156.27 349.413 228.179C370.467 271.353 398.337 309.212 409.263 356.799C420.346 405.073 420.869 455.411 415.851 504.5C415.851 506.489 415.061 508.397 413.654 509.803C412.248 511.21 410.34 512 408.351 512H438.351C440.34 512 442.248 511.21 443.654 509.803C445.061 508.397 445.851 506.489 445.851 504.5C449.185 471.889 450.073 438.726 447.044 405.983C445.513 389.439 433.092 375.027 429.372 358.823Z" fill="#FFB09E"/>
<path d="M439.265 356.799C434.92 337.873 427.89 320.488 419.679 303.693C387.491 318.365 329.125 339.556 253.465 339.035C180.421 338.533 124.074 318.019 92.3972 303.541C84.1542 320.383 77.0962 337.816 72.7372 356.799C68.9772 373.176 66.4352 389.791 64.9102 406.514C92.1882 408.896 119.241 413.384 145.827 419.938C180.919 428.597 210.899 439.815 235.32 450.809C240.79 453.273 246.72 454.547 252.719 454.547C258.718 454.547 264.649 453.273 270.118 450.809C294.539 439.815 324.519 428.597 359.611 419.938C388.315 412.862 417.56 408.194 447.04 405.983C445.511 389.44 442.985 373.003 439.265 356.799Z" fill="#E5EDFC"/>
<path d="M439.265 356.799C434.92 337.873 427.89 320.489 419.68 303.695L419.679 303.693C411.43 307.45 403.051 310.916 394.559 314.084C400.654 327.667 405.809 341.746 409.265 356.799C413.216 374.007 415.819 391.478 417.313 409.06C427.191 407.758 437.105 406.732 447.041 405.983C445.51 389.44 442.985 373.003 439.265 356.799Z" fill="#D1D9FC"/>
<path d="M489.5 262.921L465.341 296.165C464.517 297.299 465.189 298.903 466.575 299.11L486.456 302.084C486.773 302.131 487.073 302.26 487.327 302.457C487.58 302.654 487.778 302.913 487.902 303.209C488.026 303.505 488.072 303.828 488.035 304.147C487.998 304.466 487.879 304.769 487.69 305.029L463.531 338.273M306.484 187.921L282.325 221.165C281.501 222.299 282.173 223.903 283.559 224.11L303.44 227.084C303.757 227.131 304.057 227.26 304.311 227.457C304.564 227.654 304.762 227.913 304.886 228.209C305.01 228.505 305.056 228.828 305.019 229.147C304.982 229.466 304.863 229.769 304.674 230.029L280.515 263.273M205.516 187.921L229.675 221.165C230.499 222.299 229.827 223.903 228.441 224.11L208.56 227.084C208.243 227.131 207.943 227.26 207.689 227.457C207.436 227.654 207.238 227.913 207.114 228.209C206.99 228.505 206.944 228.828 206.981 229.147C207.018 229.466 207.137 229.769 207.326 230.029L231.485 263.273M22.5 262.921L46.659 296.165C46.8479 296.425 46.9666 296.728 47.0037 297.047C47.0408 297.366 46.9951 297.689 46.871 297.985C46.7468 298.281 46.5484 298.54 46.295 298.737C46.0415 298.934 45.7415 299.063 45.424 299.11L25.543 302.084C25.2256 302.132 24.9258 302.26 24.6725 302.457C24.4192 302.654 24.221 302.913 24.0969 303.209C23.9728 303.505 23.927 303.828 23.964 304.147C24.001 304.465 24.1194 304.769 24.308 305.029L48.467 338.273M459.5 157.921L435.341 191.165C434.517 192.299 435.189 193.903 436.575 194.11L456.456 197.084C456.773 197.131 457.073 197.26 457.327 197.457C457.58 197.654 457.778 197.913 457.902 198.209C458.026 198.505 458.072 198.828 458.035 199.147C457.998 199.466 457.879 199.769 457.69 200.029L433.531 233.273M52.5 172.921L76.659 206.165C76.8479 206.425 76.9666 206.729 77.0037 207.047C77.0408 207.366 76.9951 207.689 76.871 207.985C76.7468 208.281 76.5484 208.54 76.295 208.737C76.0415 208.934 75.7415 209.063 75.424 209.11L55.543 212.084C55.2256 212.132 54.9258 212.26 54.6725 212.457C54.4192 212.654 54.221 212.913 54.0969 213.209C53.9728 213.505 53.927 213.828 53.964 214.147C54.001 214.465 54.1194 214.769 54.308 215.029L78.467 248.273M253.42 504.5V454.53M363.54 167.716C364.959 188.317 369.897 208.665 379.413 228.179C400.467 271.353 428.337 309.212 439.263 356.799C450.346 405.073 450.869 455.412 445.851 504.5M407.764 7.5C386.877 45.191 369.043 88.726 364.323 132.593M66.149 504.5C61.131 455.412 61.653 405.073 72.737 356.799C83.663 309.211 111.533 271.353 132.587 228.179C167.653 156.27 140.56 73.048 104.236 7.5" stroke="black" stroke-width="15" stroke-miterlimit="10" stroke-linecap="round" stroke-linejoin="round"/>
<path d="M64.9102 406.514C92.1882 408.896 119.241 413.384 145.827 419.938C180.919 428.597 210.899 439.815 235.32 450.809C240.79 453.273 246.72 454.547 252.719 454.547C258.718 454.547 264.649 453.273 270.118 450.809C294.539 439.815 324.519 428.597 359.611 419.938C388.315 412.862 417.56 408.194 447.04 405.983M166.611 328.781C135.177 321.479 109.984 311.58 92.3962 303.541M419.677 303.693C387.489 318.365 329.123 339.556 253.463 339.035C235.898 338.916 218.361 337.627 200.967 335.178" stroke="black" stroke-width="15" stroke-miterlimit="10" stroke-linecap="round" stroke-linejoin="round"/>
</g>
<defs>
<clipPath id="clip0_797_666">
<rect width="512" height="512" fill="white"/>
</clipPath>
</defs>
</svg>
