<svg width="512" height="512" viewBox="0 0 512 512" fill="none" xmlns="http://www.w3.org/2000/svg">
<path d="M370.185 250.792C341.145 227.44 298.689 231.304 272.337 257.648L256.001 273.984L239.665 257.648C213.313 231.296 170.857 227.432 141.817 250.792C133.849 257.152 127.313 265.123 122.637 274.183C117.96 283.242 115.249 293.187 114.679 303.367C114.11 313.546 115.696 323.731 119.333 333.256C122.97 342.781 128.576 351.43 135.785 358.64L247.801 470.656C249.976 472.83 252.926 474.051 256.001 474.051C259.076 474.051 262.026 472.83 264.201 470.656L376.217 358.64C383.425 351.43 389.03 342.78 392.666 333.255C396.302 323.731 397.888 313.546 397.318 303.367C396.749 293.188 394.038 283.243 389.362 274.184C384.687 265.124 378.152 257.153 370.185 250.792Z" fill="#FB5058"/>
<path d="M192.263 48.9039L164.503 182.304C163.906 185.167 164.408 188.149 165.907 190.659C167.407 193.169 169.796 195.024 172.599 195.856L245.431 217.488L238.303 324.176C237.775 332.136 248.231 335.504 252.447 328.744L342.255 184.672C343.162 183.218 343.737 181.581 343.94 179.879C344.142 178.177 343.966 176.451 343.426 174.825C342.885 173.198 341.992 171.711 340.81 170.469C339.629 169.227 338.188 168.261 336.591 167.64L289.735 149.408L319.487 72.9039C320.114 71.2876 320.374 69.5518 320.246 67.8227C320.118 66.0936 319.607 64.4148 318.749 62.9083C317.89 61.4018 316.707 60.1056 315.285 59.1139C313.863 58.1223 312.237 57.4602 310.527 57.1759L205.583 39.7759C202.614 39.2833 199.569 39.9583 197.086 41.6597C194.603 43.3611 192.875 45.957 192.263 48.9039Z" fill="#FFCE2D"/>
<path d="M375.168 244.592C360.92 233.152 343.272 227.256 325 227.456L356.472 176.96C357.728 174.944 358.024 172.464 357.28 170.208C356.905 169.092 356.291 168.072 355.48 167.219C354.668 166.366 353.68 165.702 352.584 165.272L300.088 144.84L332.144 62.4078C332.579 61.2999 332.759 60.1087 332.674 58.9217C332.588 57.7347 332.238 56.5819 331.649 55.5479C331.06 54.5138 330.246 53.6247 329.269 52.9457C328.292 52.2667 327.175 51.8151 326 51.6238L195.84 30.0558C193.804 29.7334 191.722 30.2029 190.021 31.3679C188.321 32.5328 187.131 34.3048 186.696 36.3198L154.48 191.168C154.072 193.131 154.416 195.176 155.444 196.898C156.473 198.619 158.11 199.892 160.032 200.464L237.024 223.328L235.656 243.744C206 221.832 165.496 221.536 136.84 244.576C118.672 259.128 107.968 279.856 106.672 302.92C106.053 314.225 107.819 325.533 111.854 336.111C115.89 346.689 122.105 356.3 130.096 364.32L242.184 476.32C245.992 480.128 251 482.032 256 482.032C261 482.032 266.008 480.128 269.816 476.32L381.904 364.32C389.894 356.301 396.107 346.691 400.141 336.114C404.175 325.538 405.94 314.231 405.32 302.928C404.032 279.864 393.32 259.144 375.168 244.592ZM171.64 187.224L200.808 47.0958L313.664 65.7998L282.28 146.504C281.512 148.48 281.56 150.681 282.413 152.622C283.267 154.563 284.856 156.086 286.832 156.856L337.824 176.696L246.28 324.712L253.416 218.024C253.537 216.213 253.038 214.414 252.001 212.924C250.965 211.434 249.452 210.341 247.712 209.824L171.64 187.224ZM370.584 353.008L258.496 465.008C257.826 465.657 256.929 466.021 255.996 466.021C255.063 466.021 254.166 465.657 253.496 465.008L141.416 353.016C135.013 346.588 130.033 338.885 126.8 330.407C123.566 321.93 122.152 312.867 122.648 303.808C123.68 285.344 132.264 268.736 146.848 257.056C172.36 236.512 209.848 239.192 234.016 263.28L234.32 263.584L230.304 323.632C230.031 327.124 230.954 330.606 232.921 333.505C234.888 336.403 237.782 338.547 241.128 339.584C244.449 340.698 248.049 340.65 251.339 339.448C254.629 338.246 257.412 335.961 259.232 332.968L314.36 244.52C332.672 241.32 351.04 245.736 365.152 257.072C379.72 268.744 388.312 285.352 389.336 303.816C389.837 312.872 388.426 321.932 385.195 330.407C381.964 338.882 376.986 346.583 370.584 353.008ZM84.3281 165.608C82.6296 164.336 81.506 162.441 81.2045 160.341C80.9029 158.24 81.4481 156.106 82.7201 154.408C83.992 152.709 85.8866 151.586 87.987 151.284C90.0874 150.983 92.2216 151.528 93.9201 152.8L123.616 175.048C124.667 175.833 125.508 176.864 126.066 178.052C126.624 179.239 126.881 180.545 126.815 181.855C126.748 183.165 126.36 184.439 125.685 185.563C125.01 186.688 124.069 187.629 122.944 188.304L110.168 195.984L130.808 211.016C132.523 212.266 133.672 214.146 134.002 216.242C134.331 218.339 133.814 220.48 132.564 222.196C131.314 223.911 129.434 225.06 127.338 225.389C125.241 225.719 123.099 225.202 121.384 223.952L90.992 201.816C89.9251 201.038 89.0671 200.008 88.4946 198.818C87.922 197.628 87.6527 196.315 87.7105 194.995C87.7683 193.676 88.1515 192.391 88.8259 191.256C89.5004 190.121 90.4451 189.17 91.576 188.488L104.496 180.72L84.3281 165.608ZM100.12 265.32C99.8556 266.337 99.3933 267.292 98.7596 268.13C98.1259 268.969 97.3332 269.674 96.4268 270.206C95.5204 270.738 94.5181 271.086 93.4772 271.23C92.4362 271.375 91.377 271.313 90.3601 271.048L53.9761 261.568C52.6978 261.235 51.5219 260.591 50.5532 259.693C49.5846 258.795 48.8533 257.671 48.4247 256.422C47.9961 255.173 47.8835 253.836 48.097 252.533C48.3104 251.23 48.8433 249.999 49.6481 248.952L58.8241 236.992L34.5041 230.304C33.4913 230.025 32.5434 229.549 31.7145 228.904C30.8856 228.259 30.1918 227.457 29.6729 226.543C29.1541 225.63 28.8201 224.623 28.6903 223.581C28.5604 222.538 28.6371 221.481 28.9161 220.468C29.195 219.455 29.6707 218.507 30.3159 217.678C30.9612 216.849 31.7634 216.156 32.6767 215.637C33.5901 215.118 34.5967 214.784 35.6391 214.654C36.6815 214.524 37.7393 214.601 38.7521 214.88L74.5361 224.72C75.8002 225.068 76.9595 225.721 77.9119 226.622C78.8643 227.523 79.5806 228.644 79.9978 229.887C80.415 231.13 80.5204 232.457 80.3045 233.75C80.0887 235.043 79.5583 236.264 78.7601 237.304L69.6881 249.12L94.3921 255.56C95.4092 255.824 96.3642 256.287 97.2026 256.92C98.0409 257.554 98.7462 258.347 99.2782 259.253C99.8101 260.159 100.158 261.162 100.303 262.203C100.447 263.244 100.385 264.303 100.12 265.32ZM379.432 222.192C378.814 221.342 378.369 220.38 378.123 219.358C377.877 218.337 377.834 217.277 377.997 216.239C378.161 215.202 378.527 214.206 379.075 213.31C379.623 212.414 380.343 211.634 381.192 211.016L401.832 195.984L389.056 188.304C387.933 187.628 386.993 186.686 386.319 185.561C385.645 184.437 385.258 183.164 385.192 181.855C385.126 180.545 385.382 179.24 385.939 178.053C386.495 176.866 387.335 175.834 388.384 175.048L418.08 152.8C418.921 152.17 419.878 151.712 420.896 151.452C421.914 151.192 422.973 151.135 424.013 151.284C425.053 151.434 426.054 151.786 426.957 152.322C427.861 152.858 428.65 153.567 429.28 154.408C429.91 155.249 430.368 156.206 430.628 157.224C430.888 158.242 430.945 159.301 430.796 160.341C430.646 161.381 430.294 162.381 429.758 163.285C429.222 164.189 428.513 164.978 427.672 165.608L407.496 180.728L420.416 188.496C421.55 189.175 422.498 190.125 423.175 191.261C423.852 192.396 424.237 193.682 424.295 195.003C424.352 196.323 424.082 197.638 423.507 198.828C422.932 200.019 422.071 201.048 421 201.824L390.608 223.96C389.759 224.579 388.795 225.024 387.774 225.27C386.752 225.516 385.691 225.558 384.653 225.394C383.615 225.23 382.62 224.863 381.724 224.313C380.828 223.764 380.049 223.043 379.432 222.192ZM477.496 230.304L453.176 236.992L462.352 248.952C463.157 249.999 463.69 251.23 463.903 252.533C464.117 253.836 464.004 255.173 463.575 256.422C463.147 257.671 462.416 258.795 461.447 259.693C460.478 260.591 459.302 261.235 458.024 261.568L421.64 271.048C420.623 271.313 419.564 271.374 418.523 271.23C417.482 271.085 416.48 270.737 415.574 270.205C414.667 269.673 413.875 268.968 413.241 268.13C412.607 267.292 412.145 266.337 411.88 265.32C411.615 264.303 411.553 263.244 411.698 262.203C411.843 261.162 412.191 260.16 412.723 259.254C413.255 258.347 413.96 257.555 414.798 256.921C415.636 256.287 416.591 255.825 417.608 255.56L442.312 249.12L433.24 237.304C432.438 236.265 431.904 235.044 431.686 233.75C431.468 232.456 431.573 231.128 431.99 229.883C432.408 228.639 433.126 227.517 434.081 226.616C435.035 225.716 436.198 225.064 437.464 224.72L473.248 214.88C475.282 214.352 477.442 214.645 479.262 215.696C481.081 216.748 482.414 218.473 482.972 220.499C483.53 222.525 483.269 224.689 482.244 226.524C481.219 228.358 479.514 229.716 477.496 230.304Z" fill="black"/>
</svg>
