<svg width="512" height="511" viewBox="0 0 512 511" fill="none" xmlns="http://www.w3.org/2000/svg">
<path d="M202.75 218.657H4.16406V4.17236H202.75C208.572 4.17236 213.291 8.89173 213.291 14.7132V208.116C213.287 213.937 208.572 218.657 202.75 218.657Z" fill="#6BDDDD"/>
<path d="M4.16406 193.043V29.7856H177.774C183.596 29.7856 188.315 34.505 188.315 40.3264V182.502C188.315 188.323 183.596 193.043 177.774 193.043H4.16406Z" fill="#E0EBFC"/>
<path d="M160.555 176.729H123.548C122.356 176.73 121.176 176.495 120.075 176.039C118.974 175.583 117.974 174.915 117.131 174.073C116.289 173.23 115.621 172.23 115.165 171.129C114.709 170.028 114.474 168.848 114.474 167.656V53.7126C114.474 52.5211 114.709 51.3412 115.165 50.2404C115.621 49.1395 116.289 48.1393 117.132 47.2968C117.974 46.4543 118.975 45.786 120.076 45.3302C121.177 44.8744 122.356 44.6399 123.548 44.6402H160.556C161.747 44.6401 162.927 44.8746 164.028 45.3305C165.129 45.7864 166.129 46.4547 166.971 47.2971C167.814 48.1396 168.482 49.1398 168.938 50.2406C169.394 51.3414 169.628 52.5212 169.628 53.7126V167.656C169.629 168.848 169.394 170.028 168.938 171.129C168.483 172.23 167.814 173.23 166.972 174.073C166.129 174.916 165.129 175.584 164.028 176.04C162.926 176.496 161.746 176.73 160.555 176.729ZM4.16406 176.729V44.6392H85.7254C86.7354 44.6392 87.7355 44.8381 88.6686 45.2247C89.6017 45.6112 90.4496 46.1778 91.1637 46.892C91.8778 47.6062 92.4443 48.4541 92.8307 49.3873C93.2171 50.3205 93.4159 51.3206 93.4158 52.3306V169.039C93.4158 171.079 92.6056 173.035 91.1633 174.477C89.7211 175.919 87.765 176.729 85.7254 176.729H4.16406Z" fill="#B9BEFC"/>
<path d="M202.749 222.819H4.16262C1.86589 222.819 0 220.953 0 218.657V4.17238C0 1.87566 1.86589 0.00976562 4.16262 0.00976562H202.749C210.855 0.00976562 217.452 6.60752 217.452 14.7132V208.116C217.452 216.222 210.854 222.819 202.749 222.819ZM8.32524 214.494H202.749C204.44 214.492 206.061 213.819 207.256 212.623C208.452 211.428 209.125 209.807 209.127 208.116V14.7132C209.125 13.0221 208.452 11.4008 207.257 10.2049C206.061 9.009 204.44 8.33617 202.749 8.33396H8.32524V214.494Z" fill="#3762CC"/>
<path d="M177.773 197.201H4.16262C1.86589 197.201 0 195.335 0 193.038V29.7857C0 27.4889 1.86589 25.623 4.16262 25.623H177.773C185.88 25.623 192.472 32.2208 192.472 40.3265V182.502C192.476 190.608 185.879 197.201 177.773 197.201ZM8.32524 188.876H177.773C179.463 188.874 181.083 188.202 182.279 187.007C183.474 185.812 184.146 184.192 184.147 182.502V40.3265C184.147 36.8101 181.285 33.9483 177.773 33.9483H8.32524V188.876Z" fill="#3762CC"/>
<path d="M343.889 300.222L306.637 430.421H191.934V450.353H321.438V450.287L321.666 450.353L363.053 305.706L343.889 300.222Z" fill="#E0EBFC"/>
<path d="M321.665 454.52H191.932C189.636 454.52 187.77 452.654 187.77 450.357V430.421C187.77 428.125 189.636 426.259 191.932 426.259H303.499L339.888 299.076C340.038 298.551 340.29 298.06 340.63 297.632C340.97 297.204 341.391 296.847 341.869 296.582C342.347 296.317 342.873 296.149 343.416 296.087C343.959 296.025 344.509 296.071 345.034 296.223L364.198 301.706C365.259 302.009 366.157 302.722 366.692 303.687C367.228 304.652 367.359 305.791 367.056 306.852L325.669 451.499C325.518 452.025 325.265 452.517 324.924 452.945C324.583 453.373 324.16 453.73 323.681 453.995C323.065 454.338 322.371 454.519 321.665 454.52ZM196.096 446.194H318.527L357.905 308.564L346.746 305.372L310.641 431.568C310.392 432.438 309.866 433.203 309.144 433.748C308.421 434.293 307.541 434.588 306.636 434.588H196.096V446.194Z" fill="#3762CC"/>
<path d="M444.088 289.499L336.328 351.715C330.352 355.161 322.717 353.116 319.267 347.145L301.213 315.877C297.767 309.901 299.811 302.267 305.787 298.816L413.547 236.599C419.523 233.153 427.157 235.198 430.608 241.173L448.662 272.438C452.108 278.413 450.063 286.052 444.088 289.499Z" fill="#F9A7A7"/>
<path d="M330.104 357.547C324.35 357.547 318.74 354.56 315.658 349.226L297.605 317.958C293.015 310.007 295.752 299.808 303.703 295.214L411.463 232.999C413.354 231.9 415.445 231.188 417.613 230.902C419.782 230.616 421.986 230.762 424.097 231.332C426.212 231.892 428.195 232.866 429.93 234.198C431.666 235.53 433.119 237.194 434.207 239.092L452.265 270.36C456.854 278.311 454.117 288.514 446.167 293.104L338.403 355.324C335.88 356.781 333.018 357.548 330.105 357.547H330.104ZM419.777 239.083C418.319 239.086 416.887 239.473 415.626 240.205L307.866 302.421C303.89 304.717 302.524 309.82 304.817 313.795L322.87 345.064C325.167 349.039 330.272 350.401 334.244 348.109L442.004 285.888C445.979 283.596 447.346 278.494 445.053 274.519L427 243.25C426.456 242.301 425.729 241.469 424.861 240.803C423.992 240.138 423 239.651 421.942 239.373C421.236 239.182 420.508 239.085 419.777 239.083Z" fill="#3762CC"/>
<path d="M392.324 227.853L333.348 231.245C329.585 231.464 325.863 230.367 322.82 228.141L206.254 143.063C203.86 141.314 201.102 140.127 198.185 139.592C195.268 139.057 192.268 139.187 189.409 139.973L66.3151 173.804L4.16406 195.161V316.012H27.4612L66.3151 294.161L192.461 220.929C193.733 220.191 195.178 219.804 196.648 219.807C198.119 219.809 199.562 220.203 200.831 220.946L273.909 263.779C277.462 265.861 279.649 269.693 279.649 273.836C279.649 277.853 280.865 281.775 283.132 285.075L288.462 292.84C289.872 294.903 291.765 296.591 293.975 297.758C296.185 298.926 298.646 299.537 301.145 299.539C303.849 299.539 306.511 298.82 308.852 297.458L409.832 238.746L407.743 235.596C406.076 233.069 403.775 231.023 401.069 229.664C398.363 228.305 395.347 227.681 392.324 227.853Z" fill="#F9CFCF"/>
<path d="M27.4598 320.173H4.16262C1.86589 320.173 0 318.307 0 316.011V195.16C0.000402217 194.294 0.271355 193.449 0.775053 192.743C1.27875 192.038 1.99007 191.507 2.80977 191.226L64.9597 169.864C65.0451 169.835 65.1262 169.811 65.2074 169.786L188.306 135.958C195.359 134.018 202.793 135.384 208.708 139.701L325.273 224.774C327.538 226.429 330.307 227.247 333.107 227.088L392.087 223.693C399.677 223.258 407.002 226.933 411.213 233.295L413.302 236.445C413.937 237.401 414.148 238.575 413.884 239.693C413.755 240.245 413.515 240.765 413.178 241.221C412.841 241.676 412.414 242.059 411.924 242.344L310.944 301.055C307.968 302.787 304.587 303.7 301.144 303.702C297.968 303.699 294.841 302.923 292.033 301.44C289.225 299.958 286.82 297.814 285.026 295.193L279.7 287.433C276.948 283.433 275.479 278.691 275.485 273.836C275.485 271.181 274.074 268.701 271.801 267.368L198.724 224.539C198.092 224.167 197.372 223.971 196.638 223.969C195.904 223.968 195.183 224.162 194.549 224.531L68.4022 297.758L29.5005 319.636C28.8775 319.987 28.1748 320.172 27.4598 320.173ZM8.32524 311.848H26.3702L64.2729 290.531L190.371 217.331C192.28 216.223 194.449 215.641 196.657 215.645C198.864 215.65 201.031 216.24 202.936 217.355L276.013 260.189C280.826 263.006 283.81 268.238 283.81 273.836C283.81 277.027 284.762 280.101 286.562 282.726L291.891 290.486C292.92 291.992 294.3 293.224 295.912 294.076C297.524 294.928 299.319 295.374 301.143 295.376C303.111 295.376 305.054 294.852 306.757 293.86L403.912 237.377C401.286 233.799 397.002 231.758 392.563 232.01L333.587 235.405C328.861 235.665 324.19 234.287 320.363 231.502L203.798 146.429C201.912 145.043 199.736 144.103 197.434 143.68C195.132 143.258 192.764 143.363 190.508 143.989L67.5406 177.782L8.32524 198.131V311.848Z" fill="#3762CC"/>
<path d="M505.034 415.958L480.225 275.246C475.115 246.253 447.465 226.892 418.468 232.007L379.989 238.791C350.996 243.905 331.635 271.555 336.749 300.548L373.095 506.691H507.839V447.991C507.838 437.252 506.9 426.534 505.034 415.958Z" fill="#6BDDDD"/>
<path d="M507.841 510.854H373.1C372.121 510.854 371.174 510.509 370.424 509.88C369.674 509.251 369.169 508.378 368.999 507.414L332.649 301.271C327.145 270.06 348.06 240.194 379.267 234.69L417.747 227.905C432.865 225.238 448.117 228.621 460.69 237.425C473.267 246.23 481.662 259.405 484.324 274.523L509.133 415.235C511.039 426.05 511.997 437.01 511.999 447.991V506.691C512.003 508.988 510.138 510.854 507.841 510.854ZM376.588 502.528H503.678V447.991C503.678 437.52 502.759 426.983 500.938 416.682L476.129 275.975C473.849 263.048 466.669 251.78 455.917 244.25C445.165 236.718 432.112 233.827 419.194 236.108L380.714 242.893C354.027 247.6 336.145 273.137 340.848 299.828L376.588 502.528Z" fill="#3762CC"/>
<path d="M383.87 220.217C341.028 227.771 300.178 199.169 292.625 156.328L285.878 118.058C278.324 75.2168 306.93 34.3669 349.767 26.8139C392.609 19.2618 433.459 47.8632 441.012 90.7049L447.761 128.978C455.309 171.816 426.708 212.664 383.87 220.217Z" fill="#F9CFCF"/>
<path d="M363.258 201.319L421.347 191.079L428.262 230.295L370.173 240.535L363.258 201.319Z" fill="#F9CFCF"/>
<path d="M316.168 155.165C312.221 155.912 308.534 153.489 307.936 149.758L305.774 136.233C305.176 132.497 307.892 128.863 311.839 128.116C315.79 127.367 319.473 129.786 320.07 133.522L322.237 147.047C322.835 150.778 320.119 154.412 316.168 155.164V155.165Z" fill="#3762CC"/>
<path d="M4.16406 506.691H183.608C185.816 506.691 187.934 505.814 189.495 504.252C191.056 502.691 191.934 500.573 191.934 498.365V452.15C191.934 449.942 191.056 447.824 189.495 446.263C187.934 444.702 185.816 443.825 183.608 443.825H4.16406V506.691Z" fill="#4671C6"/>
<path d="M193.242 342.304H4.16406V443.824H193.242C197.474 443.824 200.905 439.723 200.905 434.662V351.47C200.905 346.405 197.474 342.304 193.242 342.304Z" fill="#F9A7A7"/>
<path d="M370.187 244.681C369.208 244.681 368.261 244.336 367.512 243.707C366.762 243.078 366.259 242.205 366.089 241.242L363.271 225.282C326.19 222.185 295.04 193.974 288.532 157.051L281.78 118.778C273.84 73.7451 304.016 30.6516 349.044 22.7124C370.861 18.8631 392.87 23.7448 411.007 36.4491C429.154 49.1513 441.263 68.1641 445.111 89.9762L451.858 128.248C456.696 155.668 447.638 183.237 427.603 202.473L432.374 229.554C432.47 230.091 432.458 230.642 432.34 231.175C432.222 231.708 432 232.212 431.687 232.659C431.054 233.564 430.088 234.181 429 234.375L370.911 244.615C370.672 244.66 370.427 244.68 370.188 244.68L370.187 244.681ZM363.605 29.7618C359.251 29.7618 354.869 30.1437 350.491 30.9159C309.983 38.0579 282.836 76.8265 289.978 117.335L296.727 155.607C302.76 189.819 332.304 215.717 366.979 217.181C367.927 217.22 368.833 217.582 369.547 218.206C370.26 218.831 370.739 219.681 370.903 220.616L373.56 235.697L423.45 226.9L419.007 201.701C418.885 201.009 418.941 200.298 419.168 199.633C419.395 198.969 419.788 198.372 420.308 197.9C439.402 180.542 448.13 155.046 443.658 129.696L436.914 91.4279C433.455 71.8022 422.561 54.7001 406.236 43.2737C393.552 34.3917 378.772 29.7618 363.605 29.7618Z" fill="#3762CC"/>
<path d="M453.588 219.872L398.209 229.636C391.421 230.832 384.941 226.299 383.746 219.507L348.454 19.3678C348.277 18.37 348.299 17.3472 348.519 16.3579C348.738 15.3686 349.15 14.4322 349.731 13.6023C350.312 12.7724 351.052 12.0652 351.907 11.5211C352.761 10.9771 353.715 10.6069 354.713 10.4317L382.799 5.48135C429.007 -2.66906 473.076 28.1884 481.227 74.3997L496.157 159.079C501.189 187.62 482.133 214.839 453.588 219.872Z" fill="#4671C6"/>
<path d="M361.853 95.3514L279.223 109.921C278.225 110.097 277.202 110.075 276.213 109.856C275.224 109.637 274.287 109.225 273.457 108.644C272.627 108.063 271.919 107.324 271.375 106.47C270.83 105.615 270.46 104.662 270.284 103.664L267.772 89.4165C261.759 55.3184 284.527 22.8063 318.625 16.7944L339.52 13.1105C340.517 12.9341 341.54 12.956 342.529 13.1749C343.519 13.3939 344.455 13.8057 345.285 14.3867C346.116 14.9677 346.823 15.7065 347.368 16.5611C347.912 17.4156 348.283 18.369 348.459 19.3669L361.853 95.3514Z" fill="#4671C6"/>
<path d="M396.004 233.995C392.622 233.995 389.321 232.957 386.492 230.978C384.696 229.728 383.166 228.135 381.99 226.29C380.814 224.445 380.016 222.385 379.642 220.23L358.475 100.173L279.947 114.019C273.495 115.148 267.321 110.834 266.182 104.384L263.67 90.1355C260.569 72.5505 264.502 54.8105 274.748 40.1841C284.988 25.5587 300.312 15.7943 317.897 12.6921L338.793 9.0092C341.578 8.51764 344.447 9.03807 346.882 10.4765C348.675 8.28517 351.197 6.81329 353.987 6.33055L382.072 1.37495C405.525 -2.75436 429.17 2.48845 448.671 16.1439C468.175 29.7973 481.192 50.2295 485.325 73.6724L500.256 158.356C502.882 173.254 499.549 188.283 490.874 200.677C482.195 213.071 469.212 221.344 454.313 223.97L398.935 233.734C397.955 233.909 396.976 233.995 396.004 233.995ZM361.855 91.1887C362.832 91.1891 363.779 91.5342 364.527 92.1632C365.276 92.7922 365.779 93.665 365.948 94.628L387.843 218.782C388.03 219.86 388.428 220.889 389.016 221.812C389.603 222.734 390.367 223.531 391.265 224.156C392.159 224.787 393.17 225.233 394.238 225.47C395.306 225.707 396.411 225.729 397.488 225.535L452.867 215.774C479.099 211.145 496.684 186.039 492.058 159.799L477.123 75.1199C473.375 53.8676 461.574 35.343 443.895 22.9613C426.216 10.5827 404.773 5.83104 383.521 9.57843L355.436 14.5299C354.976 14.609 354.536 14.7787 354.141 15.0292C353.747 15.2796 353.406 15.6058 353.139 15.9889C352.87 16.3712 352.68 16.8031 352.58 17.2595C352.479 17.716 352.47 18.1878 352.553 18.6477L352.696 19.4605C352.888 20.5478 352.641 21.667 352.008 22.5719C351.376 23.4769 350.409 24.0934 349.322 24.286C348.235 24.4759 347.117 24.2275 346.213 23.5953C345.308 22.963 344.691 21.9983 344.497 20.9122L344.354 20.0901C344.189 19.1626 343.662 18.3384 342.891 17.7982C342.119 17.258 341.164 17.046 340.236 17.2085L319.342 20.8924C303.947 23.6075 290.529 32.1554 281.562 44.9607C272.595 57.7659 269.151 73.2977 271.866 88.6932L274.378 102.941C274.542 103.869 275.068 104.694 275.841 105.234C276.613 105.775 277.568 105.987 278.496 105.823L361.127 91.2542C361.375 91.2095 361.614 91.1887 361.855 91.1887Z" fill="#3762CC"/>
<path d="M397.508 144.424C397.508 159.339 385.419 171.429 370.504 171.429C355.59 171.429 343.496 159.339 343.496 144.424C343.496 129.51 355.59 117.42 370.504 117.42C385.419 117.42 397.509 129.51 397.509 144.425L397.508 144.424Z" fill="#F9CFCF"/>
<path d="M336.548 223.665L379.378 216.112C381.642 215.709 383.114 213.323 382.667 210.774L373.476 158.665C373.028 156.115 370.829 154.376 368.565 154.775L293.731 167.97C291.098 168.433 289.614 171.543 290.715 174.323C298.784 194.778 312.638 211.469 329.528 222.164C331.682 223.531 334.159 224.083 336.548 223.665Z" fill="#E0EBFC"/>
<path d="M334.971 227.962C332.324 227.962 329.67 227.181 327.304 225.685C309.426 214.36 295.055 196.664 286.84 175.851C285.812 173.242 285.99 170.367 287.332 167.965C288.555 165.783 290.625 164.292 293.007 163.868L367.841 150.673C370.097 150.278 372.438 150.888 374.288 152.348C376.015 153.718 377.186 155.701 377.576 157.942L386.767 210.055C387.613 214.856 384.625 219.413 380.105 220.209L337.276 227.762C336.516 227.897 335.743 227.962 334.971 227.962ZM294.458 172.067C294.56 172.067 294.43 172.396 294.588 172.799C302.161 191.978 315.361 208.267 331.759 218.652C333.056 219.474 334.503 219.799 335.828 219.563L378.629 212.018C378.536 212.018 378.629 211.815 378.572 211.498L369.381 159.384C369.321 159.034 369.142 158.88 369.097 158.855L294.458 172.067Z" fill="#3762CC"/>
<path d="M261.352 286.77L383.809 278.274C398.609 277.25 411.67 287.872 413.679 302.567C415.849 318.416 404.422 332.885 388.499 334.433C351.788 337.994 290.503 343.884 264.958 346.336C257.199 347.082 249.369 346.37 241.873 344.234L131.438 312.806L143.405 270.753L256.15 286.588C257.873 286.832 259.617 286.893 261.353 286.77H261.352Z" fill="#F9CFCF"/>
<path d="M258.949 350.791C252.798 350.791 246.693 349.938 240.729 348.239L130.295 316.811C129.769 316.661 129.278 316.41 128.85 316.07C128.422 315.731 128.064 315.311 127.799 314.833C127.533 314.356 127.364 313.831 127.301 313.288C127.238 312.745 127.283 312.195 127.433 311.67L139.4 269.616C139.674 268.649 140.289 267.814 141.131 267.266C141.973 266.717 142.985 266.492 143.98 266.632L256.73 282.47C258.165 282.668 259.617 282.719 261.063 282.62L383.519 274.124C400.479 272.953 415.504 285.197 417.8 302.006C419.008 310.807 416.637 319.489 411.13 326.458C405.625 333.418 397.73 337.722 388.901 338.58C347.721 342.564 306.539 346.532 265.356 350.482C263.218 350.685 261.078 350.791 258.949 350.791ZM136.578 309.946L243.01 340.234C250.007 342.228 257.317 342.893 264.559 342.193C290.104 339.743 351.384 333.852 388.095 330.291C394.648 329.652 400.514 326.458 404.596 321.291C408.685 316.121 410.445 309.673 409.551 303.132C407.844 290.653 396.637 281.56 384.1 282.43L261.64 290.925H261.636C259.612 291.066 257.579 290.995 255.571 290.713L146.416 275.38L136.578 309.946Z" fill="#3762CC"/>
<path d="M432.296 303.002C429.3 281.076 409.817 265.23 387.743 266.763L321.32 271.373L325.701 358.401L395.41 350.462C418.841 347.791 435.492 326.368 432.296 303.002Z" fill="#6BDDDD"/>
<path d="M325.702 362.563C324.716 362.563 323.761 362.213 323.007 361.576C322.574 361.208 322.221 360.755 321.969 360.246C321.717 359.736 321.572 359.181 321.543 358.613L317.162 271.58C317.106 270.491 317.479 269.424 318.202 268.608C318.925 267.792 319.939 267.293 321.027 267.217L387.454 262.607C411.642 260.929 433.138 278.425 436.422 302.433C438.121 314.857 434.816 327.149 427.126 337.047C419.43 346.942 408.337 353.178 395.877 354.596L326.174 362.536C326.017 362.555 325.86 362.564 325.702 362.563ZM325.682 275.238L329.636 353.762L394.937 346.324C405.149 345.161 414.243 340.052 420.552 331.938C426.861 323.828 429.568 313.747 428.174 303.563C425.482 283.88 407.812 269.543 388.031 270.917L325.682 275.238Z" fill="#3762CC"/>
<path d="M343.889 337.686L306.637 467.885H191.934V487.817H321.438V487.751L321.666 487.817L363.053 343.17L343.889 337.686Z" fill="#E0EBFC"/>
<path d="M183.607 510.853H4.16262C1.86589 510.853 0 508.987 0 506.691V443.825C0 441.527 1.86589 439.662 4.16262 439.662H183.607C190.493 439.662 196.095 445.263 196.095 452.15V498.365C196.095 505.251 190.493 510.853 183.607 510.853ZM8.32524 502.528H183.607C185.904 502.528 187.769 500.662 187.769 498.365V452.15C187.769 449.852 185.904 447.987 183.607 447.987H8.32524V502.528Z" fill="#3762CC"/>
<path d="M193.24 447.986H4.16262C1.86589 447.986 0 446.12 0 443.824V342.304C0 341.2 0.43856 340.141 1.2192 339.36C1.99985 338.58 3.05862 338.141 4.16262 338.141H193.24C199.761 338.141 205.066 344.121 205.066 351.466V434.658C205.066 442.007 199.761 447.986 193.24 447.986ZM8.32524 439.661H193.24C195.139 439.661 196.741 437.368 196.741 434.662V351.466C196.741 348.755 195.138 346.466 193.24 346.466H8.32524V439.661ZM321.664 491.983H191.931C189.635 491.983 187.768 490.117 187.768 487.82V467.885C187.768 465.588 189.635 463.722 191.931 463.722H303.498L339.887 336.539C340.037 336.014 340.289 335.523 340.629 335.095C340.969 334.667 341.39 334.31 341.868 334.045C342.346 333.78 342.872 333.612 343.415 333.55C343.958 333.489 344.508 333.535 345.033 333.686L364.197 339.169C365.258 339.473 366.155 340.185 366.691 341.15C367.227 342.116 367.358 343.254 367.055 344.315L325.668 488.962C325.517 489.488 325.264 489.98 324.923 490.408C324.581 490.837 324.159 491.194 323.68 491.459C323.064 491.802 322.37 491.982 321.664 491.983ZM196.095 483.658H318.526L357.904 346.027L346.745 342.835L310.64 469.031C310.391 469.901 309.865 470.667 309.143 471.212C308.42 471.756 307.54 472.051 306.635 472.051H196.095V483.658Z" fill="#3762CC"/>
<path d="M444.088 326.962L336.328 389.178C330.352 392.625 322.717 390.58 319.267 384.608L301.213 353.34C297.767 347.365 299.811 339.73 305.787 336.279L413.547 274.063C419.523 270.616 427.157 272.661 430.608 278.637L448.662 309.901C452.108 315.876 450.063 323.516 444.088 326.962Z" fill="#F9A7A7"/>
<path d="M330.104 395.011C324.35 395.011 318.74 392.023 315.658 386.69L297.605 355.421C293.015 347.471 295.752 337.271 303.703 332.678L411.463 270.462C413.354 269.364 415.445 268.651 417.613 268.365C419.782 268.079 421.986 268.225 424.097 268.795C426.212 269.355 428.195 270.33 429.93 271.662C431.666 272.994 433.119 274.657 434.207 276.555L452.265 307.824C456.854 315.774 454.117 325.978 446.167 330.567L338.403 392.788C335.88 394.245 333.018 395.011 330.105 395.011H330.104ZM419.777 276.547C418.319 276.55 416.887 276.936 415.626 277.669L307.866 339.884C303.89 342.181 302.524 347.283 304.817 351.258L322.87 382.527C325.167 386.502 330.272 387.865 334.244 385.572L442.004 323.351C445.979 321.06 447.346 315.957 445.053 311.982L427 280.714C426.456 279.764 425.729 278.932 424.861 278.267C423.992 277.601 423 277.115 421.942 276.836C421.236 276.646 420.508 276.548 419.777 276.547Z" fill="#3762CC"/>
<path d="M130.542 144.652L4.16406 177.527V342.304H139.852V152.709C139.852 147.36 135.294 143.413 130.542 144.652Z" fill="#A4C9FF"/>
<path d="M139.85 346.467H4.16262C1.86589 346.467 1.07947e-09 344.601 1.07947e-09 342.304V177.527C-2.09747e-05 176.605 0.305653 175.71 0.869119 174.981C1.43258 174.252 2.222 173.73 3.11364 173.498L129.496 140.62C132.862 139.742 136.399 140.481 139.195 142.644C142.216 144.981 144.017 148.742 144.017 152.705V342.304C144.016 343.408 143.576 344.467 142.795 345.247C142.014 346.027 140.955 346.466 139.85 346.467ZM8.32524 338.141H135.688V152.709C135.688 151.303 135.095 150.002 134.102 149.233C133.57 148.823 132.707 148.392 131.586 148.682L8.32524 180.745V338.141Z" fill="#3762CC"/>
<path d="M407.747 273.056C406.078 270.529 403.775 268.485 401.069 267.127C398.363 265.768 395.348 265.144 392.325 265.315L333.349 268.71C329.585 268.928 325.863 267.83 322.82 265.604L206.254 180.527C203.86 178.777 201.102 177.591 198.185 177.055C195.269 176.52 192.269 176.65 189.409 177.436L139.855 191.055V288.929L192.461 258.393C193.732 257.654 195.177 257.266 196.648 257.268C198.119 257.271 199.562 257.665 200.831 258.409L273.908 301.239C275.66 302.269 277.111 303.739 278.119 305.503C279.126 307.267 279.655 309.264 279.653 311.295C279.653 315.312 280.868 319.235 283.132 322.54L288.461 330.3C289.872 332.362 291.765 334.05 293.974 335.217C296.184 336.385 298.645 336.996 301.144 336.999C303.851 336.999 306.51 336.279 308.856 334.921L409.836 276.21L407.747 273.056Z" fill="#F9CFCF"/>
<path d="M301.143 341.165C297.968 341.162 294.841 340.386 292.032 338.904C289.224 337.421 286.819 335.277 285.026 332.657L279.7 324.897C276.948 320.897 275.478 316.154 275.485 311.299C275.485 308.645 274.074 306.165 271.801 304.832L198.724 262.003C198.092 261.631 197.371 261.434 196.638 261.433C195.904 261.431 195.183 261.625 194.549 261.994L141.94 292.531C141.307 292.898 140.589 293.092 139.857 293.093C139.126 293.094 138.407 292.903 137.773 292.539C137.14 292.173 136.614 291.648 136.247 291.015C135.881 290.383 135.688 289.665 135.688 288.934V191.055C135.689 190.143 135.988 189.256 136.541 188.531C137.094 187.805 137.869 187.281 138.748 187.038L188.305 173.421C195.354 171.485 202.793 172.848 208.708 177.164L325.273 262.238C327.537 263.895 330.306 264.713 333.107 264.551L392.087 261.157C399.677 260.726 407.002 264.396 411.212 270.759L413.302 273.909C413.937 274.864 414.148 276.039 413.884 277.152C413.755 277.705 413.515 278.226 413.178 278.682C412.841 279.139 412.415 279.522 411.924 279.807L310.944 338.519C307.968 340.251 304.587 341.164 301.143 341.165ZM196.63 253.108C198.814 253.108 200.993 253.68 202.94 254.819L276.013 297.652C280.826 300.469 283.814 305.702 283.814 311.299C283.814 314.49 284.765 317.564 286.566 320.19L291.895 327.95C292.923 329.455 294.303 330.687 295.914 331.539C297.526 332.391 299.32 332.838 301.143 332.84C303.117 332.841 305.056 332.318 306.761 331.324L403.912 274.84C401.285 271.262 397.002 269.213 392.566 269.473L333.587 272.868C328.862 273.133 324.191 271.754 320.367 268.966L203.801 183.892C201.915 182.506 199.738 181.566 197.435 181.144C195.133 180.721 192.764 180.827 190.508 181.453L144.017 194.23V281.701L190.371 254.79C192.272 253.687 194.432 253.107 196.63 253.108Z" fill="#3762CC"/>
</svg>
