<svg width="472" height="512" viewBox="0 0 472 512" fill="none" xmlns="http://www.w3.org/2000/svg">
<path d="M39.2461 347.832C39.2461 347.832 66.0141 385.984 53.8381 404.008C41.6621 422.032 46.1261 456.916 61.2381 474.252C70.5558 485.235 77.3673 498.116 81.1981 512H199.478L221.598 467.992C221.598 467.992 215.65 391.32 221.598 376C227.546 360.68 229.938 352 229.938 352L39.2461 347.832Z" fill="#81D9E3"/>
<path d="M203.238 116V132C203.214 135.281 202.937 138.554 202.41 141.792L228.538 154.284C239.902 159.66 249.112 168.724 254.67 180H267.774V104.788H202.19C202.869 108.487 203.22 112.239 203.238 116ZM23.8143 180C29.3744 168.719 38.5891 159.653 49.9583 154.276L76.0703 141.796C75.5418 138.557 75.2636 135.282 75.2383 132V116C75.257 112.239 75.6077 108.487 76.2863 104.788H16.9543L11.5463 107.156L7.23828 163.58L15.2663 180H23.8143Z" fill="#FFDB80"/>
<path d="M231.022 188.96L193.498 165.776C187.659 175.202 179.466 182.946 169.725 188.243C159.984 193.541 149.031 196.21 137.945 195.989C126.858 195.767 116.021 192.662 106.499 186.979C96.9778 181.297 89.1003 173.232 83.6424 163.58L45.0144 189.632L36.8984 268.056C36.8984 268.056 45.0144 287.064 62.7584 284.32C80.5024 281.576 184.958 272.112 184.958 272.112L225.182 282.592L238.026 270.084L231.022 188.96Z" fill="#FC785E"/>
<path d="M237.614 152C239.736 152 241.771 151.157 243.271 149.657C244.771 148.157 245.614 146.122 245.614 144C245.614 141.878 244.771 139.843 243.271 138.343C241.771 136.843 239.736 136 237.614 136H224.43C222.309 136 220.274 136.843 218.773 138.343C217.273 139.843 216.43 141.878 216.43 144C216.43 146.122 217.273 148.157 218.773 149.657C220.274 151.157 222.309 152 224.43 152H237.614ZM242.038 360H243.238C250.664 360 257.786 357.05 263.037 351.799C268.288 346.548 271.238 339.426 271.238 332C271.238 324.574 268.288 317.452 263.037 312.201C257.786 306.95 250.664 304 243.238 304H214.598C215.038 299.36 215.238 295.12 215.238 291.72L215.958 291.8C217.087 291.926 218.222 291.993 219.358 292C226.447 292.007 233.276 289.335 238.478 284.52C241.391 281.827 243.684 278.532 245.197 274.864C246.709 271.197 247.406 267.244 247.238 263.28L243.838 201.28C243.745 199.032 243.45 196.796 242.958 194.6C241.584 188.959 238.953 183.701 235.261 179.219C231.569 174.738 226.912 171.148 221.638 168.72L197.958 157.4C195.808 162.322 193.053 166.958 189.758 171.2L214.758 183.16C217.842 184.544 220.575 186.604 222.756 189.186C224.937 191.768 226.51 194.808 227.358 198.08C227.643 199.382 227.804 200.708 227.838 202.04L231.238 264.04C231.312 265.678 231.024 267.312 230.395 268.826C229.766 270.34 228.811 271.697 227.598 272.8C226.268 274.004 224.692 274.903 222.978 275.435C221.265 275.967 219.456 276.119 217.678 275.88L203.278 274.48C205.502 272.944 207.495 271.099 209.198 269C211.505 266.15 213.211 262.863 214.215 259.337C215.218 255.81 215.499 252.117 215.038 248.48C214.266 242.637 211.67 237.187 207.619 232.907C203.568 228.626 198.27 225.733 192.478 224.64V209.2C192.478 207.078 191.635 205.043 190.135 203.543C188.635 202.043 186.6 201.2 184.478 201.2C182.357 201.2 180.322 202.043 178.821 203.543C177.321 205.043 176.478 207.078 176.478 209.2V224.52L102.038 227.68V209.2C102.038 207.078 101.195 205.043 99.6951 203.543C98.1948 202.043 96.16 201.2 94.0383 201.2C91.9166 201.2 89.8817 202.043 88.3814 203.543C86.8811 205.043 86.0383 207.078 86.0383 209.2V236.04C86.0461 237.119 86.2704 238.185 86.6979 239.176C87.1253 240.167 87.7472 241.062 88.5268 241.808C89.3063 242.554 90.2277 243.136 91.2362 243.519C92.2448 243.902 93.32 244.08 94.3983 244.04L186.518 240.08C189.537 239.922 192.506 240.896 194.844 242.812C197.182 244.729 198.721 247.449 199.158 250.44C199.355 251.958 199.24 253.5 198.82 254.971C198.4 256.443 197.685 257.814 196.718 259C195.682 260.273 194.401 261.325 192.952 262.094C191.502 262.864 189.913 263.335 188.278 263.48L60.6383 275.92C58.883 276.127 57.1038 275.955 55.4203 275.417C53.7369 274.879 52.1881 273.987 50.8783 272.8C49.6841 271.708 48.7405 270.37 48.1122 268.879C47.4839 267.387 47.1858 265.777 47.2383 264.16L50.6383 201.96C50.7105 200.655 50.8844 199.358 51.1583 198.08C51.9926 194.802 53.5601 191.756 55.7427 189.171C57.9253 186.587 60.666 184.531 63.7583 183.16L88.7583 171.2C85.4509 166.959 82.683 162.323 80.5183 157.4L56.8383 168.72C51.5642 171.148 46.9071 174.738 43.2152 179.219C39.5234 183.701 36.8922 188.959 35.5183 194.6C35.0471 196.758 34.766 198.953 34.6783 201.16L31.2783 263.36C31.1094 267.312 31.8058 271.254 33.319 274.908C34.8321 278.563 37.1253 281.844 40.0383 284.52C45.2135 289.327 52.0151 291.999 59.0783 292C60.175 292.013 61.2713 291.946 62.3583 291.8L63.2383 291.72C63.2783 295.12 63.4383 299.36 63.8783 304H35.2383C27.8122 304 20.6903 306.95 15.4393 312.201C10.1883 317.452 7.23828 324.574 7.23828 332C7.23828 339.426 10.1883 346.548 15.4393 351.799C20.6903 357.05 27.8122 360 35.2383 360H35.5583C38.6383 364.44 45.4383 377.2 47.3183 404.04L36.9183 437.12C35.4766 441.609 34.9567 446.343 35.3898 451.037C35.8228 455.732 37.1998 460.291 39.4383 464.44C42.2456 469.744 46.3281 474.266 51.3183 477.6C59.7983 507.32 78.4783 511.6 79.5583 511.84C80.0975 511.953 80.6474 512.006 81.1983 512C83.0466 512.005 84.8408 511.377 86.2819 510.219C87.7231 509.062 88.7241 507.446 89.1183 505.64C89.3411 504.618 89.3593 503.562 89.1717 502.533C88.9842 501.504 88.5947 500.522 88.0257 499.645C87.4567 498.767 86.7194 498.011 85.8565 497.419C84.9937 496.828 84.0222 496.414 82.9983 496.2C82.8783 496.16 76.3583 494.24 70.8383 483.88C71.3183 483.92 71.8383 484 72.3583 484C80.2217 484.046 87.897 481.596 94.2797 477.003C100.662 472.41 105.424 465.911 107.878 458.44L138.918 360H139.558L170.638 458.44C172.896 465.366 177.149 471.471 182.863 475.99C188.577 480.508 195.498 483.239 202.758 483.84C199.558 492.92 195.798 495.76 194.878 496.36C194.967 496.318 195.061 496.291 195.158 496.28L199.478 511.72C202.638 510.84 214.198 505.88 220.038 481.32C228.208 478.166 234.968 472.173 239.078 464.44C241.307 460.287 242.679 455.729 243.112 451.036C243.545 446.343 243.03 441.61 241.598 437.12L226.558 389.44C231.198 371.52 238.798 362.92 242.038 360ZM35.2383 344C32.0557 344 29.0034 342.736 26.753 340.485C24.5026 338.235 23.2383 335.183 23.2383 332C23.2383 328.817 24.5026 325.765 26.753 323.515C29.0034 321.264 32.0557 320 35.2383 320H73.8383L66.2783 344H35.2383ZM61.2383 360L57.8383 370.72C56.757 367.058 55.4204 363.476 53.8383 360H61.2383ZM130.318 334.08L92.6383 453.6C90.8487 458.852 87.0806 463.2 82.1355 465.717C77.1904 468.234 71.4583 468.723 66.1583 467.08C63.484 466.318 60.9902 465.026 58.8256 463.281C56.6609 461.535 54.8696 459.372 53.5583 456.92C52.3278 454.643 51.5697 452.14 51.3291 449.563C51.0885 446.985 51.3706 444.386 52.1583 441.92L89.8783 322.4C91.6679 317.148 95.4359 312.8 100.381 310.283C105.326 307.766 111.058 307.277 116.358 308.92C119.03 309.688 121.521 310.982 123.685 312.727C125.849 314.472 127.642 316.632 128.958 319.08C130.183 321.36 130.934 323.864 131.168 326.441C131.401 329.019 131.113 331.617 130.318 334.08ZM137.678 304C133.122 299.069 127.317 295.462 120.878 293.56C114.152 291.57 107.004 291.493 100.235 293.337C93.4672 295.181 87.3462 298.873 82.5583 304H79.9583C79.4336 299.406 79.1798 294.784 79.1983 290.16L139.238 284.32L199.198 290.16C199.228 294.782 199.001 299.403 198.518 304H195.918C191.13 298.873 185.009 295.181 178.241 293.337C171.473 291.493 164.325 291.57 157.598 293.56C151.167 295.453 145.373 299.062 140.838 304H137.678ZM224.958 456.92C223.642 459.368 221.849 461.528 219.685 463.273C217.521 465.018 215.03 466.312 212.358 467.08C210.331 467.676 208.231 467.986 206.118 468C201.654 468.054 197.288 466.688 193.65 464.1C190.013 461.512 187.291 457.835 185.878 453.6L148.158 334.08C147.371 331.614 147.089 329.015 147.329 326.437C147.57 323.86 148.328 321.357 149.558 319.08C150.87 316.628 152.661 314.465 154.826 312.72C156.99 310.974 159.484 309.682 162.158 308.92C167.459 307.316 173.174 307.824 178.109 310.336C183.044 312.848 186.816 317.171 188.638 322.4L226.318 441.92C227.113 444.383 227.401 446.981 227.168 449.559C226.934 452.136 226.183 454.64 224.958 456.92ZM217.278 360H221.598C220.678 361.48 219.718 363.16 218.798 364.88L217.278 360ZM212.198 344L204.638 320H243.238C246.421 320 249.473 321.264 251.724 323.515C253.974 325.765 255.238 328.817 255.238 332C255.238 335.183 253.974 338.235 251.724 340.485C249.473 342.736 246.421 344 243.238 344H212.198Z" fill="#2D4356"/>
<path d="M199.2 290.16C199.23 294.782 199.003 299.403 198.52 304H195.92C191.132 298.873 185.011 295.181 178.243 293.337C171.475 291.493 164.327 291.57 157.6 293.56C151.169 295.453 145.375 299.062 140.84 304H137.68C133.124 299.069 127.319 295.462 120.88 293.56C114.153 291.57 107.005 291.493 100.237 293.337C93.469 295.181 87.348 298.873 82.5602 304H79.9602C79.4355 299.405 79.1817 294.784 79.2002 290.16L139.24 284.32L199.2 290.16Z" fill="#FC785E"/>
<path d="M73.8383 320L66.2783 344H35.2383C32.0557 344 29.0034 342.736 26.753 340.485C24.5026 338.235 23.2383 335.183 23.2383 332C23.2383 328.817 24.5026 325.765 26.753 323.515C29.0034 321.264 32.0557 320 35.2383 320H73.8383ZM255.238 332C255.236 335.182 253.971 338.233 251.721 340.483C249.471 342.733 246.42 343.998 243.238 344H212.198L204.638 320H243.238C246.42 320.002 249.471 321.267 251.721 323.517C253.971 325.767 255.236 328.818 255.238 332Z" fill="#FFDB80"/>
<path d="M130.319 334.08L92.6385 453.6C90.8489 458.852 87.0809 463.199 82.1358 465.717C77.1907 468.234 71.4586 468.723 66.1585 467.08C63.4842 466.318 60.9905 465.026 58.8258 463.281C56.6612 461.535 54.8699 459.372 53.5585 456.92C52.3281 454.642 51.5699 452.14 51.3294 449.563C51.0888 446.985 51.3708 444.386 52.1585 441.92L89.8785 322.4C91.6681 317.147 95.4362 312.8 100.381 310.283C105.326 307.765 111.058 307.276 116.359 308.92C119.03 309.687 121.521 310.982 123.685 312.727C125.849 314.471 127.642 316.632 128.959 319.08C130.183 321.36 130.934 323.864 131.168 326.441C131.402 329.019 131.113 331.617 130.319 334.08ZM224.959 456.92C223.642 459.368 221.849 461.528 219.685 463.273C217.521 465.018 215.03 466.312 212.359 467.08C210.332 467.676 208.231 467.985 206.119 468C201.654 468.054 197.288 466.688 193.651 464.1C190.013 461.512 187.291 457.835 185.879 453.6L148.159 334.08C147.371 331.614 147.089 329.015 147.329 326.437C147.57 323.86 148.328 321.357 149.559 319.08C150.87 316.628 152.661 314.465 154.826 312.719C156.991 310.974 159.484 309.682 162.159 308.92C167.459 307.316 173.174 307.823 178.109 310.336C183.044 312.848 186.817 317.17 188.639 322.4L226.319 441.92C227.113 444.383 227.402 446.981 227.168 449.558C226.934 452.136 226.183 454.64 224.959 456.92Z" fill="#E1EBF4"/>
<path d="M280 120C279.993 113.637 277.462 107.537 272.962 103.038C268.463 98.5384 262.363 96.0074 256 96H200.004C201.699 101.181 202.721 106.558 203.044 112H256C258.121 112.002 260.155 112.846 261.655 114.345C263.154 115.845 263.998 117.879 264 120V168C263.998 170.121 263.154 172.155 261.655 173.655C260.155 175.154 258.121 175.998 256 176H252.44C255.288 180.691 257.363 185.81 258.584 191.16C258.636 191.384 258.66 191.612 258.704 191.836C264.56 191.166 269.965 188.367 273.892 183.971C277.818 179.576 279.992 173.89 280 167.996V120ZM19.916 191.16C21.1359 185.81 23.2091 180.691 26.056 176H24C21.8789 175.998 19.8453 175.154 18.3455 173.655C16.8457 172.155 16.0021 170.121 16 168V120C16.0021 117.879 16.8457 115.845 18.3455 114.345C19.8453 112.846 21.8789 112.002 24 112H75.452C75.7753 106.558 76.797 101.181 78.492 96H24C17.6371 96.0074 11.5369 98.5384 7.03762 103.038C2.53835 107.537 0.00741045 113.637 0 120V168C0.00940871 173.637 2.00128 179.092 5.62694 183.408C9.2526 187.725 14.281 190.629 19.832 191.612C19.864 191.46 19.88 191.308 19.912 191.156L19.916 191.16ZM139.24 68C126.515 68.0169 114.316 73.0795 105.318 82.0776C96.3195 91.0757 91.2569 103.275 91.24 116V132C91.24 144.73 96.2971 156.939 105.299 165.941C114.301 174.943 126.51 180 139.24 180C151.97 180 164.179 174.943 173.181 165.941C182.183 156.939 187.24 144.73 187.24 132V116C187.229 103.273 182.169 91.07 173.169 82.0706C164.17 73.0711 151.967 68.0106 139.24 68ZM171.24 132C171.24 140.487 167.869 148.626 161.867 154.627C155.866 160.629 147.727 164 139.24 164C130.753 164 122.614 160.629 116.613 154.627C110.611 148.626 107.24 140.487 107.24 132V116C107.24 107.513 110.611 99.3737 116.613 93.3726C122.614 87.3714 130.753 84 139.24 84C147.727 84 155.866 87.3714 161.867 93.3726C167.869 99.3737 171.24 107.513 171.24 116V132Z" fill="#2D4356"/>
<path d="M171.238 116V132C171.238 140.487 167.867 148.626 161.866 154.627C155.865 160.629 147.725 164 139.238 164C130.751 164 122.612 160.629 116.611 154.627C110.61 148.626 107.238 140.487 107.238 132V116C107.238 107.513 110.61 99.3737 116.611 93.3726C122.612 87.3714 130.751 84 139.238 84C147.725 84 155.865 87.3714 161.866 93.3726C167.867 99.3737 171.238 107.513 171.238 116Z" fill="#E1EBF4"/>
<path d="M303.238 352C298.492 352 293.851 353.408 289.905 356.045C285.958 358.682 282.882 362.43 281.065 366.816C279.249 371.201 278.773 376.027 279.699 380.682C280.625 385.338 282.911 389.614 286.268 392.971C289.624 396.327 293.901 398.613 298.556 399.539C303.212 400.465 308.037 399.99 312.423 398.173C316.808 396.357 320.556 393.28 323.194 389.334C325.831 385.387 327.238 380.747 327.238 376C327.233 369.636 324.703 363.535 320.203 359.035C315.703 354.536 309.602 352.005 303.238 352ZM303.238 384C301.656 384 300.109 383.531 298.794 382.652C297.478 381.773 296.453 380.523 295.847 379.061C295.242 377.6 295.083 375.991 295.392 374.439C295.701 372.887 296.463 371.462 297.581 370.343C298.7 369.224 300.126 368.462 301.678 368.154C303.229 367.845 304.838 368.003 306.3 368.609C307.762 369.214 309.011 370.24 309.89 371.555C310.769 372.871 311.238 374.418 311.238 376C311.232 378.12 310.387 380.151 308.888 381.65C307.389 383.149 305.358 383.994 303.238 384Z" fill="#2D4356"/>
<path d="M311.238 376C311.238 377.582 310.769 379.129 309.89 380.445C309.011 381.76 307.762 382.786 306.3 383.391C304.838 383.997 303.229 384.155 301.678 383.846C300.126 383.538 298.7 382.776 297.581 381.657C296.463 380.538 295.701 379.113 295.392 377.561C295.083 376.009 295.242 374.4 295.847 372.939C296.453 371.477 297.478 370.227 298.794 369.348C300.109 368.469 301.656 368 303.238 368C305.36 368 307.395 368.843 308.895 370.343C310.395 371.843 311.238 373.878 311.238 376Z" fill="#FC785E"/>
<path d="M367.238 352C362.492 352 357.851 353.408 353.905 356.045C349.958 358.682 346.882 362.43 345.065 366.816C343.249 371.201 342.773 376.027 343.699 380.682C344.625 385.338 346.911 389.614 350.268 392.971C353.624 396.327 357.901 398.613 362.556 399.539C367.212 400.465 372.037 399.99 376.423 398.173C380.808 396.357 384.556 393.28 387.194 389.334C389.831 385.387 391.238 380.747 391.238 376C391.233 369.636 388.703 363.535 384.203 359.035C379.703 354.536 373.602 352.005 367.238 352ZM367.238 384C365.656 384 364.109 383.531 362.794 382.652C361.478 381.773 360.453 380.523 359.847 379.061C359.242 377.6 359.083 375.991 359.392 374.439C359.701 372.887 360.463 371.462 361.581 370.343C362.7 369.224 364.126 368.462 365.678 368.154C367.229 367.845 368.838 368.003 370.3 368.609C371.762 369.214 373.011 370.24 373.89 371.555C374.769 372.871 375.238 374.418 375.238 376C375.232 378.12 374.387 380.151 372.888 381.65C371.389 383.149 369.358 383.994 367.238 384Z" fill="#2D4356"/>
<path d="M375.238 376C375.238 377.582 374.769 379.129 373.89 380.445C373.011 381.76 371.762 382.786 370.3 383.391C368.838 383.997 367.229 384.155 365.678 383.846C364.126 383.538 362.7 382.776 361.581 381.657C360.463 380.538 359.701 379.113 359.392 377.561C359.083 376.009 359.242 374.4 359.847 372.939C360.453 371.477 361.478 370.227 362.794 369.348C364.109 368.469 365.656 368 367.238 368C369.36 368 371.395 368.843 372.895 370.343C374.395 371.843 375.238 373.878 375.238 376Z" fill="#FFDB80"/>
<path d="M420.238 220H364.238C362.119 220.006 360.087 220.851 358.588 222.35C357.09 223.849 356.245 225.88 356.238 228V240H340.238V213.68L383.518 203.84C385.282 203.433 386.855 202.44 387.981 201.023C389.107 199.606 389.719 197.85 389.718 196.04V176C389.718 173.878 388.875 171.843 387.375 170.343C385.875 168.843 383.84 168 381.718 168C379.597 168 377.562 168.843 376.061 170.343C374.561 171.843 373.718 173.878 373.718 176V189.64L330.478 199.52C328.705 199.914 327.119 200.902 325.984 202.321C324.849 203.739 324.233 205.503 324.238 207.32V248C324.245 250.12 325.09 252.151 326.588 253.65C328.087 255.149 330.119 255.994 332.238 256H356.238V268C356.245 270.12 357.09 272.151 358.588 273.65C360.087 275.149 362.119 275.994 364.238 276V308C364.245 310.12 365.09 312.151 366.588 313.65C368.087 315.149 370.119 315.994 372.238 316H412.238C414.36 316 416.395 315.157 417.895 313.657C419.395 312.157 420.238 310.122 420.238 308V276C422.36 276 424.395 275.157 425.895 273.657C427.395 272.157 428.238 270.122 428.238 268V228C428.238 225.878 427.395 223.843 425.895 222.343C424.395 220.843 422.36 220 420.238 220ZM404.238 300H380.238V276H404.238V300ZM412.238 260H372.238V236H412.238V260Z" fill="#2D4356"/>
<path d="M380.238 276H404.238V300H380.238V276Z" fill="#E1EBF4"/>
<path d="M372.238 236H412.238V260H372.238V236Z" fill="#FC785E"/>
<path d="M464 0H352C349.88 0.00633091 347.849 0.851219 346.35 2.35014C344.851 3.84906 344.006 5.88022 344 8V104C344.006 106.12 344.851 108.151 346.35 109.65C347.849 111.149 349.88 111.994 352 112H464C466.12 111.994 468.151 111.149 469.65 109.65C471.149 108.151 471.994 106.12 472 104V8C471.994 5.88022 471.149 3.84906 469.65 2.35014C468.151 0.851219 466.12 0.00633091 464 0ZM400 96H360V64H400V96ZM400 48H360V16H400V48ZM456 96H416V64H456V96ZM456 48H416V16H456V48Z" fill="#2D4356"/>
<path d="M416 16H456V48H416V16ZM416 64H456V96H416V64ZM360 64H400V96H360V64ZM360 16H400V48H360V16Z" fill="#81D9E3"/>
<path d="M88.7586 171.2L63.7586 183.16C60.6663 184.532 57.9256 186.587 55.743 189.171C53.5604 191.756 51.9929 194.802 51.1586 198.08C50.8847 199.358 50.7108 200.655 50.6386 201.96L47.5186 259C47.2852 258.073 47.1908 257.115 47.2386 256.16L50.6386 193.96C50.7108 192.655 50.8847 191.358 51.1586 190.08C51.9929 186.802 53.5604 183.756 55.743 181.171C57.9256 178.587 60.6663 176.532 63.7586 175.16L84.6386 165.16C85.8916 167.253 87.2673 169.27 88.7586 171.2ZM231.239 256.04C231.29 257.035 231.196 258.032 230.959 259L227.839 202.04C227.804 200.708 227.644 199.382 227.359 198.08C226.51 194.808 224.938 191.769 222.757 189.186C220.576 186.604 217.842 184.544 214.759 183.16L189.759 171.2C191.25 169.27 192.626 167.253 193.879 165.16L214.759 175.16C217.842 176.544 220.576 178.604 222.757 181.186C224.938 183.769 226.51 186.808 227.359 190.08C227.644 191.382 227.804 192.708 227.839 194.04L231.239 256.04Z" fill="#0F423C" fill-opacity="0.188235"/>
<path d="M171.238 124V132C171.238 140.487 167.867 148.626 161.866 154.627C155.865 160.629 147.725 164 139.238 164C130.751 164 122.612 160.629 116.611 154.627C110.61 148.626 107.238 140.487 107.238 132V124C107.238 132.487 110.61 140.626 116.611 146.627C122.612 152.629 130.751 156 139.238 156C147.725 156 155.865 152.629 161.866 146.627C167.867 140.626 171.238 132.487 171.238 124Z" fill="#9FA5AA" fill-opacity="0.313726"/>
<path d="M73.8385 320L71.3185 328H35.2385C32.7627 328.007 30.3497 328.78 28.3302 330.212C26.3108 331.644 24.7837 333.666 23.9585 336C23.4741 334.722 23.23 333.366 23.2385 332C23.248 328.82 24.5153 325.774 26.7637 323.525C29.0121 321.277 32.0588 320.009 35.2385 320H73.8385ZM255.238 332C255.241 333.362 255.011 334.715 254.558 336C253.724 333.664 252.189 331.642 250.163 330.21C248.137 328.779 245.719 328.007 243.238 328H207.158L204.638 320H243.238C246.42 320.002 249.471 321.267 251.721 323.517C253.971 325.767 255.236 328.818 255.238 332Z" fill="#F9EDD2" fill-opacity="0.313726"/>
<path opacity="0.5" d="M226.799 451.76C226.676 451.137 226.516 450.523 226.319 449.92L188.639 330.4C186.817 325.17 183.044 320.848 178.109 318.336C173.174 315.823 167.459 315.316 162.159 316.92C159.485 317.682 156.991 318.974 154.826 320.719C152.662 322.465 150.87 324.628 149.559 327.08C148.686 328.728 148.053 330.493 147.679 332.32C146.709 327.823 147.376 323.128 149.559 319.08C150.87 316.628 152.662 314.465 154.826 312.719C156.991 310.974 159.485 309.682 162.159 308.92C167.459 307.316 173.174 307.823 178.109 310.336C183.044 312.848 186.817 317.17 188.639 322.4L226.319 441.92C227.354 445.098 227.52 448.496 226.799 451.76ZM130.799 332.24C130.463 330.433 129.842 328.691 128.959 327.08C127.642 324.632 125.849 322.471 123.685 320.727C121.522 318.982 119.03 317.687 116.359 316.92C111.059 315.276 105.327 315.765 100.382 318.283C95.4365 320.8 91.6684 325.147 89.8788 330.4L52.1588 449.92C51.9588 450.52 51.8388 451.08 51.6788 451.68C50.9582 448.442 51.124 445.071 52.1588 441.92L89.8788 322.4C91.6684 317.147 95.4365 312.8 100.382 310.283C105.327 307.765 111.059 307.276 116.359 308.92C119.03 309.687 121.522 310.982 123.685 312.727C125.849 314.471 127.642 316.632 128.959 319.08C131.11 323.11 131.762 327.774 130.799 332.24Z" fill="white"/>
<path opacity="0.5" d="M130.32 334.08L92.6403 453.6C90.8507 458.853 87.0827 463.2 82.1375 465.717C77.1924 468.235 71.4604 468.724 66.1603 467.08C63.486 466.318 60.9922 465.026 58.8276 463.281C56.663 461.535 54.8716 459.372 53.5603 456.92C51.3772 452.872 50.7105 448.177 51.6803 443.68C52.0543 445.508 52.6873 447.272 53.5603 448.92C54.8716 451.372 56.663 453.535 58.8276 455.281C60.9922 457.026 63.486 458.318 66.1603 459.08C71.4604 460.724 77.1924 460.235 82.1375 457.717C87.0827 455.2 90.8507 450.853 92.6403 445.6L130.32 326.08C130.518 325.477 130.678 324.863 130.8 324.24C131.521 327.504 131.355 330.902 130.32 334.08ZM224.96 456.92C223.644 459.368 221.851 461.529 219.687 463.273C217.523 465.018 215.032 466.313 212.36 467.08C210.333 467.676 208.233 467.986 206.12 468C201.656 468.054 197.29 466.689 193.652 464.1C190.015 461.512 187.293 457.835 185.88 453.6L148.16 334.08C147.126 330.929 146.96 327.558 147.68 324.32C147.84 324.92 147.96 325.48 148.16 326.08L185.88 445.6C187.293 449.835 190.015 453.512 193.652 456.1C197.29 458.689 201.656 460.054 206.12 460C208.233 459.986 210.333 459.676 212.36 459.08C215.032 458.313 217.523 457.018 219.687 455.273C221.851 453.529 223.644 451.368 224.96 448.92C225.843 447.309 226.465 445.567 226.8 443.76C227.764 448.226 227.112 452.89 224.96 456.92Z" fill="#9FA5AA"/>
<path opacity="0.5" d="M231.24 264.04C231.314 265.678 231.026 267.312 230.397 268.826C229.768 270.34 228.813 271.697 227.6 272.8C226.27 274.004 224.694 274.903 222.98 275.435C221.267 275.967 219.458 276.119 217.68 275.88L203.28 274.48C205.504 272.944 207.497 271.098 209.2 269C209.68 268.4 210.12 267.8 210.56 267.2L217.68 267.88C219.458 268.119 221.267 267.967 222.98 267.435C224.694 266.903 226.27 266.004 227.6 264.8C229.288 263.256 230.461 261.232 230.96 259L231.24 264.04ZM196.72 259C195.684 260.273 194.403 261.325 192.954 262.094C191.504 262.864 189.915 263.335 188.28 263.48L60.6403 275.92C58.885 276.127 57.1058 275.955 55.4223 275.417C53.7389 274.879 52.1901 273.986 50.8803 272.8C49.6861 271.708 48.7425 270.37 48.1142 268.878C47.4859 267.387 47.1878 265.777 47.2403 264.16L47.5203 259C48.0384 261.224 49.2082 263.244 50.8803 264.8C52.1901 265.986 53.7389 266.879 55.4223 267.417C57.1058 267.955 58.885 268.127 60.6403 267.92L188.28 255.48C190.536 255.308 192.696 254.499 194.509 253.146C196.322 251.793 197.713 249.953 198.52 247.84C199.217 249.696 199.417 251.702 199.102 253.659C198.786 255.616 197.965 257.457 196.72 259Z" fill="#A54B3F"/>
<path opacity="0.5" d="M171.238 116V124C171.238 115.513 167.867 107.374 161.866 101.373C155.865 95.3714 147.725 92 139.238 92C130.751 92 122.612 95.3714 116.611 101.373C110.61 107.374 107.238 115.513 107.238 124V116C107.238 107.513 110.61 99.3737 116.611 93.3726C122.612 87.3714 130.751 84 139.238 84C147.725 84 155.865 87.3714 161.866 93.3726C167.867 99.3737 171.238 107.513 171.238 116Z" fill="white"/>
<path opacity="0.4" d="M360 16H400V24H360V16ZM416 16H456V24H416V16Z" fill="#E8FBFC"/>
<path opacity="0.3" d="M360 88H400V96H360V88ZM416 88H456V96H416V88Z" fill="#0F423C"/>
<path opacity="0.5" d="M75.24 116C75.24 114.628 75.36 113.284 75.448 111.932L75.44 112H24C21.8802 112.006 19.8491 112.851 18.3501 114.35C16.8512 115.849 16.0063 117.88 16 120V128C16.0063 125.88 16.8512 123.849 18.3501 122.35C19.8491 120.851 21.8802 120.006 24 120H75.24V116ZM202.08 104H202.072C202.324 105.312 202.512 106.644 202.684 107.984C202.524 106.64 202.323 105.312 202.08 104ZM256 112H203.04L203.036 111.936C203.12 113.288 203.24 114.628 203.24 116V120H256C258.12 120.006 260.151 120.851 261.65 122.35C263.149 123.849 263.994 125.88 264 128V120C263.994 117.88 263.149 115.849 261.65 114.35C260.151 112.851 258.12 112.006 256 112Z" fill="#F9EDD2"/>
<path opacity="0.5" d="M380.238 292H404.238V300H380.238V292Z" fill="#9FA5AA"/>
<path opacity="0.3" d="M372.238 236H412.238V244H372.238V236Z" fill="#F9DBD7"/>
</svg>
