<svg width="512" height="512" viewBox="0 0 512 512" fill="none" xmlns="http://www.w3.org/2000/svg">
<g clip-path="url(#clip0_801_1021)">
<path d="M190.509 253.196H54.7058C49.6843 253.196 44.7501 254.496 40.3803 256.968L3.045 278.087C-0.9437 280.343 -1.07903 286.317 3.02542 288.356C3.60235 288.641 4.20422 288.81 4.82567 288.81H195.475L190.543 253.636C190.523 253.494 190.525 253.342 190.507 253.198L190.509 253.196Z" fill="black"/>
<path d="M510.205 207.506C509.892 207.351 509.548 207.267 509.199 207.262H395.969C384.392 217.091 367.892 220.386 352.826 214.388C344.717 211.169 337.809 205.512 333.053 198.198C327.659 196.065 321.053 195.323 313.309 196.528C312.127 196.712 311.012 196.964 309.935 197.251C305.431 204.014 299.984 209.942 292.548 212.754C287.694 214.589 283.374 215.339 279.558 215.43C271.283 219.946 260.24 224.034 243.375 226.091C236.991 226.869 229.785 227.362 221.565 227.471C200.372 227.752 194.228 237.265 194.547 248.673C194.392 250.105 194.389 251.576 194.599 253.068L206.654 339.039H125.193C115.359 339.039 107.387 347.013 107.387 356.846C107.387 366.678 115.359 374.652 125.193 374.652H227.133C229.681 374.653 232.198 374.106 234.516 373.05C236.834 371.994 238.899 370.453 240.57 368.531C242.242 366.609 243.482 364.35 244.206 361.908C244.93 359.466 245.121 356.897 244.767 354.374L235.348 287.2C242.371 286.262 250.916 284.68 260.979 282.102C270.176 279.744 280.666 276.53 292.425 272.208V234.423C292.425 225.781 299.455 218.753 308.095 218.753C316.735 218.753 323.765 225.781 323.765 234.423V277.538C327.075 275.713 329.944 273.195 331.789 270.577C333.536 268.1 333.591 257.457 333.195 247.247C334.673 242.325 336.999 236.458 344.35 230.411H473.753C478.651 230.411 483.464 229.116 487.702 226.659L510.203 213.615C512.548 212.255 512.653 208.669 510.203 207.506H510.205Z" fill="black"/>
<path d="M327.625 163.833C328.038 162.327 328.531 160.826 329.121 159.341C330.401 156.123 332.072 153.075 334.096 150.265C320.912 147.533 304.168 149.769 292.136 176.574C279.906 203.818 268.774 203.761 261.637 199.954C254.5 196.147 265.675 218.535 291.101 208.923C309.834 201.843 315.374 170.247 327.625 163.833Z" fill="black"/>
<path d="M373.946 212.891C394.878 209.908 409.429 190.521 406.446 169.589C403.463 148.656 384.076 134.105 363.144 137.088C342.211 140.071 327.66 159.458 330.643 180.391C333.626 201.323 353.013 215.874 373.946 212.891Z" fill="black"/>
<path d="M319.668 234.423C319.668 231.353 318.449 228.409 316.278 226.238C314.108 224.068 311.164 222.848 308.094 222.848C305.024 222.848 302.08 224.068 299.91 226.238C297.739 228.409 296.52 231.353 296.52 234.423V363.708C296.52 366.778 297.739 369.722 299.91 371.893C302.08 374.063 305.024 375.283 308.094 375.283C311.164 375.283 314.108 374.063 316.278 371.893C318.449 369.722 319.668 366.778 319.668 363.708V234.423Z" fill="black"/>
</g>
<defs>
<clipPath id="clip0_801_1021">
<rect width="512" height="512" fill="white"/>
</clipPath>
</defs>
</svg>
