<svg width="512" height="512" viewBox="0 0 512 512" fill="none" xmlns="http://www.w3.org/2000/svg">
<path d="M235.842 64.191L152.543 82.4389C149.973 83.0023 147.545 84.0877 145.412 85.6277C143.278 87.1678 141.483 89.1297 140.139 91.3918C138.794 93.654 137.929 96.1681 137.596 98.7785C137.263 101.389 137.47 104.04 138.203 106.567L140.93 115.968C144.435 111.799 149.215 108.9 154.532 107.718L237.831 89.4696C239.577 89.0853 241.369 88.8931 243.149 88.8931C254.669 88.8931 264.82 97.0719 267.294 108.342C270.21 121.668 261.745 134.884 248.419 137.805L190.963 150.391L208.666 211.373L210.415 210.609C211.722 210.04 213.167 209.868 214.572 210.114C215.976 210.36 217.277 211.013 218.312 211.993C220.035 211.885 221.75 212.31 223.224 213.209C224.697 214.108 225.859 215.439 226.551 217.02L229.133 222.927C251.417 197.269 264.633 173.249 278.3 137.14C291.259 102.277 275.343 74.8126 256.247 65.7595C250.795 63.1725 244.852 62.6705 238.912 63.7946C237.896 63.8499 236.87 63.9652 235.842 64.191Z" fill="black"/>
<path d="M340.111 108.09C369.96 108.09 394.156 83.8931 394.156 54.0449C394.156 24.1967 369.96 0 340.111 0C310.263 0 286.066 24.1967 286.066 54.0449C286.066 83.8931 310.263 108.09 340.111 108.09Z" fill="black"/>
<path d="M195.282 254.016C193.038 254.669 190.713 255 188.376 255.001C185.29 255.001 182.304 254.398 179.528 253.319L174.27 255.616L194.571 268.342L208.003 262.476L209.416 255.022L204.503 249.008C201.825 251.32 198.68 253.028 195.282 254.016ZM231.082 231.027L223.695 269.97C223.575 270.559 223.391 271.133 223.148 271.683L223.124 271.803L223.114 271.788C222.27 273.72 220.73 275.262 218.8 276.11L216.151 277.265L249.954 498.241C253.38 493.793 255.484 488.47 256.024 482.881L269.775 342.727C270.551 334.829 268.166 326.945 263.146 320.799L227.839 277.577C227.892 277.438 227.949 277.299 227.978 277.15L235.36 238.216C235.466 237.646 235.399 237.056 235.167 236.525L231.199 227.438C231.096 227.198 230.925 227.018 230.772 226.825C231.221 228.175 231.343 229.612 231.079 231.027H231.082ZM204.888 248.667L211.138 245.938L212.466 238.939L211.347 239.426C210.972 240.361 210.556 241.283 210.064 242.179C208.717 244.618 206.967 246.811 204.888 248.667Z" fill="black"/>
<path d="M245.838 507.852L210.913 279.554L197.231 285.528C195.977 286.076 194.609 286.309 193.245 286.209C191.881 286.108 190.562 285.675 189.403 284.949L155.825 263.898C154.392 262.999 153.263 261.689 152.587 260.139L148.619 251.052C147.93 249.469 147.744 247.712 148.086 246.02C148.429 244.327 149.283 242.781 150.534 241.59C150.519 240.164 150.924 238.765 151.698 237.568C152.472 236.37 153.582 235.427 154.888 234.855L162.94 231.341L148.946 183.143C144.19 188.876 139.199 194.302 133.926 199.219C133.028 200.192 132.192 201.126 131.382 202.049C130.525 202.613 129.687 203.226 128.875 203.889C116.031 214.378 114.127 233.294 124.618 246.137L208.804 349.193L196.263 477.015C194.644 493.517 206.711 508.207 223.213 509.829C228.431 510.343 233.693 509.47 238.466 507.299L238.716 508.942C238.846 509.792 239.276 510.568 239.928 511.128C240.58 511.689 241.411 511.998 242.271 512L242.307 511.998C242.823 511.993 243.333 511.878 243.8 511.659C244.268 511.441 244.684 511.124 245.019 510.731C245.354 510.338 245.6 509.877 245.741 509.38C245.883 508.884 245.915 508.362 245.838 507.852Z" fill="black"/>
<path d="M225.651 230.008C225.757 229.439 225.69 228.85 225.459 228.319L221.491 219.23C221.339 218.883 221.121 218.569 220.848 218.307C220.576 218.044 220.254 217.838 219.901 217.699C219.549 217.561 219.173 217.494 218.794 217.501C218.416 217.508 218.042 217.59 217.695 217.741C217.337 217.899 217.015 218.128 216.75 218.415C216.484 218.702 216.28 219.041 216.151 219.41L214.911 216.569C214.727 216.147 214.382 215.815 213.954 215.647C213.525 215.479 213.047 215.488 212.625 215.673L210.22 216.723L212.147 223.357C213.026 226.378 213.319 229.54 213.011 232.672L218.92 230.092C219.225 229.95 219.48 229.72 219.653 229.432L219.821 229.811L212.887 266.372L194.108 274.572L162.579 254.806L162.411 254.427C162.741 254.496 163.084 254.465 163.396 254.338L173.458 249.942C169.217 246.739 166.121 242.255 164.628 237.154L164.494 236.69L157.1 239.919C156.891 240.01 156.702 240.141 156.543 240.305C156.385 240.47 156.261 240.663 156.177 240.876C156.094 241.088 156.053 241.315 156.057 241.543C156.061 241.771 156.111 241.996 156.202 242.205L157.444 245.047C157.085 244.891 156.698 244.811 156.308 244.811C155.917 244.811 155.53 244.891 155.171 245.047C154.824 245.198 154.511 245.417 154.248 245.689C153.985 245.962 153.779 246.284 153.641 246.636C153.502 246.988 153.435 247.365 153.442 247.743C153.449 248.122 153.531 248.495 153.682 248.842L157.65 257.929C157.883 258.46 158.27 258.909 158.762 259.219L192.335 280.265C193.142 280.769 194.149 280.846 195.02 280.467L216.59 271.046C217.462 270.667 218.092 269.876 218.269 268.942L225.651 230.008Z" fill="black"/>
<path d="M169.933 235.612C171.093 239.607 173.518 243.119 176.844 245.619C180.17 248.119 184.217 249.472 188.378 249.476C190.15 249.476 191.957 249.229 193.744 248.707C196.167 248.004 198.428 246.831 200.398 245.254C202.368 243.677 204.008 241.727 205.224 239.516C206.44 237.305 207.209 234.876 207.487 232.368C207.764 229.86 207.545 227.322 206.842 224.899L184.011 146.258L247.238 132.408C252.217 131.317 256.558 128.293 259.308 124.002C262.057 119.71 262.988 114.502 261.898 109.524C260.807 104.545 257.784 100.204 253.492 97.4547C249.2 94.7055 243.993 93.7738 239.014 94.8644L155.715 113.115C153.145 113.678 150.717 114.764 148.584 116.304C146.45 117.844 144.655 119.806 143.31 122.068C141.966 124.33 141.101 126.844 140.768 129.454C140.435 132.065 140.642 134.716 141.375 137.243L169.933 235.612Z" fill="black"/>
</svg>
