<svg width="512" height="512" viewBox="0 0 512 512" fill="none" xmlns="http://www.w3.org/2000/svg">
<path d="M507.2 355.306H4.8C2.16 355.306 0 357.466 0 360.106C0 362.746 2.16 364.906 4.8 364.906H507.2C509.84 364.906 512 362.746 512 360.106C512 357.466 509.84 355.306 507.2 355.306ZM337.341 242.86L355.171 325.774C357.189 335.156 365.48 341.574 374.704 341.574C376.098 341.574 377.512 341.426 378.93 341.122C389.728 338.801 396.6 328.162 394.278 317.364L373.139 219.055C334.715 235.382 305.83 248.7 287.618 257.38C300.917 252.924 317.55 247.876 337.341 242.86Z" fill="black"/>
<path d="M127.487 337.627C144.898 328.027 151.231 306.131 141.632 288.721C132.033 271.31 110.136 264.978 92.725 274.578C75.3138 284.177 68.9809 306.073 78.5801 323.484C88.1793 340.894 110.076 347.226 127.487 337.627Z" fill="black"/>
<path d="M456.277 159.774C452.232 149.492 440.608 144.446 430.343 148.486C306.736 197.132 241.072 231.566 238.338 233.007C237.493 233.461 236.681 233.975 235.909 234.545C235.743 234.599 235.581 234.646 235.413 234.702C202.5 248.748 185.423 261.207 162.802 286.678C146.464 305.295 149.845 326.17 159.583 336.337C168.856 346.025 187.008 342.61 198.69 331.982L179.471 323.41C171.172 319.71 167.432 309.946 171.132 301.646C172.431 298.738 174.545 296.268 177.217 294.535C179.889 292.801 183.006 291.878 186.191 291.876C188.508 291.876 190.762 292.358 192.893 293.306L226.274 308.194C238.828 298.065 252.839 288.228 267.392 282.313C285.424 273.374 285.701 267.247 280.391 256.764C309.482 242.742 365.228 217.098 444.988 185.708C455.269 181.663 460.322 170.052 456.277 159.774Z" fill="black"/>
<path d="M191.398 296.668C188.307 295.342 184.818 295.287 181.686 296.513C178.554 297.738 176.031 300.148 174.661 303.219C173.291 306.291 173.185 309.778 174.366 312.928C175.546 316.077 177.919 318.635 180.971 320.049L224.185 339.322C225.594 339.951 227.106 340.32 228.646 340.41L295.675 344.366C297.358 344.474 299.046 344.249 300.642 343.703C302.238 343.157 303.711 342.301 304.975 341.184C306.239 340.067 307.27 338.711 308.008 337.194C308.746 335.678 309.178 334.03 309.277 332.346C309.376 330.662 309.142 328.975 308.587 327.382C308.032 325.789 307.168 324.321 306.044 323.063C304.92 321.806 303.558 320.782 302.037 320.052C300.516 319.323 298.866 318.9 297.182 318.81L232.483 314.993L191.398 296.668Z" fill="black"/>
</svg>
