<svg width="512" height="512" viewBox="0 0 512 512" fill="none" xmlns="http://www.w3.org/2000/svg">
<g clip-path="url(#clip0_801_1056)">
<path d="M512.094 183.285C513.406 155.967 492.324 132.757 465.005 131.445C437.687 130.133 414.477 151.215 413.165 178.534C411.853 205.852 432.935 229.062 460.254 230.374C487.572 231.686 510.782 210.604 512.094 183.285Z" fill="black"/>
<path d="M1.0515 360.566C4.48719 372.674 15.5118 380.575 27.5048 380.575C30.049 380.573 32.5806 380.219 35.0277 379.523L155.884 345.23C159.202 344.289 162.313 342.732 165.056 340.641L257.47 270.173C258.35 269.502 259.16 268.778 259.937 268.027C262.499 266.447 265.294 264.506 268.369 262.17C287.852 244.957 313.845 232.182 337.593 221.948V172.792C337.593 160.292 347.762 150.122 360.263 150.122C372.765 150.122 382.933 160.292 382.933 172.792V201.926C397.074 192.14 405.931 176.335 400.91 162.419C394.343 144.201 370.702 127.256 337.761 135.992C292.538 148.269 266.738 161.683 229.289 193.63C214.542 208.289 211.782 221.864 214.269 233.919L135.843 293.719L20.0083 326.588C5.39179 330.737 -3.09511 345.948 1.0515 360.566Z" fill="black"/>
<path d="M377.873 172.792C377.873 168.122 376.018 163.643 372.716 160.341C369.414 157.039 364.935 155.184 360.265 155.184C355.595 155.184 351.117 157.039 347.815 160.341C344.513 163.643 342.657 168.122 342.657 172.792V289.63C348.131 287.534 354.063 286.374 360.265 286.374C366.467 286.374 372.399 287.534 377.873 289.627V172.792ZM360.265 291.437C335.773 291.437 315.918 311.291 315.918 335.784C315.918 360.276 335.773 380.131 360.265 380.131C384.757 380.131 404.612 360.276 404.612 335.784C404.612 311.291 384.757 291.437 360.265 291.437ZM360.265 356.653C348.739 356.653 339.396 347.31 339.396 335.784C339.396 324.257 348.739 314.914 360.265 314.914C371.791 314.914 381.135 324.257 381.135 335.784C381.135 347.31 371.791 356.653 360.265 356.653Z" fill="black"/>
<path d="M361.898 346.293C367.675 345.352 371.595 339.906 370.654 334.129C369.714 328.353 364.268 324.432 358.491 325.373C352.714 326.314 348.794 331.76 349.735 337.536C350.676 343.313 356.121 347.234 361.898 346.293Z" fill="black"/>
</g>
<defs>
<clipPath id="clip0_801_1056">
<rect width="512" height="512" fill="white"/>
</clipPath>
</defs>
</svg>
