<svg width="512" height="512" viewBox="0 0 512 512" fill="none" xmlns="http://www.w3.org/2000/svg">
<g clip-path="url(#clip0_801_1029)">
<path d="M428.041 232.952C423.332 227.908 415.919 226.661 405.974 229.192L404.868 227.581L385.518 236.97L335.361 215.044C327.822 179.471 317.747 159.683 317.298 158.812C315.936 156.172 313.648 154.127 310.873 153.068C304.258 149.215 285.495 140.094 256.057 140.094C226.671 140.094 207.92 149.181 201.273 153.046C198.481 154.103 196.18 156.157 194.813 158.81C194.365 159.681 184.288 179.469 176.75 215.042L122.954 238.557L100.33 227.58L99.0376 229.462C92.6942 227.234 87.8563 227.464 84.2605 230.127C71.2523 239.743 82.5831 277.886 95.7053 322.055C102.247 344.076 109.012 366.848 111.413 383.205C115.055 408.033 124.385 443.502 148.149 471.457C171.04 498.387 201.977 512 240.213 511.998C243.508 511.998 246.855 511.899 250.255 511.695C346.393 505.983 365.201 480.174 365.201 437.522C365.201 407.768 382.976 379.29 395.952 358.496C401.05 350.33 405.449 343.28 407.958 337.521C432.81 280.47 439.566 245.287 428.041 232.948V232.952ZM391.197 355.53C377.86 376.899 359.595 406.164 359.595 437.522C359.595 477.774 342.119 500.624 249.921 506.103C147.181 512.185 122.708 421.621 116.953 382.391C114.495 365.635 107.671 342.669 101.076 320.458C90.6787 285.464 77.7415 241.916 87.5892 234.633C88.9976 233.592 91.4651 233.058 95.7221 234.285L93.6375 237.324L114.241 247.322C113.642 249.531 113.679 251.864 114.349 254.052C115.019 256.241 116.294 258.195 118.027 259.691C119.759 261.186 121.879 262.161 124.142 262.503C126.405 262.846 128.719 262.542 130.817 261.626L137.606 258.656L148.864 264.118L155.557 254.377L151.69 252.499L192.262 234.764C194.065 233.975 195.651 232.759 196.88 231.222C198.11 229.684 198.947 227.871 199.321 225.938C203.112 206.261 207.868 191.355 211.4 181.881C217.335 196.213 222.89 213.17 221.909 224.71C220.264 244.071 210.261 251.805 207.911 269.944C207.261 272.316 206.893 275.865 206.893 280.976C206.893 314.139 215.069 317.602 215.583 348.333V462.302C215.583 472.619 223.945 480.981 234.262 480.981C244.576 480.981 252.941 472.619 252.941 462.302V302.294H254.874V300.955C254.874 288.287 265.18 277.98 277.85 277.98C290.52 277.98 300.825 288.287 300.825 300.955V316.58C303.014 307.403 305.218 298.191 305.218 280.976C305.218 275.867 304.85 272.326 304.2 269.946C301.854 251.805 291.848 244.071 290.204 224.71C289.223 213.17 294.777 196.215 300.711 181.885C304.241 191.359 308.999 206.261 312.791 225.938C313.164 227.871 314.002 229.684 315.232 231.222C316.462 232.76 318.047 233.975 319.852 234.764L356.784 250.91L349.641 254.377L356.334 264.118L370.866 257.066L381.295 261.624C382.877 262.315 384.526 262.644 386.152 262.644C388.514 262.645 390.826 261.956 392.803 260.663C394.781 259.37 396.338 257.528 397.284 255.363C398.038 253.637 398.379 251.759 398.279 249.878C398.18 247.998 397.644 246.166 396.713 244.529L411.563 237.324L409.377 234.143C416.117 232.761 421.011 233.632 423.947 236.777C429.495 242.717 434.127 263.414 402.821 335.287C400.477 340.665 396.177 347.554 391.199 355.532L391.197 355.53Z" fill="black"/>
<path d="M259.168 384.578C259.168 394.895 267.53 403.257 277.847 403.257C288.158 403.257 296.526 394.895 296.526 384.578V300.955C296.526 290.637 288.158 282.276 277.847 282.276C267.53 282.276 259.168 290.637 259.168 300.955V384.578ZM212.713 25.5923C181.644 21.5837 178.321 10.3893 179.976 2.06774C181.631 -6.2557 162.548 11.7622 179.918 34.3771C191.041 48.8572 217.715 47.7141 231.181 53.9678C236.435 50.4069 242.394 48.0191 248.653 46.9669C244.152 37.1248 234.151 28.3587 212.713 25.5923Z" fill="black"/>
<path d="M256.055 130.956C278.235 130.956 296.215 112.976 296.215 90.7957C296.215 68.6159 278.235 50.6355 256.055 50.6355C233.875 50.6355 215.895 68.6159 215.895 90.7957C215.895 112.976 233.875 130.956 256.055 130.956Z" fill="black"/>
</g>
<defs>
<clipPath id="clip0_801_1029">
<rect width="512" height="512" fill="white"/>
</clipPath>
</defs>
</svg>
