<svg width="512" height="512" viewBox="0 0 512 512" fill="none" xmlns="http://www.w3.org/2000/svg">
<g clip-path="url(#clip0_801_1044)">
<path d="M487.856 282.226H487.655L465.634 282.406L402.092 202.193C396.793 195.507 388.559 191.502 380.029 191.432C379.952 191.432 379.879 191.419 379.801 191.419L375.431 191.476L374.45 187.914C370.906 175.057 357.622 167.507 344.752 171.048C334.796 173.791 328.048 182.389 327.144 192.099L326.46 192.106C325.046 192.126 323.726 192.589 322.59 193.356C321.951 193.787 321.354 194.287 320.871 194.921C320.211 195.782 319.757 196.783 319.544 197.846C319.331 198.91 319.364 200.008 319.642 201.057L323.487 215.771C323.818 217.038 324.493 218.188 325.437 219.096C326.381 220.003 327.557 220.632 328.836 220.914C329.342 221.028 329.86 221.107 330.397 221.107H330.502L333.486 221.064L351.948 288.044L302.328 284.286C302.432 282.396 302.401 280.505 302.169 278.619C300.017 261.044 285.862 250.131 259.241 254.657C226.713 262.708 187.131 257.611 159.676 255.301C139.956 251.891 117.874 261.612 115.588 278.451C115.511 279.012 115.492 279.597 115.446 280.171L129.885 271.535C132.967 269.691 136.492 268.716 140.084 268.714C143.525 268.723 146.906 269.619 149.9 271.316C152.894 273.013 155.4 275.453 157.176 278.401C158.524 280.641 159.415 283.127 159.796 285.713C160.177 288.3 160.041 290.937 159.396 293.47C158.765 296.007 157.637 298.394 156.078 300.492C154.519 302.59 152.559 304.358 150.312 305.694L133.531 315.728C139.029 319.65 145.791 322.813 153.998 324.664C193.868 333.41 382.525 338.794 382.525 338.794C386.387 339.086 390.263 338.446 393.825 336.926C397.387 335.406 400.532 333.051 402.993 330.061C405.455 327.071 407.161 323.532 407.968 319.744C408.774 315.956 408.658 312.03 407.629 308.296L385.466 227.873L392.537 236.796L428.902 282.704L405.239 282.897L411.916 307.116C414.196 315.392 412.575 324.219 407.666 331.178L466.962 330.695C468.169 332.092 469.662 333.213 471.34 333.984C473.017 334.755 474.841 335.156 476.687 335.162C477.182 335.162 477.68 335.133 478.175 335.073L487.334 333.985C488.763 333.823 490.137 333.346 491.359 332.587C492.581 331.829 493.618 330.808 494.397 329.6C504.623 326.721 512.092 317.313 512.003 306.179C511.893 292.908 501.101 282.226 487.856 282.226ZM486.648 328.23L477.491 329.32H477.489C475.093 329.6 472.659 328.605 471.156 326.708L385.846 219.02L390.044 208.644L388.252 207.919L384.465 217.28L383.918 216.588C383.411 215.944 382.761 215.428 382.019 215.081L386.024 205.18L384.231 204.455L380.116 214.629C380.029 214.623 379.95 214.6 379.861 214.6L379.734 214.602L330.42 215.311C329.717 215.334 329.253 214.907 329.095 214.306L325.25 199.593C325.197 199.395 325.19 199.187 325.23 198.986C325.27 198.785 325.357 198.596 325.482 198.433C325.631 198.24 325.965 197.912 326.537 197.904L379.508 197.216L379.801 197.214C380.618 197.214 381.43 197.267 382.236 197.355L378.816 205.804L380.609 206.528L384.189 197.68C389.409 198.729 394.212 201.583 397.548 205.794L489.349 321.673C490.276 322.844 490.491 324.364 489.921 325.744C489.65 326.415 489.203 327 488.627 327.438C488.051 327.876 487.367 328.149 486.648 328.23ZM110.903 282.885C110.896 281.185 110.961 279.498 111.186 277.852C111.572 275.001 112.474 272.281 113.79 269.729C113.539 245.938 94.1824 226.729 70.3324 226.729C46.3239 226.729 26.8633 246.191 26.8633 270.198C26.8633 291.498 42.1856 309.204 62.4075 312.933C63.7192 311.465 65.2429 310.201 66.9282 309.183L110.903 282.885Z" fill="black"/>
<path d="M148.026 301.88C151.498 299.755 153.992 296.345 154.964 292.392C155.937 288.439 155.311 284.261 153.222 280.767C151.133 277.273 147.75 274.744 143.807 273.73C139.864 272.716 135.681 273.298 132.165 275.35L69.2081 312.997C67.2331 314.18 65.5494 315.793 64.2816 317.714C43.741 315.112 27.2189 299.469 23.3086 279.361C21.2045 278.113 18.8333 277.383 16.3912 277.233C13.9491 277.083 11.5064 277.516 9.26516 278.498C7.40564 279.311 5.72454 280.483 4.31784 281.946C2.91115 283.409 1.80642 285.134 1.06674 287.024C0.327069 288.914 -0.0330669 290.932 0.0069036 292.961C0.0468741 294.99 0.486168 296.991 1.2997 298.851C18.5521 338.286 59.4922 341.825 73.6226 341.825C76.3447 341.825 78.0699 341.696 78.4428 341.663C78.5838 341.651 78.7171 341.624 78.8582 341.607C79.522 341.532 80.1802 341.414 80.8288 341.253C80.9949 341.215 81.1591 341.182 81.3234 341.136C81.9281 340.966 82.5154 340.763 83.0853 340.525C83.1838 340.483 83.2804 340.432 83.3809 340.388C83.8755 340.168 84.3527 339.924 84.8163 339.656C84.9013 339.609 84.9902 339.578 85.0714 339.528L95.0016 333.589L148.026 301.88Z" fill="black"/>
</g>
<defs>
<clipPath id="clip0_801_1044">
<rect width="512" height="512" fill="white"/>
</clipPath>
</defs>
</svg>
