<svg width="512" height="512" viewBox="0 0 512 512" fill="none" xmlns="http://www.w3.org/2000/svg">
<g clip-path="url(#clip0_797_777)">
<path d="M82.066 480.392L81.73 415.527L104.803 421.72L104.672 396.161L134.672 396.009L135.002 460.888L111.934 454.695L112.066 480.235L82.066 480.392ZM7.59 413.535L0 384.512L24.71 378.05L12.775 357.358L75.543 340.938L83.135 369.962L58.408 376.431L70.345 397.124L7.59 413.535Z" fill="#6D5A8A"/>
<path d="M429.932 480.392L399.932 480.235L400.064 454.695L376.996 460.888L377.326 396.009L407.326 396.161L407.195 421.72L430.268 415.527L429.932 480.392ZM504.408 413.535L441.653 397.124L453.59 376.431L428.863 369.962L436.455 340.938L499.223 357.358L487.288 378.05L511.998 384.512L504.408 413.535Z" fill="#443856"/>
<path d="M183.816 98.438L167.205 74.418C162.513 67.634 160 59.5814 160 51.333V0H96V51.333C96.0001 79.8888 107.344 107.275 127.536 127.467L183.816 98.438Z" fill="#F54550"/>
<path d="M328.184 98.438L344.795 74.418C349.486 67.634 352 59.5814 352 51.333V0H416V51.333C416 79.8888 404.656 107.275 384.464 127.467L328.184 98.438Z" fill="#C42F38"/>
<path d="M448 240C448 279.76 431.88 315.76 405.82 341.82C379.76 367.88 343.76 384 304 384H208C128.47 384 64 319.53 64 240C63.956 160.882 128.335 95.967 208 96H304C383.53 96 448 160.47 448 240Z" fill="#FF7E7D"/>
<path d="M448 240C448 279.76 431.88 315.76 405.82 341.82C379.76 367.88 343.76 384 304 384H256V96H304C383.53 96 448 160.47 448 240Z" fill="#F54550"/>
<path d="M377.799 236.13C377.799 263.3 363.579 287.13 342.169 300.61C329.649 308.49 319.529 319.23 312.529 331.71C305.539 344.17 301.679 358.37 301.679 373.16C318.499 373.16 332.129 386.79 332.129 403.61C332.129 412.02 328.719 419.63 323.209 425.14C317.699 430.65 310.089 434.06 301.679 434.06V497L286.189 512H225.809L210.319 497V434.06C193.499 434.06 179.869 420.42 179.869 403.61C179.869 395.2 183.279 387.58 188.789 382.07C194.299 376.56 201.909 373.16 210.319 373.16C210.319 343.59 194.859 316.36 169.829 300.61C159.107 293.853 150.228 284.542 143.989 273.51C137.749 262.47 134.199 249.72 134.199 236.13C157.279 208.83 255.989 185.67 255.989 185.67L255.999 185.68C257.179 186.01 353.779 212.69 377.799 236.13Z" fill="#3B99FF"/>
<path d="M377.8 236.13C377.8 263.3 363.58 287.13 342.17 300.61C329.65 308.49 319.53 319.23 312.53 331.71C305.54 344.17 301.68 358.37 301.68 373.16C318.5 373.16 332.13 386.79 332.13 403.61C332.13 412.02 328.72 419.63 323.21 425.14C317.7 430.65 310.09 434.06 301.68 434.06V497L286.19 512H256V185.68C257.18 186.01 353.78 212.69 377.8 236.13Z" fill="#1F73CF"/>
<path d="M377.803 236.128C357.496 236.128 357.496 222.863 337.199 222.863C316.892 222.863 316.892 236.128 296.594 236.128C276.287 236.128 276.287 222.863 255.999 222.863H255.989C235.682 222.863 235.682 236.128 215.385 236.128C195.087 236.128 195.087 222.863 174.78 222.863C164.636 222.863 159.564 226.175 154.483 229.496C149.411 232.817 144.339 236.129 134.195 236.129C134.195 194.088 168.281 160.001 210.323 160.001H301.676C322.697 160.001 341.729 168.527 355.508 182.297C369.277 196.075 377.803 215.107 377.803 236.128Z" fill="#97C8FF"/>
<path d="M377.804 236.128C357.497 236.128 357.497 222.863 337.2 222.863C316.893 222.863 316.893 236.128 296.595 236.128C276.288 236.128 276.288 222.863 256 222.863V160H301.677C322.698 160 341.73 168.526 355.509 182.296C369.278 196.075 377.804 215.107 377.804 236.128Z" fill="#3B99FF"/>
<path d="M391.5 240.94C391.5 272.18 375.7 300.77 349.23 317.42C332.06 328.22 320.64 345.27 317.24 364.45C334.22 370.93 346.32 387.39 346.32 406.62C346.32 426.25 333.72 442.99 316.19 449.19V512H286.19V421.75H301.19C309.53 421.75 316.32 414.96 316.32 406.62C316.32 398.29 309.53 391.5 301.19 391.5H286.19V376.5C286.19 342.15 303.78 310.58 333.25 292.03C350.94 280.9 361.5 261.8 361.5 240.94C361.5 207.68 334.44 180.62 301.19 180.62H210.81C177.56 180.62 150.5 207.68 150.5 240.94C150.5 261.8 161.06 280.9 178.75 292.03C208.22 310.58 225.81 342.15 225.81 376.5V391.5H210.81C202.47 391.5 195.68 398.29 195.68 406.62C195.68 414.96 202.47 421.75 210.81 421.75H225.81V512H195.81V449.19C178.28 442.99 165.68 426.25 165.68 406.62C165.68 387.39 177.78 370.93 194.76 364.45C191.36 345.27 179.94 328.22 162.77 317.42C136.3 300.77 120.5 272.18 120.5 240.94C120.5 191.14 161.01 150.62 210.81 150.62H301.19C350.99 150.62 391.5 191.14 391.5 240.94Z" fill="#C42F38"/>
<path d="M391.5 240.94C391.5 272.18 375.7 300.77 349.23 317.42C332.06 328.22 320.64 345.27 317.24 364.45C334.22 370.93 346.32 387.39 346.32 406.62C346.32 426.25 333.72 442.99 316.19 449.19V512H286.19V421.75H301.19C309.53 421.75 316.32 414.96 316.32 406.62C316.32 398.29 309.53 391.5 301.19 391.5H286.19V376.5C286.19 342.15 303.78 310.58 333.25 292.03C350.94 280.9 361.5 261.8 361.5 240.94C361.5 207.68 334.44 180.62 301.19 180.62H256V150.62H301.19C350.99 150.62 391.5 191.14 391.5 240.94Z" fill="#7B2227"/>
</g>
<defs>
<clipPath id="clip0_797_777">
<rect width="512" height="512" fill="white"/>
</clipPath>
</defs>
</svg>
