<svg width="512" height="512" viewBox="0 0 512 512" fill="none" xmlns="http://www.w3.org/2000/svg">
<path d="M199.464 342.549C181.906 350.675 162.556 354.157 143.267 352.662C123.978 351.167 105.396 344.744 89.3003 334.009C73.2047 323.274 60.135 308.587 51.3427 291.353C42.5505 274.119 38.3303 254.917 39.0863 235.584C39.8423 216.252 45.5492 197.438 55.6604 180.943C65.7716 164.449 79.9485 150.827 96.8332 141.381C113.718 131.936 132.745 126.984 152.092 127C171.439 127.016 190.458 131.999 207.327 141.471L154.807 235.001C153.951 234.52 152.986 234.267 152.005 234.266C151.023 234.266 150.058 234.517 149.201 234.996C148.344 235.475 147.625 236.167 147.112 237.003C146.599 237.84 146.309 238.795 146.271 239.776C146.232 240.757 146.447 241.731 146.893 242.606C147.339 243.48 148.002 244.225 148.819 244.77C149.635 245.315 150.578 245.641 151.557 245.716C152.536 245.792 153.517 245.616 154.408 245.203L199.464 342.549Z" fill="#5A73F1"/>
<path d="M272.001 368C249.521 368.038 227.434 362.102 208.001 350.8C183.625 336.7 164.578 314.955 153.812 288.933C143.047 262.911 141.163 234.065 148.453 206.865C155.743 179.664 171.8 155.626 194.136 138.476C216.472 121.325 243.84 112.02 272.001 112C305.949 112 338.506 125.486 362.511 149.49C386.516 173.495 400.001 206.052 400.001 240C400.001 273.948 386.516 306.505 362.511 330.51C338.506 354.514 305.949 368 272.001 368ZM272.001 128C249.85 128 228.196 134.569 209.777 146.875C191.359 159.182 177.004 176.674 168.527 197.139C160.05 217.605 157.832 240.124 162.153 261.85C166.475 283.576 177.142 303.532 192.805 319.196C208.469 334.859 228.425 345.526 250.151 349.848C271.877 354.17 294.396 351.952 314.862 343.475C335.327 334.998 352.819 320.642 365.126 302.224C377.433 283.806 384.001 262.152 384.001 240C384.099 215.439 376.021 191.544 361.041 172.08C354.97 164.157 347.867 157.081 339.921 151.04C320.482 136.004 296.576 127.895 272.001 128Z" fill="black"/>
<path d="M152.001 368C132.372 367.993 113.007 363.471 95.4052 354.784C77.8029 346.097 62.4342 333.478 50.4876 317.903C38.5409 302.328 30.3364 284.215 26.5084 264.962C22.6804 245.71 23.3315 225.835 28.4113 206.875C33.4911 187.915 42.8635 170.377 55.8039 155.617C68.7443 140.857 84.9058 129.271 103.039 121.755C121.172 114.239 140.791 110.994 160.378 112.271C179.966 113.548 198.997 119.313 216.001 129.12C217.232 129.818 218.256 130.83 218.969 132.052C219.681 133.275 220.057 134.665 220.057 136.08C220.057 137.495 219.681 138.885 218.969 140.108C218.256 141.331 217.232 142.342 216.001 143.04C198.972 152.87 184.831 167.008 175 184.036C165.168 201.063 159.992 220.378 159.992 240.04C159.992 259.702 165.168 279.017 175 296.045C184.831 313.072 198.972 327.211 216.001 337.04C217.195 337.749 218.184 338.755 218.871 339.962C219.557 341.168 219.919 342.532 219.919 343.92C219.919 345.308 219.557 346.673 218.871 347.879C218.184 349.085 217.195 350.092 216.001 350.8C196.568 362.102 174.481 368.038 152.001 368ZM152.001 128C135.384 128 118.976 131.697 103.965 138.824C88.9536 145.95 75.7165 156.327 65.2128 169.203C54.7091 182.079 47.202 197.131 43.2359 213.268C39.2697 229.404 38.9438 246.221 42.2818 262.499C45.6198 278.777 52.5381 294.108 62.535 307.381C72.532 320.655 85.3571 331.537 100.081 339.24C114.804 346.943 131.057 351.273 147.662 351.916C164.266 352.56 180.805 349.5 196.081 342.96C179.969 331.06 166.876 315.545 157.852 297.663C148.829 279.78 144.129 260.03 144.129 240C144.129 219.97 148.829 200.22 157.852 182.338C166.876 164.455 179.969 148.94 196.081 137.04C182.146 131.091 167.153 128.016 152.001 128ZM367.361 175.2H366.801C365.675 175.116 364.58 174.795 363.587 174.257C362.594 173.719 361.727 172.977 361.041 172.08C354.97 164.157 347.867 157.081 339.921 151.04C339.004 150.348 338.247 149.467 337.701 148.456C337.155 147.446 336.833 146.329 336.758 145.183C336.682 144.037 336.853 142.888 337.261 141.814C337.669 140.74 338.303 139.767 339.121 138.96L368.001 110.08L339.601 81.7602C338.139 80.2271 337.31 78.1983 337.281 76.0802C337.275 75.0273 337.477 73.9836 337.875 73.0089C338.273 72.0342 338.86 71.1477 339.601 70.4002L362.321 48.0002C363.065 47.2503 363.949 46.6552 364.924 46.249C365.899 45.8429 366.945 45.6338 368.001 45.6338C369.057 45.6338 370.103 45.8429 371.078 46.249C372.052 46.6552 372.937 47.2503 373.681 48.0002L402.001 76.4002L430.241 48.0002C430.988 47.2587 431.875 46.6721 432.85 46.274C433.824 45.8759 434.868 45.6741 435.921 45.6802C436.974 45.6741 438.017 45.8759 438.992 46.274C439.967 46.6721 440.853 47.2587 441.601 48.0002L464.001 70.4002C464.751 71.1439 465.346 72.0287 465.752 73.0036C466.158 73.9784 466.367 75.0241 466.367 76.0802C466.367 77.1363 466.158 78.1819 465.752 79.1568C465.346 80.1317 464.751 81.0165 464.001 81.7602L435.681 110.08L464.001 138.32C464.751 139.064 465.346 139.949 465.752 140.924C466.158 141.898 466.367 142.944 466.367 144C466.367 145.056 466.158 146.102 465.752 147.077C465.346 148.052 464.751 148.936 464.001 149.68L441.601 172.32C440.853 173.062 439.967 173.648 438.992 174.046C438.017 174.444 436.974 174.646 435.921 174.64C434.868 174.646 433.824 174.444 432.85 174.046C431.875 173.648 430.988 173.062 430.241 172.32L401.921 144L373.041 172.96C371.518 174.428 369.476 175.234 367.361 175.2ZM401.921 124.64C402.974 124.634 404.017 124.836 404.992 125.234C405.967 125.632 406.853 126.219 407.601 126.96L435.921 155.28L447.201 144L418.881 115.76C418.131 115.016 417.536 114.132 417.13 113.157C416.724 112.182 416.515 111.136 416.515 110.08C416.515 109.024 416.724 107.978 417.13 107.004C417.536 106.029 418.131 105.144 418.881 104.4L447.201 76.0802L435.921 64.8802L408.001 93.2002C407.253 93.9416 406.367 94.5282 405.392 94.9263C404.418 95.3245 403.374 95.5263 402.321 95.5202C401.268 95.5263 400.224 95.3245 399.25 94.9263C398.275 94.5282 397.388 93.9416 396.641 93.2002L368.001 64.8002L356.721 76.0802L385.041 104.4C385.791 105.144 386.386 106.029 386.792 107.004C387.198 107.978 387.407 109.024 387.407 110.08C387.407 111.136 387.198 112.182 386.792 113.157C386.386 114.132 385.791 115.016 385.041 115.76L356.721 144C360.652 147.531 364.39 151.269 367.921 155.2L396.241 126.88C397.764 125.412 399.806 124.607 401.921 124.64Z" fill="black"/>
<path d="M152 416C149.878 416 147.843 415.157 146.343 413.657C144.843 412.157 144 410.122 144 408V360C144 357.878 144.843 355.843 146.343 354.343C147.843 352.843 149.878 352 152 352C154.122 352 156.157 352.843 157.657 354.343C159.157 355.843 160 357.878 160 360V408C160 410.122 159.157 412.157 157.657 413.657C156.157 415.157 154.122 416 152 416Z" fill="black"/>
<path d="M152 461.28C150.942 461.276 149.895 461.061 148.92 460.649C147.945 460.237 147.061 459.636 146.32 458.88L101.12 413.68C99.997 412.566 99.2292 411.144 98.9141 409.593C98.5991 408.043 98.7508 406.433 99.3502 404.969C99.9496 403.505 100.97 402.251 102.282 401.367C103.593 400.482 105.138 400.007 106.72 400H197.28C198.863 400.007 200.407 400.482 201.719 401.367C203.031 402.251 204.051 403.505 204.651 404.969C205.25 406.433 205.402 408.043 205.087 409.593C204.772 411.144 204.004 412.566 202.88 413.68L157.68 458.88C156.939 459.636 156.056 460.237 155.081 460.649C154.106 461.061 153.059 461.276 152 461.28ZM126.08 416L152 441.92L177.92 416H126.08Z" fill="black"/>
<circle cx="272" cy="240" r="113" fill="#F15ADD"/>
</svg>
