<svg width="512" height="512" viewBox="0 0 512 512" fill="none" xmlns="http://www.w3.org/2000/svg">
<g clip-path="url(#clip0_807_621)">
<path d="M205.39 138.793C104.952 138.793 23.5312 219.553 23.5312 319.175C23.5312 418.797 104.953 499.557 205.39 499.557C305.83 499.557 387.254 418.795 387.254 319.169C387.254 219.543 305.831 138.781 205.39 138.781V138.793Z" fill="#BFE1F0"/>
<path d="M279.341 454.658C274.075 467.188 267.906 479.319 260.884 490.956C286.05 482.985 309.174 469.618 328.64 451.787C348.107 433.957 363.448 412.093 373.592 387.722C368.547 346.133 341.232 306.637 302.965 289.164C269.866 273.907 231.354 279.444 198.255 287.073C176.845 291.502 152.729 298.762 131.565 295.317C120.369 293.471 110.402 286.58 103.389 277.598C86.5315 255.82 95.2676 227.52 111.755 206.602C130.089 183.347 160.85 166.367 190.749 170.55C198.624 171.904 207.483 173.75 209.698 182.24C212.036 195.159 202.439 209.924 192.103 217.799C186.812 221.736 180.291 224.566 174.139 222.721C171.395 221.81 168.958 220.149 167.125 217.922C165.649 215.83 166.387 213.493 167.617 211.032C169.34 208.091 171.542 205.47 174.139 203.28L175.246 202.419C176.266 201.685 176.973 200.593 177.223 199.361C177.474 198.13 177.252 196.849 176.599 195.774C174.508 192.452 170.816 192.944 168.109 195.159C164.195 197.669 160.739 200.832 157.896 204.51C151.128 213.123 152.236 224.32 160.479 231.58C181.52 251.513 213.142 232.81 226.308 212.631C248.456 179.902 232.952 147.295 195.055 139.051C133.053 142.509 77.0929 177.281 46.5412 231.334C35.0981 270.093 49.3712 310.451 79.7629 336.536C116.43 368.65 166.016 365.205 210.189 359.914C225.569 358.438 241.811 356.469 255.592 358.561C266.42 360.037 271.219 364.221 277.863 371.111C299.396 394.243 290.413 426.85 279.341 454.658Z" fill="#D1EDF7"/>
<path d="M168.846 505.844C168.846 505.844 116.429 504.245 90.8362 459.949C72.0105 427.342 79.5162 392.029 84.807 375.664C85.7914 372.465 87.0218 369.389 88.2523 366.313C88.2523 366.313 98.957 388.83 123.074 396.335C147.19 403.841 183.365 409.378 185.826 445.061C187.425 469.423 182.996 477.79 187.179 491.325C190.255 501.045 215.233 501.414 241.195 496.124C235.289 497.6 187.794 508.182 168.846 505.844ZM241.934 133.022C241.934 133.022 294.35 134.622 320.066 178.917C338.892 211.524 331.386 246.837 326.095 263.202C325.086 266.377 323.893 269.502 322.527 272.554C322.527 272.554 311.822 250.037 287.706 242.531C263.589 235.025 227.414 229.488 224.954 193.806C223.354 169.443 227.784 161.076 223.6 147.418C220.524 137.698 195.546 137.329 169.584 142.62C175.49 141.266 222.985 130.561 241.934 133.022Z" fill="#A0D972"/>
<path d="M84.8086 375.664C85.7929 372.465 87.0234 369.389 88.2538 366.313C88.2538 366.313 98.9586 388.83 123.075 396.336C147.192 403.841 183.366 409.378 185.827 445.061C187.427 469.423 182.997 477.79 187.181 491.325C190.257 501.046 215.235 501.415 241.197 496.124C235.291 497.477 187.919 508.059 168.847 505.721L168.355 505.352C165.402 503.26 150.514 491.325 165.894 466.347C178.445 445.799 165.402 423.774 127.628 414.054C90.0995 404.58 84.8086 376.156 84.8086 375.664ZM326.097 263.203C325.088 266.377 323.894 269.502 322.529 272.554C322.529 272.554 311.824 250.037 287.707 242.531C263.591 235.026 227.416 229.489 224.955 193.806C223.356 169.443 227.785 161.076 223.602 147.419C220.526 137.698 195.548 137.329 169.586 142.62C175.369 141.266 222.863 130.685 241.935 133.022L242.427 133.392C245.38 135.483 260.269 147.419 244.888 172.396C232.338 192.945 245.38 214.969 283.155 224.69C320.683 234.287 325.974 262.71 326.097 263.203Z" fill="#7BA15B"/>
<path d="M413.21 131.054C395.542 131.054 381.219 145.377 381.219 163.045C381.219 180.713 395.542 195.036 413.21 195.036C430.878 195.036 445.201 180.713 445.201 163.045C445.201 145.377 430.879 131.054 413.21 131.054Z" fill="#A4D2EB"/>
<path d="M437.819 0C427.286 0 418.747 8.53922 418.747 19.0717C418.747 29.6043 427.286 38.1435 437.819 38.1435C448.351 38.1435 456.89 29.6043 456.89 19.0717C456.89 8.53922 448.353 0 437.819 0ZM358.087 27.5617C334.167 27.5544 314.769 46.9399 314.762 70.8595C314.754 94.7792 334.14 114.177 358.06 114.184H358.087C382.006 114.184 401.398 94.7927 401.398 70.8731C401.398 46.9534 382.007 27.5617 358.087 27.5617Z" fill="#BFE1F0"/>
<path d="M168.848 511.996C174.914 512.206 177.596 503.777 172.293 500.553C147.93 485.296 132.304 464.994 124.798 438.539C124.573 437.763 124.197 437.038 123.692 436.408C123.186 435.777 122.561 435.252 121.853 434.863C121.144 434.475 120.365 434.23 119.562 434.143C118.758 434.056 117.945 434.128 117.169 434.356C116.392 434.58 115.667 434.955 115.035 435.46C114.404 435.965 113.878 436.59 113.49 437.299C113.101 438.009 112.856 438.788 112.77 439.592C112.683 440.396 112.757 441.209 112.986 441.985C119.015 462.902 129.351 480.251 144.485 494.647C91.4409 477.913 75.7037 424.365 90.0998 379.971C96.2519 387.722 106.465 397.443 121.476 402.119C145.666 409.501 177.756 414.534 179.922 445.43C180.451 453.379 180.401 461.352 179.798 469.3C179.306 477.79 178.814 484.435 181.644 493.171C188.412 514.703 243.289 502.153 249.441 500.676C366.332 474.997 429.257 338.505 372.608 233.057C370.848 230.067 367.095 228.935 363.995 230.473C363.287 230.829 362.657 231.319 362.139 231.919C361.622 232.518 361.228 233.214 360.98 233.966C360.732 234.718 360.635 235.512 360.694 236.301C360.753 237.091 360.967 237.861 361.325 238.568C361.337 238.605 361.361 238.654 361.398 238.703C414.393 337.384 355.517 464.697 246.353 488.728C213.5 496.602 194.182 492.911 193.075 489.589C190.983 483.068 191.352 477.9 191.844 470.148C192.46 461.67 192.497 453.156 191.967 444.678C188.584 404.578 151.769 398.771 124.909 390.416C103.745 383.895 94.0249 363.838 93.9018 363.715C92.413 360.652 88.734 359.372 85.6825 360.849C84.4275 361.451 83.4185 362.448 82.8156 363.703C52.6945 431.722 90.432 507.135 168.823 511.971L168.848 511.996Z" fill="#414042"/>
<path d="M218.925 194.175C222.358 234.287 259.185 240.095 285.984 248.437C307.147 254.958 316.868 275.015 316.991 275.138C317.701 276.604 318.965 277.728 320.503 278.263C322.042 278.798 323.731 278.701 325.198 277.992C326.44 277.377 327.449 276.38 328.052 275.125C358.173 207.095 320.448 131.743 242.168 126.858C236.016 126.624 233.469 134.979 238.723 138.178C263.085 153.435 278.712 173.737 286.217 200.192C286.443 200.968 286.82 201.691 287.326 202.321C287.831 202.952 288.456 203.476 289.165 203.864C289.873 204.253 290.651 204.498 291.455 204.586C292.258 204.673 293.071 204.602 293.846 204.375C295.411 203.916 296.731 202.856 297.515 201.426C298.299 199.996 298.484 198.313 298.03 196.747C292.534 176.646 281.641 158.434 266.53 144.084C319.538 160.953 335.176 214.219 320.793 258.637C314.64 250.886 304.428 241.165 289.417 236.49C265.263 229.107 233.124 224.087 230.971 193.178C230.43 185.217 230.479 177.244 231.094 169.308C231.586 160.818 231.955 154.05 229.248 145.437C222.481 123.905 167.604 136.455 161.451 137.932C44.6831 163.636 -18.1922 300.349 38.5309 405.674C40.4381 408.468 44.277 409.193 47.0824 407.274C48.2188 406.49 49.0594 405.347 49.4698 404.029C49.8803 402.711 49.8368 401.293 49.3464 400.002C5.05075 314.733 38.3955 209.408 123.665 165.112V165.111C136.597 158.393 150.316 153.311 164.515 149.976C197.368 142.102 216.686 145.793 217.793 149.238C219.885 155.76 219.516 160.927 219.023 168.679C218.396 177.144 218.359 185.659 218.9 194.149L218.925 194.175ZM401.152 478.159C396.292 481.555 398.999 489.455 404.844 489.356H488.513C496.696 489.184 496.622 477.175 488.513 476.929H422.537C447.884 455.765 496.61 408.271 481.967 368.651C475.077 350.071 455.636 339.858 435.826 344.288C416.385 348.718 406.05 368.528 405.557 369.389C404.339 372.563 405.939 376.107 409.113 377.313C411.759 378.31 414.761 377.374 416.373 375.037C416.496 374.914 424.617 359.41 438.398 356.334C452.179 353.258 465.59 360.271 470.266 372.945C483.456 408.627 424.764 460.921 401.14 478.147L401.152 478.159Z" fill="#414042"/>
</g>
<defs>
<clipPath id="clip0_807_621">
<rect width="512" height="512" fill="white"/>
</clipPath>
</defs>
</svg>
