<svg width="512" height="512" viewBox="0 0 512 512" fill="none" xmlns="http://www.w3.org/2000/svg">
<g clip-path="url(#clip0_797_703)">
<path d="M251.8 276.713C249.6 276.713 247.429 275.744 245.961 273.891C243.419 270.674 243.97 266.008 247.192 263.469L296.188 224.876L251.341 229.994C248.056 230.295 244.904 228.516 243.628 225.45C242.368 222.384 243.292 218.849 245.897 216.797L314.929 162.427C318.163 159.889 322.822 160.444 325.364 163.655C327.905 166.873 327.354 171.536 324.133 174.076L275.612 212.291L320.465 207.173C323.738 206.831 326.902 208.646 328.18 211.722C329.439 214.788 328.516 218.316 325.908 220.369L256.395 275.114C255.085 276.145 253.467 276.707 251.8 276.707V276.713ZM393.038 239.012C391.772 235.946 388.575 234.154 385.331 234.467L340.478 239.585L389.005 201.369C392.227 198.83 392.778 194.166 390.236 190.949C387.695 187.738 383.033 187.177 379.8 189.72L310.761 244.089C308.156 246.141 307.233 249.675 308.492 252.741C309.762 255.807 312.955 257.616 316.205 257.286L361.069 252.168L312.06 290.767C308.838 293.306 308.287 297.971 310.829 301.189C312.297 303.042 314.468 304.011 316.668 304.011C318.276 304.011 319.902 303.489 321.264 302.418L390.773 247.666C393.378 245.614 394.301 242.079 393.036 239.014L393.038 239.012Z" fill="#FF1A63"/>
<path d="M217.19 106.406C231.415 116.543 242.884 120.699 252.569 120.699C270.038 120.699 281.716 107.194 293.336 90.9371V90.931C302.519 78.0818 307.377 61.919 306.675 46.6C305.915 30.0951 299.071 16.4329 287.411 8.12828C275.756 -0.1825 260.591 -2.20592 244.717 2.45532C229.973 6.77251 216.254 16.6152 207.072 29.4684C198.006 42.1538 190.486 53.6942 190.242 66.4103C189.98 80.4124 198.54 93.1223 217.19 106.406ZM219.168 38.0803C226.451 27.8853 237.289 20.0886 248.895 16.6869C253.085 15.4642 257.164 14.856 261.05 14.856C267.73 14.856 273.807 16.6582 278.787 20.2053C286.652 25.8107 291.282 35.424 291.829 47.2779C292.386 59.3447 288.528 72.118 281.243 82.3171V82.3109C264.777 105.367 255.536 115.503 225.816 94.3245C207.036 80.9429 204.998 72.1447 205.102 66.6908C205.258 58.2162 211.568 48.7176 219.172 38.0782L219.168 38.0803ZM249.517 295.485C247.828 295.237 246.042 295.096 244.315 294.889C243.73 290.533 241.841 286.492 238.751 283.244C225.324 269.134 215.639 256.428 208.924 243.419C207.81 213.446 213.128 190.333 226.18 168.751C232.414 158.445 234.26 146.327 231.368 134.631C228.482 122.937 221.206 113.066 210.886 106.842C189.591 93.9866 161.779 100.833 148.883 122.108C112.613 182.046 115.324 241.127 123.653 296.042C125.283 306.796 130.784 316.221 138.555 323.049C139.695 329.406 140.895 335.806 142.126 342.28C150.525 386.396 159.207 432.019 145.72 472.498C143.183 480.102 143.765 488.239 147.357 495.409C150.949 502.583 157.124 507.926 164.716 510.449C167.773 511.482 170.978 512.002 174.241 512.002C187.213 512.002 198.676 503.742 202.755 491.456C218.936 442.951 220.991 384.796 209.278 314.12C209.292 314.132 209.305 314.147 209.319 314.159C213.196 317.538 218.089 319.226 223.012 319.226C227.935 319.226 233.092 317.47 237.145 313.962C238.659 312.652 239.883 311.087 240.965 309.428C243.103 309.666 245.286 309.858 247.361 310.161C247.727 310.218 248.094 310.243 248.452 310.243C252.073 310.243 255.25 307.589 255.788 303.902C256.386 299.845 253.576 296.077 249.521 295.487L249.517 295.485ZM161.599 129.782C170.239 115.501 188.894 110.893 203.202 119.539C210.126 123.711 215.006 130.337 216.946 138.184C218.885 146.032 217.642 154.163 213.458 161.077C205.803 173.736 200.545 186.802 197.406 201.089C196.599 189.589 197.062 177.039 198.803 162.537C199.552 156.279 197.572 149.979 193.369 145.25C189.173 140.538 183.162 137.832 176.864 137.832C166.08 137.832 156.898 145.389 155.035 155.803C144.797 213.117 158.572 261.9 195.831 301.158C191.712 310.618 183.213 317.624 172.824 319.197C156.092 321.827 140.787 309.969 138.348 293.824C130.432 241.662 127.774 185.688 161.599 129.784V129.782ZM188.657 486.779C186.074 494.551 177.211 499.024 169.434 496.376C165.58 495.102 162.459 492.394 160.64 488.771C158.824 485.142 158.529 481.028 159.811 477.18C174.524 433.041 165.475 385.493 156.722 339.509C156.262 337.08 155.838 334.704 155.379 332.29C159.499 333.543 163.788 334.375 168.255 334.375C170.493 334.375 172.793 334.213 175.068 333.865C182.834 332.689 189.929 329.443 195.911 324.8C205.715 389.271 203.431 442.487 188.657 486.777V486.779ZM227.409 302.747C225.001 304.84 221.345 304.939 219.08 302.975C175.261 264.833 159.096 217.547 169.66 158.413C170.245 155.138 173.346 152.668 176.862 152.668C178.945 152.668 180.86 153.53 182.255 155.103C183.66 156.686 184.299 158.695 184.049 160.776C177.073 218.929 187.745 251.177 227.978 293.468C229.156 294.709 229.76 296.349 229.672 298.098C229.586 299.913 228.783 301.558 227.415 302.741C227.415 302.741 227.415 302.747 227.409 302.747ZM333.534 338.129C328.107 332.105 322.131 326.617 315.764 321.814C312.491 319.334 307.826 319.99 305.358 323.256C302.886 326.525 303.529 331.18 306.804 333.648C312.424 337.885 317.697 342.73 322.485 348.049C323.954 349.677 325.979 350.507 328.011 350.507C329.78 350.507 331.556 349.882 332.979 348.606C336.031 345.864 336.275 341.176 333.536 338.129H333.534ZM371.848 477.225C372.029 477.225 372.213 477.219 372.393 477.208C376.485 476.907 379.561 473.354 379.264 469.268C378.685 461.357 377.9 453.667 376.909 446.195C376.364 442.132 372.637 439.316 368.561 439.82C364.498 440.359 361.637 444.09 362.178 448.153C363.136 455.334 363.884 462.735 364.441 470.346C364.732 474.251 367.988 477.225 371.846 477.225H371.848ZM367.267 432.009C371.283 431.169 373.86 427.239 373.02 423.227C371.361 415.303 369.409 407.666 367.222 400.537C366.02 396.62 361.877 394.428 357.942 395.616C354.018 396.816 351.813 400.965 353.015 404.883C355.071 411.582 356.908 418.775 358.477 426.264C359.208 429.764 362.296 432.163 365.743 432.163C366.243 432.163 366.759 432.109 367.269 432.007L367.267 432.009ZM295.196 309.197C288.19 305.764 280.663 302.85 272.821 300.538C268.928 299.407 264.76 301.621 263.587 305.551C262.426 309.481 264.672 313.608 268.607 314.773C275.654 316.848 282.392 319.455 288.648 322.517C289.703 323.033 290.819 323.277 291.917 323.277C294.661 323.277 297.303 321.753 298.591 319.127C300.402 315.447 298.876 311.001 295.196 309.199V309.197ZM359.044 378.398C355.759 370.927 352.028 363.839 347.952 357.337C345.781 353.849 341.18 352.811 337.72 354.978C334.237 357.144 333.182 361.724 335.359 365.195C339.05 371.095 342.439 377.547 345.439 384.368C346.664 387.145 349.386 388.802 352.247 388.802C353.24 388.802 354.254 388.606 355.229 388.178C358.985 386.531 360.691 382.157 359.042 378.401L359.044 378.398ZM372.764 485.259C368.66 485.363 365.422 488.765 365.522 492.863C365.62 496.736 365.674 500.648 365.684 504.606C365.696 508.692 369.022 512.002 373.112 512.002H373.137C377.241 511.99 380.554 508.657 380.542 504.561C380.532 500.498 380.479 496.47 380.38 492.495C380.276 488.397 376.903 485.314 372.764 485.261V485.259Z" fill="#0034D1"/>
</g>
<defs>
<clipPath id="clip0_797_703">
<rect width="512" height="512" fill="white"/>
</clipPath>
</defs>
</svg>
