<svg width="512" height="512" viewBox="0 0 512 512" fill="none" xmlns="http://www.w3.org/2000/svg">
<mask id="mask0_797_793" style="mask-type:luminance" maskUnits="userSpaceOnUse" x="0" y="0" width="512" height="512">
<path d="M0 3.05176e-05H511.999V511.999H0V3.05176e-05Z" fill="white"/>
</mask>
<g mask="url(#mask0_797_793)">
<path d="M400.257 280.479C429.406 276.262 451.797 251.18 451.797 220.857V10.0008H502V220.857C502 251.361 489.64 278.972 469.65 298.955C450.582 318.031 424.566 330.161 395.719 331.215" fill="#4B47A2"/>
<path d="M116.282 331.215C57.2119 329.036 10 280.458 10 220.857V9.99982H60.2038V220.857C60.2038 237.493 66.9508 252.555 77.8448 263.46C86.8118 272.416 98.5897 278.571 111.744 280.479" fill="#4B47A2"/>
<path d="M306.689 187.89C360.229 203.66 398.888 243.689 401.449 291.139C401.538 292.799 401.588 294.48 401.588 296.16C401.588 350.32 354.569 417.49 291.139 436.509V501.999H220.86V436.509C157.429 417.49 110.41 350.32 110.41 296.16C110.41 294.48 110.459 292.799 110.549 291.139C113.11 243.689 151.78 203.65 205.32 187.89" fill="#4B47A2"/>
<path d="M255.942 216C232.646 216 210.541 207.105 193.697 190.952C176.805 174.754 166.994 152.951 166.068 129.559C165.118 105.538 173.578 82.5839 189.891 64.9269C206.205 47.269 228.419 37.021 252.439 36.07C253.639 36.022 254.855 35.999 256.053 35.999C279.349 35.999 301.455 44.894 318.299 61.0479C335.19 77.2459 345.002 99.0488 345.927 122.441C346.878 146.462 338.418 169.416 322.104 187.073C305.791 204.731 283.577 214.978 259.556 215.929C258.352 215.977 257.147 216.001 255.942 216Z" fill="#A4FCC4"/>
<path d="M264.41 85.636L245.48 113.071L266.519 138.926L247.59 166.365" fill="#4B47A2"/>
<path d="M401.449 291.139C401.539 292.799 401.589 294.48 401.589 296.16C401.589 350.32 354.569 417.49 291.139 436.509V501.999H220.86V436.509C157.43 417.49 110.41 350.32 110.41 296.16C110.41 294.48 110.46 292.799 110.55 291.139C146.809 291.189 146.86 311.219 183.2 311.219C219.599 311.219 219.599 291.139 256 291.139C292.4 291.139 292.4 311.219 328.8 311.219C365.138 311.219 365.188 291.189 401.449 291.139Z" fill="#A4FCC4"/>
</g>
</svg>
